{
.appVersion = "1060";
copyright = "Copyright 2017 Google Inc. All Rights Reserved.";
customParameters = (
{
name = glyphOrder;
value = (
.notdef,
NULL,
CR,
space,
uni00A0,
uni1C23,
uni1C23_1C24,
uni1C13,
uni1C13_1C25,
uni1C13_1C25_1C24,
uni1C13_1C24,
uni1C14,
uni1C14_1C24,
uni1C06,
uni1C07,
uni1C2D_1C36,
uni1C2F_1C36,
uni1C2E_1C36,
uni1C30_1C36,
uni1C31_1C36,
uni1C32_1C36,
uni1C33_1C36,
uni1C0C,
uni1C0C_1C24,
uni1C4F,
u25CC_1C2D,
u25CC_1C2F,
u25CC_1C2E,
u25CC_1C30,
u25CC_1C31,
u25CC_1C32,
u25CC_1C33,
u25CC_1C36,
u25CC_1C25,
u25CC_1C24,
u25CC_1C2C,
uni1C19,
uni1C11,
uni1C11_1C25,
uni1C11_1C25_1C24,
uni1C11_1C24,
uni1C12,
uni1C12_1C24,
uni1C03,
uni1C03_1C25,
uni1C03_1C25_1C24,
uni1C03_1C24,
uni1C04,
uni1C04_1C24,
uni1C1D,
uni1C1D_1C25,
uni1C1D_1C25_1C24,
uni1C1D_1C24,
uni1C1E,
uni1C1E_1C24,
uni1C08,
uni1C08_1C24,
uni1C00,
uni1C00_1C25,
uni1C00_1C25_1C24,
uni1C00_1C24,
uni1C02,
uni1C02_1C25,
uni1C02_1C24,
uni1C01,
uni1C01_1C24,
uni1C1C,
uni1C1C_1C24,
uni1C15,
uni1C15_1C25,
uni1C15_1C25_1C24,
uni1C15_1C24,
uni1C16,
uni1C16_1C24,
uni1C0D,
uni1C05,
uni1C05_1C25,
uni1C05_1C25_1C24,
uni1C05_1C24,
uni1C09,
uni1C0E,
uni1C0E_1C25,
uni1C0E_1C25_1C24,
uni1C0E_1C24,
uni1C10,
uni1C10_1C24,
uni1C0F,
uni1C0F_1C24,
uni1C1B,
uni1C1B_1C24,
uni1C20,
uni1C21,
uni1C21_1C24,
uni1C0A,
uni1C0A_1C24,
uni1C0B,
uni1C0B_1C24,
uni1C17,
uni1C18,
uni1C4D,
uni1C4E,
uni1C1F,
uni1C1F_1C24,
uni1C22,
uni1C1A,
uni1C35,
uni1C34,
uni1C25,
uni1C24,
uni1C26,
uni1C27,
uni1C28,
uni1C29,
uni1C2A,
uni1C2B,
uni1C25.alt,
uni1C24.alt,
uni1C26.alt,
uni1C2A.alt,
uni1C2B.alt,
uni1C25_1C24,
uni1C29.wide,
uni1C29.short,
uni1C40,
uni1C41,
uni1C42,
uni1C43,
uni1C44,
uni1C45,
uni1C46,
uni1C47,
uni1C48,
uni1C49,
uni1C3D,
uni1C3C,
uni1C3B,
uni1C3F,
uni1C3E,
uni25CC,
uni1C2D,
uni1C2F,
uni1C2E,
uni1C30,
uni1C31,
uni1C32,
uni1C33,
uni1C37,
uni1C36,
uni1C2C,
uni200B,
uni200C,
uni200D
);
},
{
name = description;
value = "Designed by Monotype design team.";
},
{
name = license;

glyphs = (
{
glyphname = .notdef;
lastChange = "2017-09-18 13:29:20 +0000";
layers = (
{
layerId = "677D40D0-0324-4315-A4A8-9988F2BAD02F";
paths = (
{
closed = 1;
nodes = (
"505 0 LINE",
"505 714 LINE",
"94 714 LINE",
"94 0 LINE"
);
},
{
closed = 1;
nodes = (
"454 663 LINE",
"454 51 LINE",
"145 51 LINE",
"145 663 LINE"
);
}
);
width = 600;
}
);
note = .notdef;
},
{
glyphname = uni1C23;
lastChange = "2017-09-18 13:29:20 +0000";
layers = (
{
layerId = "677D40D0-0324-4315-A4A8-9988F2BAD02F";
paths = (
{
closed = 1;
nodes = (
"219 593 OFFCURVE",
"145 575 OFFCURVE",
"55 519 CURVE",
"91 449 LINE",
"175 502 OFFCURVE",
"232 516 OFFCURVE",
"294 516 CURVE SMOOTH",
"375 516 OFFCURVE",
"402 488 OFFCURVE",
"402 446 CURVE SMOOTH",
"402 406 OFFCURVE",
"382 383 OFFCURVE",
"261 342 CURVE SMOOTH",
"171 312 OFFCURVE",
"61 274 OFFCURVE",
"61 149 CURVE SMOOTH",
"61 49 OFFCURVE",
"133 -13 OFFCURVE",
"265 -13 CURVE SMOOTH",
"361 -13 OFFCURVE",
"455 18 OFFCURVE",
"569 98 CURVE",
"526 166 LINE",
"421 91 OFFCURVE",
"346 64 OFFCURVE",
"265 64 CURVE SMOOTH",
"178 64 OFFCURVE",
"141 98 OFFCURVE",
"141 154 CURVE SMOOTH",
"141 225 OFFCURVE",
"199 247 OFFCURVE",
"298 281 CURVE SMOOTH",
"444 331 OFFCURVE",
"482 378 OFFCURVE",
"482 448 CURVE SMOOTH",
"482 533 OFFCURVE",
"423 593 OFFCURVE",
"292 593 CURVE SMOOTH"
);
},
{
closed = 1;
nodes = (
"111 497 LINE",
"447 55 LINE",
"510 97 LINE",
"174 540 LINE"
);
}
);
width = 609;
}
);
note = u1C23;
unicode = 1C23;
},
{
glyphname = uni1C23_1C24;
lastChange = "2017-09-18 13:29:20 +0000";
layers = (
{
layerId = "677D40D0-0324-4315-A4A8-9988F2BAD02F";
paths = (
{
closed = 1;
nodes = (
"462 411 LINE",
"494 350 OFFCURVE",
"518 286 OFFCURVE",
"537 207 CURVE",
"614 182 LINE",
"684 277 OFFCURVE",
"715 351 OFFCURVE",
"715 450 CURVE SMOOTH",
"715 499 OFFCURVE",
"707 541 OFFCURVE",
"693 583 CURVE",
"611 555 LINE",
"628 510 OFFCURVE",
"635 472 OFFCURVE",
"635 429 CURVE SMOOTH",
"635 374 OFFCURVE",
"623 326 OFFCURVE",
"592 268 CURVE",
"589 269 LINE",
"561 379 OFFCURVE",
"520 472 OFFCURVE",
"458 534 CURVE SMOOTH",
"420 572 OFFCURVE",
"373 593 OFFCURVE",
"294 593 CURVE SMOOTH",
"219 593 OFFCURVE",
"145 575 OFFCURVE",
"55 519 CURVE",
"91 449 LINE",
"175 502 OFFCURVE",
"232 516 OFFCURVE",
"294 516 CURVE SMOOTH",
"375 516 OFFCURVE",
"402 488 OFFCURVE",
"402 446 CURVE SMOOTH",
"402 406 OFFCURVE",
"382 383 OFFCURVE",
"261 342 CURVE SMOOTH",
"171 312 OFFCURVE",
"61 274 OFFCURVE",
"61 149 CURVE SMOOTH",
"61 49 OFFCURVE",
"133 -13 OFFCURVE",
"265 -13 CURVE SMOOTH",
"356 -13 OFFCURVE",
"444 15 OFFCURVE",
"552 86 CURVE",
"509 154 LINE",
"411 88 OFFCURVE",
"341 64 OFFCURVE",
"265 64 CURVE SMOOTH",
"178 64 OFFCURVE",
"141 98 OFFCURVE",
"141 154 CURVE SMOOTH",
"141 225 OFFCURVE",
"199 247 OFFCURVE",
"298 281 CURVE SMOOTH",
"419 323 OFFCURVE",
"466 362 OFFCURVE",
"478 414 CURVE"
);
},
{
closed = 1;
nodes = (
"106 497 LINE",
"442 55 LINE",
"505 97 LINE",
"169 540 LINE"
);
}
);
width = 760;
}
);
note = u1C23_1C24;
rightKerningGroup = u1C23_1C24;
},
{
glyphname = uni1C13;
lastChange = "2017-09-18 13:29:20 +0000";
layers = (
{
layerId = "677D40D0-0324-4315-A4A8-9988F2BAD02F";
paths = (
{
closed = 1;
nodes = (
"140 500 OFFCURVE",
"70 391 OFFCURVE",
"70 242 CURVE SMOOTH",
"70 103 OFFCURVE",
"166 -13 OFFCURVE",
"327 -13 CURVE SMOOTH",
"487 -13 OFFCURVE",
"584 103 OFFCURVE",
"584 242 CURVE SMOOTH",
"584 391 OFFCURVE",
"513 500 OFFCURVE",
"327 597 CURVE"
);
},
{
closed = 1;
nodes = (
"454 425 OFFCURVE",
"498 348 OFFCURVE",
"498 242 CURVE SMOOTH",
"498 146 OFFCURVE",
"435 69 OFFCURVE",
"327 69 CURVE SMOOTH",
"217 69 OFFCURVE",
"155 146 OFFCURVE",
"155 242 CURVE SMOOTH",
"155 348 OFFCURVE",
"201 425 OFFCURVE",
"327 502 CURVE"
);
}
);
width = 654;
}
);
leftKerningGroup = u1C13;
note = u1C13;
rightKerningGroup = u1C13;
unicode = 1C13;
},
{
glyphname = uni1C13_1C25;
lastChange = "2017-09-18 13:29:20 +0000";
layers = (
{
layerId = "677D40D0-0324-4315-A4A8-9988F2BAD02F";
paths = (
{
closed = 1;
nodes = (
"723 40 OFFCURVE",
"751 128 OFFCURVE",
"751 216 CURVE SMOOTH",
"751 348 OFFCURVE",
"696 419 OFFCURVE",
"602 419 CURVE SMOOTH",
"586 419 OFFCURVE",
"567 416 OFFCURVE",
"544 410 CURVE",
"506 479 OFFCURVE",
"434 541 OFFCURVE",
"327 597 CURVE",
"143 502 OFFCURVE",
"70 394 OFFCURVE",
"70 242 CURVE SMOOTH",
"70 95 OFFCURVE",
"173 -13 OFFCURVE",
"327 -13 CURVE SMOOTH",
"479 -13 OFFCURVE",
"584 94 OFFCURVE",
"584 242 CURVE SMOOTH",
"584 275 OFFCURVE",
"581 307 OFFCURVE",
"573 338 CURVE",
"583 340 OFFCURVE",
"592 341 OFFCURVE",
"602 341 CURVE SMOOTH",
"650 341 OFFCURVE",
"671 302 OFFCURVE",
"671 214 CURVE SMOOTH",
"671 137 OFFCURVE",
"650 59 OFFCURVE",
"609 -20 CURVE",
"668 -52 LINE"
);
},
{
closed = 1;
nodes = (
"220 69 OFFCURVE",
"155 142 OFFCURVE",
"155 242 CURVE SMOOTH",
"155 350 OFFCURVE",
"203 426 OFFCURVE",
"327 502 CURVE",
"451 427 OFFCURVE",
"498 352 OFFCURVE",
"498 242 CURVE SMOOTH",
"498 143 OFFCURVE",
"432 69 OFFCURVE",
"327 69 CURVE SMOOTH"
);
}
);
width = 799;
}
);
leftKerningGroup = u1C13;
note = u1C13_1C25;
},
{
glyphname = uni1C13_1C25_1C24;
lastChange = "2017-09-18 13:29:20 +0000";
layers = (
{
layerId = "677D40D0-0324-4315-A4A8-9988F2BAD02F";
paths = (
{
closed = 1;
nodes = (
"871 390 OFFCURVE",
"879 348 OFFCURVE",
"879 306 CURVE SMOOTH",
"879 252 OFFCURVE",
"865 198 OFFCURVE",
"836 145 CURVE",
"833 146 LINE",
"810 339 OFFCURVE",
"747 435 OFFCURVE",
"644 435 CURVE SMOOTH",
"608 435 OFFCURVE",
"575 428 OFFCURVE",
"542 413 CURVE",
"504 481 OFFCURVE",
"432 542 OFFCURVE",
"327 597 CURVE",
"143 502 OFFCURVE",
"70 394 OFFCURVE",
"70 242 CURVE SMOOTH",
"70 95 OFFCURVE",
"173 -13 OFFCURVE",
"327 -13 CURVE SMOOTH",
"479 -13 OFFCURVE",
"584 94 OFFCURVE",
"584 242 CURVE SMOOTH",
"584 280 OFFCURVE",
"580 314 OFFCURVE",
"571 345 CURVE",
"578 349 OFFCURVE",
"584 351 OFFCURVE",
"591 351 CURVE SMOOTH",
"618 351 OFFCURVE",
"631 315 OFFCURVE",
"631 244 CURVE SMOOTH",
"631 162 OFFCURVE",
"624 80 OFFCURVE",
"610 -2 CURVE",
"679 -17 LINE",
"700 69 OFFCURVE",
"711 149 OFFCURVE",
"711 225 CURVE SMOOTH",
"711 280 OFFCURVE",
"702 321 OFFCURVE",
"684 350 CURVE",
"686 353 LINE",
"740 312 OFFCURVE",
"765 190 OFFCURVE",
"781 84 CURVE",
"858 59 LINE",
"930 156 OFFCURVE",
"959 229 OFFCURVE",
"959 327 CURVE SMOOTH",
"959 372 OFFCURVE",
"952 416 OFFCURVE",
"937 460 CURVE",
"855 432 LINE"
);
},
{
closed = 1;
nodes = (
"220 69 OFFCURVE",
"155 142 OFFCURVE",
"155 242 CURVE SMOOTH",
"155 350 OFFCURVE",
"203 426 OFFCURVE",
"327 502 CURVE",
"451 427 OFFCURVE",
"498 352 OFFCURVE",
"498 242 CURVE SMOOTH",
"498 143 OFFCURVE",
"432 69 OFFCURVE",
"327 69 CURVE SMOOTH"
);
}
);
width = 1004;
}
);
leftKerningGroup = u1C13;
note = u1C13_1C25_1C24;
rightKerningGroup = u1C13_1C25_1C24;
},
{
glyphname = uni1C13_1C24;
lastChange = "2017-09-18 13:29:20 +0000";
layers = (
{
layerId = "677D40D0-0324-4315-A4A8-9988F2BAD02F";
paths = (
{
closed = 1;
nodes = (
"775 389 OFFCURVE",
"783 347 OFFCURVE",
"783 305 CURVE SMOOTH",
"783 251 OFFCURVE",
"769 197 OFFCURVE",
"740 144 CURVE",
"737 145 LINE",
"712 295 OFFCURVE",
"676 436 OFFCURVE",
"571 436 CURVE SMOOTH",
"557 436 OFFCURVE",
"543 434 OFFCURVE",
"531 430 CURVE",
"492 491 OFFCURVE",
"424 547 OFFCURVE",
"327 597 CURVE",
"143 502 OFFCURVE",
"70 394 OFFCURVE",
"70 242 CURVE SMOOTH",
"70 95 OFFCURVE",
"173 -13 OFFCURVE",
"327 -13 CURVE SMOOTH",
"479 -13 OFFCURVE",
"584 94 OFFCURVE",
"584 242 CURVE SMOOTH",
"584 282 OFFCURVE",
"578 320 OFFCURVE",
"567 358 CURVE",
"571 358 LINE SMOOTH",
"623 358 OFFCURVE",
"658 198 OFFCURVE",
"677 86 CURVE",
"762 58 LINE",
"834 155 OFFCURVE",
"863 229 OFFCURVE",
"863 326 CURVE SMOOTH",
"863 371 OFFCURVE",
"855 415 OFFCURVE",
"841 459 CURVE",
"759 431 LINE"
);
},
{
closed = 1;
nodes = (
"220 69 OFFCURVE",
"155 142 OFFCURVE",
"155 242 CURVE SMOOTH",
"155 350 OFFCURVE",
"203 426 OFFCURVE",
"327 502 CURVE",
"451 427 OFFCURVE",
"498 352 OFFCURVE",
"498 242 CURVE SMOOTH",
"498 143 OFFCURVE",
"432 69 OFFCURVE",
"327 69 CURVE SMOOTH"
);
}
);
width = 908;
}
);
leftKerningGroup = u1C13;
note = u1C13_1C24;
rightKerningGroup = u1C13_1C25_1C24;
},
{
glyphname = uni1C14;
lastChange = "2017-09-18 13:29:20 +0000";
layers = (
{
layerId = "677D40D0-0324-4315-A4A8-9988F2BAD02F";
paths = (
{
closed = 1;
nodes = (
"218 118 OFFCURVE",
"156 205 OFFCURVE",
"156 340 CURVE SMOOTH",
"156 458 OFFCURVE",
"202 516 OFFCURVE",
"293 516 CURVE SMOOTH",
"381 516 OFFCURVE",
"425 432 OFFCURVE",
"425 264 CURVE",
"509 264 LINE",
"509 446 OFFCURVE",
"556 516 OFFCURVE",
"640 516 CURVE SMOOTH",
"732 516 OFFCURVE",
"778 458 OFFCURVE",
"778 340 CURVE SMOOTH",
"778 205 OFFCURVE",
"716 118 OFFCURVE",
"579 55 CURVE",
"615 -22 LINE",
"780 53 OFFCURVE",
"863 174 OFFCURVE",
"863 342 CURVE SMOOTH",
"863 503 OFFCURVE",
"779 597 OFFCURVE",
"647 597 CURVE SMOOTH",
"558 597 OFFCURVE",
"499 554 OFFCURVE",
"469 468 CURVE",
"465 468 LINE",
"436 554 OFFCURVE",
"376 597 OFFCURVE",
"286 597 CURVE SMOOTH",
"154 597 OFFCURVE",
"70 503 OFFCURVE",
"70 342 CURVE SMOOTH",
"70 178 OFFCURVE",
"153 53 OFFCURVE",
"320 -22 CURVE",
"354 55 LINE"
);
}
);
width = 933;
}
);
leftKerningGroup = u1C13;
note = u1C14;
rightKerningGroup = u1C13;
unicode = 1C14;
},
{
glyphname = uni1C14_1C24;
lastChange = "2017-09-18 13:29:20 +0000";
layers = (
{
layerId = "677D40D0-0324-4315-A4A8-9988F2BAD02F";
paths = (
{
closed = 1;
nodes = (
"1069 389 OFFCURVE",
"1077 347 OFFCURVE",
"1077 305 CURVE SMOOTH",
"1077 251 OFFCURVE",
"1063 197 OFFCURVE",
"1034 144 CURVE",
"1031 145 LINE",
"1005 295 OFFCURVE",
"970 436 OFFCURVE",
"865 436 CURVE SMOOTH",
"861 436 OFFCURVE",
"856 435 OFFCURVE",
"852 435 CURVE",
"825 539 OFFCURVE",
"750 597 OFFCURVE",
"647 597 CURVE SMOOTH",
"558 597 OFFCURVE",
"499 554 OFFCURVE",
"469 468 CURVE",
"465 468 LINE",
"436 554 OFFCURVE",
"376 597 OFFCURVE",
"286 597 CURVE SMOOTH",
"154 597 OFFCURVE",
"70 503 OFFCURVE",
"70 342 CURVE SMOOTH",
"70 178 OFFCURVE",
"153 53 OFFCURVE",
"320 -22 CURVE",
"354 55 LINE",
"218 118 OFFCURVE",
"156 205 OFFCURVE",
"156 340 CURVE SMOOTH",
"156 458 OFFCURVE",
"202 516 OFFCURVE",
"293 516 CURVE SMOOTH",
"381 516 OFFCURVE",
"425 432 OFFCURVE",
"425 264 CURVE",
"509 264 LINE",
"509 446 OFFCURVE",
"556 516 OFFCURVE",
"640 516 CURVE SMOOTH",
"732 516 OFFCURVE",
"778 458 OFFCURVE",
"778 340 CURVE SMOOTH",
"778 205 OFFCURVE",
"716 118 OFFCURVE",
"579 55 CURVE",
"615 -22 LINE",
"780 53 OFFCURVE",
"863 174 OFFCURVE",
"863 342 CURVE SMOOTH",
"863 358 LINE",
"865 358 LINE SMOOTH",
"917 358 OFFCURVE",
"954 194 OFFCURVE",
"971 86 CURVE",
"1056 58 LINE",
"1128 155 OFFCURVE",
"1157 229 OFFCURVE",
"1157 326 CURVE SMOOTH",
"1157 371 OFFCURVE",
"1150 415 OFFCURVE",
"1135 459 CURVE",
"1053 431 LINE"
);
}
);
width = 1202;
}
);
leftKerningGroup = u1C13;
note = u1C14_1C24;
rightKerningGroup = u1C13_1C25_1C24;
},
{
glyphname = uni1C06;
lastChange = "2017-09-18 13:29:20 +0000";
layers = (
{
layerId = "677D40D0-0324-4315-A4A8-9988F2BAD02F";
paths = (
{
closed = 1;
nodes = (
"246 601 OFFCURVE",
"143 462 OFFCURVE",
"143 294 CURVE SMOOTH",
"143 126 OFFCURVE",
"246 -14 OFFCURVE",
"375 -14 CURVE SMOOTH",
"504 -14 OFFCURVE",
"607 126 OFFCURVE",
"607 294 CURVE SMOOTH",
"607 462 OFFCURVE",
"504 601 OFFCURVE",
"375 601 CURVE SMOOTH"
);
},
{
closed = 1;
nodes = (
"23 335 LINE",
"23 254 LINE",
"171 254 LINE",
"171 335 LINE"
);
},
{
closed = 1;
nodes = (
"453 520 OFFCURVE",
"523 415 OFFCURVE",
"523 294 CURVE SMOOTH",
"523 173 OFFCURVE",
"453 68 OFFCURVE",
"375 68 CURVE SMOOTH",
"297 68 OFFCURVE",
"227 173 OFFCURVE",
"227 294 CURVE SMOOTH",
"227 415 OFFCURVE",
"297 520 OFFCURVE",
"375 520 CURVE SMOOTH"
);
}
);
width = 677;
}
);
note = u1C06;
rightKerningGroup = u1C13;
unicode = 1C06;
},
{
glyphname = uni1C07;
lastChange = "2017-09-18 13:29:20 +0000";
layers = (
{
layerId = "677D40D0-0324-4315-A4A8-9988F2BAD02F";
paths = (
{
closed = 1;
nodes = (
"418 502 OFFCURVE",
"447 525 OFFCURVE",
"502 525 CURVE SMOOTH",
"542 525 OFFCURVE",
"577 519 OFFCURVE",
"623 500 CURVE",
"623 584 LINE",
"582 599 OFFCURVE",
"546 606 OFFCURVE",
"499 606 CURVE SMOOTH",
"419 606 OFFCURVE",
"369 570 OFFCURVE",
"349 517 CURVE",
"346 517 LINE",
"326 570 OFFCURVE",
"276 606 OFFCURVE",
"196 606 CURVE SMOOTH",
"149 606 OFFCURVE",
"114 599 OFFCURVE",
"73 584 CURVE",
"73 499 LINE",
"118 519 OFFCURVE",
"153 525 OFFCURVE",
"193 525 CURVE SMOOTH",
"248 525 OFFCURVE",
"277 502 OFFCURVE",
"277 457 CURVE SMOOTH",
"277 403 OFFCURVE",
"226 304 OFFCURVE",
"28 71 CURVE",
"84 -18 LINE",
"204 17 OFFCURVE",
"273 25 OFFCURVE",
"348 25 CURVE SMOOTH",
"422 25 OFFCURVE",
"491 17 OFFCURVE",
"611 -18 CURVE",
"668 71 LINE",
"469 304 OFFCURVE",
"418 403 OFFCURVE",
"418 457 CURVE SMOOTH"
);
},
{
closed = 1;
nodes = (
"486 96 OFFCURVE",
"424 107 OFFCURVE",
"348 107 CURVE SMOOTH",
"271 107 OFFCURVE",
"210 97 OFFCURVE",
"127 70 CURVE",
"127 74 LINE",
"258 230 OFFCURVE",
"324 333 OFFCURVE",
"346 407 CURVE",
"349 407 LINE",
"371 333 OFFCURVE",
"437 230 OFFCURVE",
"569 74 CURVE",
"569 70 LINE"
);
}
);
width = 695;
}
);
note = u1C07;
unicode = 1C07;
},
{
glyphname = uni1C0C;
lastChange = "2017-09-18 13:29:20 +0000";
layers = (
{
layerId = "677D40D0-0324-4315-A4A8-9988F2BAD02F";
paths = (
{
closed = 1;
nodes = (
"205 268 OFFCURVE",
"114 248 OFFCURVE",
"39 210 CURVE",
"39 130 LINE",
"113 168 OFFCURVE",
"204 188 OFFCURVE",
"303 188 CURVE SMOOTH",
"403 188 OFFCURVE",
"494 168 OFFCURVE",
"568 130 CURVE",
"568 210 LINE",
"493 248 OFFCURVE",
"402 268 OFFCURVE",
"303 268 CURVE SMOOTH"
);
},
{
closed = 1;
nodes = (
"262 519 LINE",
"262 209 LINE",
"345 209 LINE",
"345 519 LINE"
);
},
{
closed = 1;
nodes = (
"494 571 OFFCURVE",
"403 561 OFFCURVE",
"303 561 CURVE SMOOTH",
"204 561 OFFCURVE",
"113 571 OFFCURVE",
"39 593 CURVE",
"39 515 LINE",
"114 492 OFFCURVE",
"205 480 OFFCURVE",
"303 480 CURVE SMOOTH",
"402 480 OFFCURVE",
"493 492 OFFCURVE",
"568 515 CURVE",
"568 593 LINE"
);
}
);
width = 607;
}
);
leftKerningGroup = u1C0C;
note = u1C0C;
unicode = 1C0C;
},
{
glyphname = uni1C0C_1C24;
lastChange = "2017-09-18 13:29:20 +0000";
layers = (
{
layerId = "677D40D0-0324-4315-A4A8-9988F2BAD02F";
paths = (
{
closed = 1;
nodes = (
"752 538 OFFCURVE",
"760 496 OFFCURVE",
"760 454 CURVE SMOOTH",
"760 400 OFFCURVE",
"746 346 OFFCURVE",
"717 293 CURVE",
"714 294 LINE",
"694 409 OFFCURVE",
"652 501 OFFCURVE",
"568 593 CURVE",
"496 572 OFFCURVE",
"408 561 OFFCURVE",
"303 561 CURVE SMOOTH",
"199 561 OFFCURVE",
"111 572 OFFCURVE",
"39 593 CURVE",
"39 515 LINE",
"102 496 OFFCURVE",
"176 484 OFFCURVE",
"262 481 CURVE",
"262 267 LINE",
"177 262 OFFCURVE",
"102 243 OFFCURVE",
"39 210 CURVE",
"39 130 LINE",
"114 168 OFFCURVE",
"202 188 OFFCURVE",
"303 188 CURVE SMOOTH",
"404 188 OFFCURVE",
"493 168 OFFCURVE",
"568 130 CURVE",
"568 210 LINE",
"504 243 OFFCURVE",
"430 262 OFFCURVE",
"345 267 CURVE",
"345 481 LINE",
"412 483 OFFCURVE",
"476 491 OFFCURVE",
"536 506 CURVE",
"604 426 OFFCURVE",
"638 348 OFFCURVE",
"662 232 CURVE",
"739 207 LINE",
"811 304 OFFCURVE",
"840 377 OFFCURVE",
"840 475 CURVE SMOOTH",
"840 520 OFFCURVE",
"833 564 OFFCURVE",
"818 608 CURVE",
"736 580 LINE"
);
}
);
width = 885;
}
);
leftKerningGroup = u1C0C;
note = u1C0C_1C24;
rightKerningGroup = u1C23_1C24;
},
{
glyphname = uni1C4F;
lastChange = "2017-09-18 13:29:20 +0000";
layers = (
{
layerId = "677D40D0-0324-4315-A4A8-9988F2BAD02F";
paths = (
{
closed = 1;
nodes = (
"458 574 OFFCURVE",
"390 560 OFFCURVE",
"318 557 CURVE",
"327 576 OFFCURVE",
"339 595 OFFCURVE",
"352 614 CURVE",
"256 614 LINE",
"245 596 OFFCURVE",
"234 578 OFFCURVE",
"226 558 CURVE",
"158 562 OFFCURVE",
"97 574 OFFCURVE",
"47 593 CURVE",
"47 515 LINE",
"92 496 OFFCURVE",
"145 485 OFFCURVE",
"203 479 CURVE",
"199 452 OFFCURVE",
"196 423 OFFCURVE",
"196 390 CURVE SMOOTH",
"196 325 OFFCURVE",
"215 261 OFFCURVE",
"251 200 CURVE",
"236 203 OFFCURVE",
"221 204 OFFCURVE",
"205 204 CURVE SMOOTH",
"145 204 OFFCURVE",
"91 197 OFFCURVE",
"47 180 CURVE",
"47 102 LINE",
"90 116 OFFCURVE",
"144 124 OFFCURVE",
"205 124 CURVE SMOOTH",
"261 124 OFFCURVE",
"315 115 OFFCURVE",
"363 102 CURVE",
"363 179 LINE",
"307 249 OFFCURVE",
"281 317 OFFCURVE",
"281 390 CURVE SMOOTH",
"281 421 OFFCURVE",
"284 449 OFFCURVE",
"290 476 CURVE",
"352 476 OFFCURVE",
"410 482 OFFCURVE",
"461 495 CURVE",
"489 429 OFFCURVE",
"503 364 OFFCURVE",
"503 295 CURVE SMOOTH",
"503 181 OFFCURVE",
"476 93 OFFCURVE",
"417 0 CURVE",
"513 0 LINE",
"560 76 OFFCURVE",
"588 168 OFFCURVE",
"588 295 CURVE SMOOTH",
"588 399 OFFCURVE",
"565 499 OFFCURVE",
"520 593 CURVE"
);
}
);
width = 663;
}
);
note = u1C4F;
unicode = 1C4F;
},
{
glyphname = uni1C19;
lastChange = "2017-09-18 13:29:20 +0000";
layers = (
{
layerId = "677D40D0-0324-4315-A4A8-9988F2BAD02F";
paths = (
{
closed = 1;
nodes = (
"419 583 LINE",
"375 492 OFFCURVE",
"353 391 OFFCURVE",
"353 289 CURVE SMOOTH",
"353 163 OFFCURVE",
"379 74 OFFCURVE",
"421 0 CURVE",
"511 0 LINE",
"461 83 OFFCURVE",
"439 168 OFFCURVE",
"439 289 CURVE SMOOTH",
"439 390 OFFCURVE",
"458 486 OFFCURVE",
"506 583 CURVE"
);
},
{
closed = 1;
nodes = (
"170 583 LINE",
"126 492 OFFCURVE",
"104 391 OFFCURVE",
"104 289 CURVE SMOOTH",
"104 163 OFFCURVE",
"130 74 OFFCURVE",
"172 0 CURVE",
"262 0 LINE",
"211 83 OFFCURVE",
"189 168 OFFCURVE",
"189 289 CURVE SMOOTH",
"189 390 OFFCURVE",
"208 486 OFFCURVE",
"256 583 CURVE"
);
},
{
closed = 1;
nodes = (
"35 408 LINE",
"35 333 LINE",
"557 333 LINE",
"557 408 LINE"
);
}
);
width = 592;
}
);
note = u1C19;
unicode = 1C19;
},
{
glyphname = uni1C11;
lastChange = "2017-09-18 13:29:20 +0000";
layers = (
{
layerId = "677D40D0-0324-4315-A4A8-9988F2BAD02F";
paths = (
{
closed = 1;
nodes = (
"500 342 OFFCURVE",
"422 333 OFFCURVE",
"334 333 CURVE SMOOTH",
"269 333 OFFCURVE",
"212 337 OFFCURVE",
"164 345 CURVE",
"174 397 OFFCURVE",
"193 449 OFFCURVE",
"220 498 CURVE",
"252 494 OFFCURVE",
"289 491 OFFCURVE",
"330 491 CURVE SMOOTH",
"403 491 OFFCURVE",
"462 499 OFFCURVE",
"510 515 CURVE",
"510 593 LINE",
"458 578 OFFCURVE",
"399 571 OFFCURVE",
"332 571 CURVE SMOOTH",
"269 571 OFFCURVE",
"214 577 OFFCURVE",
"166 589 CURVE",
"95 454 OFFCURVE",
"70 359 OFFCURVE",
"70 244 CURVE SMOOTH",
"70 191 OFFCURVE",
"79 146 OFFCURVE",
"97 110 CURVE",
"72 89 OFFCURVE",
"59 59 OFFCURVE",
"59 19 CURVE SMOOTH",
"59 13 OFFCURVE",
"60 6 OFFCURVE",
"61 0 CURVE",
"146 0 LINE",
"145 6 OFFCURVE",
"144 13 OFFCURVE",
"144 19 CURVE SMOOTH",
"144 45 OFFCURVE",
"157 58 OFFCURVE",
"183 58 CURVE SMOOTH",
"236 58 OFFCURVE",
"306 -3 OFFCURVE",
"392 -3 CURVE SMOOTH",
"484 -3 OFFCURVE",
"540 50 OFFCURVE",
"540 146 CURVE SMOOTH",
"540 188 OFFCURVE",
"528 228 OFFCURVE",
"503 266 CURVE",
"524 270 OFFCURVE",
"546 275 OFFCURVE",
"567 281 CURVE",
"567 361 LINE"
);
},
{
closed = 1;
nodes = (
"454 100 OFFCURVE",
"433 78 OFFCURVE",
"390 78 CURVE SMOOTH",
"317 78 OFFCURVE",
"259 139 OFFCURVE",
"183 139 CURVE SMOOTH",
"176 139 LINE",
"161 164 OFFCURVE",
"154 201 OFFCURVE",
"154 248 CURVE SMOOTH",
"154 268 LINE",
"214 258 OFFCURVE",
"274 253 OFFCURVE",
"335 253 CURVE SMOOTH",
"365 253 OFFCURVE",
"393 254 OFFCURVE",
"420 256 CURVE",
"443 219 OFFCURVE",
"454 182 OFFCURVE",
"454 144 CURVE SMOOTH"
);
}
);
width = 630;
}
);
note = u1C11;
unicode = 1C11;
},
{
glyphname = uni1C11_1C25;
lastChange = "2017-09-18 13:29:20 +0000";
layers = (
{
layerId = "677D40D0-0324-4315-A4A8-9988F2BAD02F";
paths = (
{
closed = 1;
nodes = (
"458 578 OFFCURVE",
"399 571 OFFCURVE",
"332 571 CURVE SMOOTH",
"269 571 OFFCURVE",
"214 577 OFFCURVE",
"166 589 CURVE",
"95 454 OFFCURVE",
"70 359 OFFCURVE",
"70 244 CURVE SMOOTH",
"70 191 OFFCURVE",
"79 146 OFFCURVE",
"97 110 CURVE",
"72 89 OFFCURVE",
"59 59 OFFCURVE",
"59 19 CURVE SMOOTH",
"59 13 OFFCURVE",
"60 6 OFFCURVE",
"61 0 CURVE",
"146 0 LINE",
"145 6 OFFCURVE",
"144 13 OFFCURVE",
"144 19 CURVE SMOOTH",
"144 45 OFFCURVE",
"157 58 OFFCURVE",
"183 58 CURVE SMOOTH",
"236 58 OFFCURVE",
"307 -3 OFFCURVE",
"392 -3 CURVE SMOOTH",
"484 -3 OFFCURVE",
"540 50 OFFCURVE",
"540 146 CURVE SMOOTH",
"540 191 OFFCURVE",
"529 229 OFFCURVE",
"497 275 CURVE",
"522 278 OFFCURVE",
"540 280 OFFCURVE",
"552 280 CURVE SMOOTH",
"600 280 OFFCURVE",
"621 242 OFFCURVE",
"621 155 CURVE SMOOTH",
"621 78 OFFCURVE",
"601 0 OFFCURVE",
"559 -79 CURVE",
"618 -111 LINE",
"673 -20 OFFCURVE",
"701 70 OFFCURVE",
"701 157 CURVE SMOOTH",
"701 289 OFFCURVE",
"647 360 OFFCURVE",
"552 360 CURVE SMOOTH",
"528 360 OFFCURVE",
"418 343 OFFCURVE",
"334 343 CURVE SMOOTH",
"271 343 OFFCURVE",
"215 347 OFFCURVE",
"166 354 CURVE",
"177 407 OFFCURVE",
"195 455 OFFCURVE",
"220 498 CURVE",
"252 494 OFFCURVE",
"289 491 OFFCURVE",
"330 491 CURVE SMOOTH",
"403 491 OFFCURVE",
"462 499 OFFCURVE",
"510 515 CURVE",
"510 593 LINE"
);
},
{
closed = 1;
nodes = (
"454 100 OFFCURVE",
"433 78 OFFCURVE",
"390 78 CURVE SMOOTH",
"319 78 OFFCURVE",
"260 139 OFFCURVE",
"183 139 CURVE SMOOTH",
"176 139 LINE",
"159 165 OFFCURVE",
"154 213 OFFCURVE",
"154 250 CURVE SMOOTH",
"154 260 OFFCURVE",
"154 270 OFFCURVE",
"155 278 CURVE",
"214 268 OFFCURVE",
"274 263 OFFCURVE",
"335 263 CURVE SMOOTH",
"364 263 OFFCURVE",
"390 264 OFFCURVE",
"413 266 CURVE",
"445 218 OFFCURVE",
"454 185 OFFCURVE",
"454 144 CURVE SMOOTH"
);
}
);
width = 749;
}
);
note = u1C11_1C25;
},
{
glyphname = uni1C11_1C25_1C24;
lastChange = "2017-09-18 13:29:20 +0000";
layers = (
{
layerId = "677D40D0-0324-4315-A4A8-9988F2BAD02F";
paths = (
{
closed = 1;
nodes = (
"836 316 OFFCURVE",
"844 274 OFFCURVE",
"844 233 CURVE SMOOTH",
"844 179 OFFCURVE",
"830 125 OFFCURVE",
"801 72 CURVE",
"798 73 LINE",
"775 266 OFFCURVE",
"712 362 OFFCURVE",
"609 362 CURVE SMOOTH",
"586 362 OFFCURVE",
"445 343 OFFCURVE",
"354 343 CURVE SMOOTH",
"283 343 OFFCURVE",
"220 347 OFFCURVE",
"166 355 CURVE",
"177 407 OFFCURVE",
"195 455 OFFCURVE",
"220 498 CURVE",
"252 494 OFFCURVE",
"289 491 OFFCURVE",
"330 491 CURVE SMOOTH",
"403 491 OFFCURVE",
"462 499 OFFCURVE",
"510 515 CURVE",
"510 593 LINE",
"458 578 OFFCURVE",
"399 571 OFFCURVE",
"332 571 CURVE SMOOTH",
"269 571 OFFCURVE",
"214 577 OFFCURVE",
"166 589 CURVE",
"95 454 OFFCURVE",
"70 359 OFFCURVE",
"70 244 CURVE SMOOTH",
"70 191 OFFCURVE",
"79 146 OFFCURVE",
"97 110 CURVE",
"72 89 OFFCURVE",
"59 59 OFFCURVE",
"59 19 CURVE SMOOTH",
"59 13 OFFCURVE",
"60 6 OFFCURVE",
"61 0 CURVE",
"146 0 LINE",
"145 6 OFFCURVE",
"144 13 OFFCURVE",
"144 19 CURVE SMOOTH",
"144 45 OFFCURVE",
"157 58 OFFCURVE",
"183 58 CURVE SMOOTH",
"237 58 OFFCURVE",
"306 -3 OFFCURVE",
"392 -3 CURVE SMOOTH",
"481 -3 OFFCURVE",
"537 50 OFFCURVE",
"537 146 CURVE SMOOTH",
"537 190 OFFCURVE",
"524 232 OFFCURVE",
"498 272 CURVE",
"533 276 OFFCURVE",
"552 278 OFFCURVE",
"556 278 CURVE SMOOTH",
"583 278 OFFCURVE",
"596 242 OFFCURVE",
"596 171 CURVE SMOOTH",
"596 87 OFFCURVE",
"589 5 OFFCURVE",
"575 -75 CURVE",
"644 -90 LINE",
"665 -4 OFFCURVE",
"676 77 OFFCURVE",
"676 152 CURVE SMOOTH",
"676 206 OFFCURVE",
"667 248 OFFCURVE",
"649 277 CURVE",
"651 280 LINE",
"705 239 OFFCURVE",
"728 120 OFFCURVE",
"746 11 CURVE",
"823 -14 LINE",
"895 83 OFFCURVE",
"924 157 OFFCURVE",
"924 254 CURVE SMOOTH",
"924 298 OFFCURVE",
"917 343 OFFCURVE",
"902 387 CURVE",
"820 359 LINE"
);
},
{
closed = 1;
nodes = (
"454 100 OFFCURVE",
"433 78 OFFCURVE",
"390 78 CURVE SMOOTH",
"319 78 OFFCURVE",
"259 139 OFFCURVE",
"183 139 CURVE SMOOTH",
"176 139 LINE",
"159 164 OFFCURVE",
"155 209 OFFCURVE",
"154 245 CURVE SMOOTH",
"154 257 OFFCURVE",
"154 269 OFFCURVE",
"155 278 CURVE",
"221 268 OFFCURVE",
"288 263 OFFCURVE",
"355 263 CURVE SMOOTH",
"375 263 OFFCURVE",
"394 264 OFFCURVE",
"414 264 CURVE",
"445 217 OFFCURVE",
"454 184 OFFCURVE",
"454 144 CURVE SMOOTH"
);
}
);
width = 969;
}
);
note = u1C11_1C25_1C24;
rightKerningGroup = u1C13_1C25_1C24;
},
{
glyphname = uni1C11_1C24;
lastChange = "2017-09-18 13:29:20 +0000";
layers = (
{
layerId = "677D40D0-0324-4315-A4A8-9988F2BAD02F";
paths = (
{
closed = 1;
nodes = (
"735 358 OFFCURVE",
"743 316 OFFCURVE",
"743 275 CURVE SMOOTH",
"743 221 OFFCURVE",
"729 167 OFFCURVE",
"700 114 CURVE",
"697 115 LINE",
"665 279 OFFCURVE",
"619 345 OFFCURVE",
"537 345 CURVE SMOOTH",
"504 345 OFFCURVE",
"442 333 OFFCURVE",
"354 333 CURVE SMOOTH",
"289 333 OFFCURVE",
"226 337 OFFCURVE",
"164 345 CURVE",
"175 401 OFFCURVE",
"194 452 OFFCURVE",
"220 498 CURVE",
"252 494 OFFCURVE",
"289 491 OFFCURVE",
"330 491 CURVE SMOOTH",
"403 491 OFFCURVE",
"462 499 OFFCURVE",
"510 515 CURVE",
"510 593 LINE",
"458 578 OFFCURVE",
"399 571 OFFCURVE",
"332 571 CURVE SMOOTH",
"269 571 OFFCURVE",
"214 577 OFFCURVE",
"166 589 CURVE",
"95 454 OFFCURVE",
"70 359 OFFCURVE",
"70 244 CURVE SMOOTH",
"70 191 OFFCURVE",
"79 146 OFFCURVE",
"97 110 CURVE",
"72 89 OFFCURVE",
"59 59 OFFCURVE",
"59 19 CURVE SMOOTH",
"59 13 OFFCURVE",
"60 6 OFFCURVE",
"61 0 CURVE",
"146 0 LINE",
"145 6 OFFCURVE",
"144 13 OFFCURVE",
"144 19 CURVE SMOOTH",
"144 45 OFFCURVE",
"157 58 OFFCURVE",
"183 58 CURVE SMOOTH",
"237 58 OFFCURVE",
"306 -3 OFFCURVE",
"392 -3 CURVE SMOOTH",
"484 -3 OFFCURVE",
"540 50 OFFCURVE",
"540 146 CURVE SMOOTH",
"540 188 OFFCURVE",
"528 227 OFFCURVE",
"505 263 CURVE",
"520 265 OFFCURVE",
"530 265 OFFCURVE",
"537 265 CURVE SMOOTH",
"586 265 OFFCURVE",
"619 149 OFFCURVE",
"637 56 CURVE",
"722 28 LINE",
"794 125 OFFCURVE",
"823 199 OFFCURVE",
"823 296 CURVE SMOOTH",
"823 340 OFFCURVE",
"816 385 OFFCURVE",
"801 429 CURVE",
"719 401 LINE"
);
},
{
closed = 1;
nodes = (
"454 100 OFFCURVE",
"433 78 OFFCURVE",
"390 78 CURVE SMOOTH",
"318 78 OFFCURVE",
"260 139 OFFCURVE",
"183 139 CURVE SMOOTH",
"176 139 LINE",
"161 164 OFFCURVE",
"154 201 OFFCURVE",
"154 248 CURVE SMOOTH",
"154 268 LINE",
"220 258 OFFCURVE",
"287 253 OFFCURVE",
"355 253 CURVE SMOOTH",
"373 253 OFFCURVE",
"395 253 OFFCURVE",
"420 255 CURVE",
"443 218 OFFCURVE",
"454 182 OFFCURVE",
"454 144 CURVE SMOOTH"
);
}
);
width = 868;
}
);
note = u1C11_1C24;
rightKerningGroup = u1C13_1C25_1C24;
},
{
glyphname = uni1C12;
lastChange = "2017-09-18 13:29:20 +0000";
layers = (
{
layerId = "677D40D0-0324-4315-A4A8-9988F2BAD02F";
paths = (
{
closed = 1;
nodes = (
"139 526 OFFCURVE",
"70 424 OFFCURVE",
"70 289 CURVE SMOOTH",
"70 113 OFFCURVE",
"176 -11 OFFCURVE",
"348 -11 CURVE SMOOTH",
"377 -11 OFFCURVE",
"401 -8 OFFCURVE",
"419 -1 CURVE",
"419 82 LINE",
"401 75 OFFCURVE",
"379 72 OFFCURVE",
"354 72 CURVE SMOOTH",
"231 72 OFFCURVE",
"155 149 OFFCURVE",
"155 290 CURVE SMOOTH",
"155 380 OFFCURVE",
"190 444 OFFCURVE",
"260 482 CURVE",
"697 -11 LINE",
"834 58 OFFCURVE",
"903 160 OFFCURVE",
"903 295 CURVE SMOOTH",
"903 472 OFFCURVE",
"796 595 OFFCURVE",
"625 595 CURVE SMOOTH",
"596 595 OFFCURVE",
"572 592 OFFCURVE",
"554 585 CURVE",
"536 546 OFFCURVE",
"527 506 OFFCURVE",
"527 465 CURVE SMOOTH",
"527 381 OFFCURVE",
"587 319 OFFCURVE",
"683 319 CURVE SMOOTH",
"735 319 OFFCURVE",
"778 333 OFFCURVE",
"812 361 CURVE",
"816 341 OFFCURVE",
"818 319 OFFCURVE",
"818 294 CURVE SMOOTH",
"818 205 OFFCURVE",
"784 141 OFFCURVE",
"715 103 CURVE",
"276 595 LINE"
);
},
{
closed = 1;
nodes = (
"630 385 OFFCURVE",
"596 417 OFFCURVE",
"596 465 CURVE SMOOTH",
"596 481 OFFCURVE",
"598 497 OFFCURVE",
"602 512 CURVE",
"619 512 LINE SMOOTH",
"696 512 OFFCURVE",
"752 484 OFFCURVE",
"787 427 CURVE",
"762 399 OFFCURVE",
"727 385 OFFCURVE",
"683 385 CURVE SMOOTH"
);
}
);
width = 975;
}
);
leftKerningGroup = u1C13;
note = u1C12;
rightKerningGroup = u1C13;
unicode = 1C12;
},
{
glyphname = uni1C12_1C24;
lastChange = "2017-09-18 13:29:20 +0000";
layers = (
{
layerId = "677D40D0-0324-4315-A4A8-9988F2BAD02F";
paths = (
{
closed = 1;
nodes = (
"1108 389 OFFCURVE",
"1116 347 OFFCURVE",
"1116 305 CURVE SMOOTH",
"1116 251 OFFCURVE",
"1102 197 OFFCURVE",
"1073 144 CURVE",
"1070 145 LINE",
"1045 295 OFFCURVE",
"1009 436 OFFCURVE",
"904 436 CURVE SMOOTH",
"895 436 OFFCURVE",
"886 435 OFFCURVE",
"878 433 CURVE",
"835 535 OFFCURVE",
"742 595 OFFCURVE",
"625 595 CURVE SMOOTH",
"596 595 OFFCURVE",
"572 592 OFFCURVE",
"554 585 CURVE",
"536 546 OFFCURVE",
"527 506 OFFCURVE",
"527 465 CURVE SMOOTH",
"527 381 OFFCURVE",
"587 319 OFFCURVE",
"683 319 CURVE SMOOTH",
"735 319 OFFCURVE",
"778 333 OFFCURVE",
"812 361 CURVE",
"816 341 OFFCURVE",
"818 319 OFFCURVE",
"818 294 CURVE SMOOTH",
"818 205 OFFCURVE",
"784 141 OFFCURVE",
"715 103 CURVE",
"276 595 LINE",
"139 526 OFFCURVE",
"70 424 OFFCURVE",
"70 289 CURVE SMOOTH",
"70 113 OFFCURVE",
"176 -11 OFFCURVE",
"348 -11 CURVE SMOOTH",
"377 -11 OFFCURVE",
"401 -8 OFFCURVE",
"419 -1 CURVE",
"419 82 LINE",
"401 75 OFFCURVE",
"379 72 OFFCURVE",
"354 72 CURVE SMOOTH",
"231 72 OFFCURVE",
"155 149 OFFCURVE",
"155 290 CURVE SMOOTH",
"155 380 OFFCURVE",
"190 444 OFFCURVE",
"260 482 CURVE",
"697 -11 LINE",
"834 58 OFFCURVE",
"903 160 OFFCURVE",
"903 295 CURVE SMOOTH",
"903 315 OFFCURVE",
"901 336 OFFCURVE",
"898 358 CURVE",
"904 358 LINE SMOOTH",
"956 358 OFFCURVE",
"991 198 OFFCURVE",
"1010 86 CURVE",
"1095 58 LINE",
"1167 155 OFFCURVE",
"1196 229 OFFCURVE",
"1196 326 CURVE SMOOTH",
"1196 371 OFFCURVE",
"1188 415 OFFCURVE",
"1174 459 CURVE",
"1092 431 LINE"
);
},
{
closed = 1;
nodes = (
"630 385 OFFCURVE",
"596 417 OFFCURVE",
"596 465 CURVE SMOOTH",
"596 481 OFFCURVE",
"598 497 OFFCURVE",
"602 512 CURVE",
"619 512 LINE SMOOTH",
"696 512 OFFCURVE",
"752 484 OFFCURVE",
"787 427 CURVE",
"762 399 OFFCURVE",
"727 385 OFFCURVE",
"683 385 CURVE SMOOTH"
);
}
);
width = 1241;
}
);
leftKerningGroup = u1C13;
note = u1C12_1C24;
rightKerningGroup = u1C13_1C25_1C24;
},
{
glyphname = uni1C03;
lastChange = "2017-09-18 13:29:20 +0000";
layers = (
{
layerId = "677D40D0-0324-4315-A4A8-9988F2BAD02F";
paths = (
{
closed = 1;
nodes = (
"579 530 LINE",
"714 468 OFFCURVE",
"777 381 OFFCURVE",
"777 245 CURVE SMOOTH",
"777 118 OFFCURVE",
"721 69 OFFCURVE",
"640 69 CURVE SMOOTH",
"562 69 OFFCURVE",
"508 130 OFFCURVE",
"508 321 CURVE",
"424 321 LINE",
"424 130 OFFCURVE",
"371 69 OFFCURVE",
"293 69 CURVE SMOOTH",
"211 69 OFFCURVE",
"155 118 OFFCURVE",
"155 245 CURVE SMOOTH",
"155 381 OFFCURVE",
"218 468 OFFCURVE",
"354 530 CURVE",
"318 607 LINE",
"151 531 OFFCURVE",
"70 405 OFFCURVE",
"70 243 CURVE SMOOTH",
"70 79 OFFCURVE",
"157 -12 OFFCURVE",
"286 -12 CURVE SMOOTH",
"366 -12 OFFCURVE",
"432 23 OFFCURVE",
"464 117 CURVE SMOOTH",
"468 117 LINE SMOOTH",
"500 23 OFFCURVE",
"567 -12 OFFCURVE",
"647 -12 CURVE SMOOTH",
"776 -12 OFFCURVE",
"863 79 OFFCURVE",
"863 243 CURVE SMOOTH",
"863 405 OFFCURVE",
"781 531 OFFCURVE",
"613 607 CURVE"
);
}
);
width = 933;
}
);
leftKerningGroup = u1C13;
note = u1C03;
rightKerningGroup = u1C13;
unicode = 1C03;
},
{
glyphname = uni1C03_1C25;
lastChange = "2017-09-18 13:29:20 +0000";
layers = (
{
layerId = "677D40D0-0324-4315-A4A8-9988F2BAD02F";
paths = (
{
closed = 1;
nodes = (
"715 467 OFFCURVE",
"777 380 OFFCURVE",
"777 245 CURVE SMOOTH",
"777 127 OFFCURVE",
"731 69 OFFCURVE",
"640 69 CURVE SMOOTH",
"551 69 OFFCURVE",
"508 153 OFFCURVE",
"508 321 CURVE",
"424 321 LINE",
"424 190 OFFCURVE",
"403 69 OFFCURVE",
"293 69 CURVE SMOOTH",
"201 69 OFFCURVE",
"155 127 OFFCURVE",
"155 245 CURVE SMOOTH",
"155 380 OFFCURVE",
"217 467 OFFCURVE",
"354 530 CURVE",
"318 607 LINE",
"152 532 OFFCURVE",
"70 411 OFFCURVE",
"70 243 CURVE SMOOTH",
"70 82 OFFCURVE",
"154 -12 OFFCURVE",
"286 -12 CURVE SMOOTH",
"375 -12 OFFCURVE",
"435 31 OFFCURVE",
"464 117 CURVE",
"468 117 LINE",
"498 31 OFFCURVE",
"557 -12 OFFCURVE",
"647 -12 CURVE SMOOTH",
"779 -12 OFFCURVE",
"863 82 OFFCURVE",
"863 243 CURVE SMOOTH",
"863 278 OFFCURVE",
"859 309 OFFCURVE",
"853 338 CURVE",
"863 340 OFFCURVE",
"873 341 OFFCURVE",
"882 341 CURVE SMOOTH",
"930 341 OFFCURVE",
"951 302 OFFCURVE",
"951 214 CURVE SMOOTH",
"951 137 OFFCURVE",
"931 59 OFFCURVE",
"889 -20 CURVE",
"948 -52 LINE",
"1003 40 OFFCURVE",
"1031 128 OFFCURVE",
"1031 216 CURVE SMOOTH",
"1031 348 OFFCURVE",
"977 419 OFFCURVE",
"882 419 CURVE SMOOTH",
"864 419 OFFCURVE",
"846 417 OFFCURVE",
"828 411 CURVE",
"788 495 OFFCURVE",
"716 561 OFFCURVE",
"613 607 CURVE",
"579 530 LINE"
);
}
);
width = 1079;
}
);
leftKerningGroup = u1C13;
note = u1C03_1C25;
},
{
glyphname = uni1C03_1C25_1C24;
lastChange = "2017-09-18 13:29:20 +0000";
layers = (
{
layerId = "677D40D0-0324-4315-A4A8-9988F2BAD02F";
paths = (
{
closed = 1;
nodes = (
"1152 390 OFFCURVE",
"1160 348 OFFCURVE",
"1160 306 CURVE SMOOTH",
"1160 252 OFFCURVE",
"1146 198 OFFCURVE",
"1117 145 CURVE",
"1114 146 LINE",
"1091 339 OFFCURVE",
"1028 435 OFFCURVE",
"925 435 CURVE SMOOTH",
"889 435 OFFCURVE",
"856 428 OFFCURVE",
"826 414 CURVE",
"787 496 OFFCURVE",
"716 561 OFFCURVE",
"613 607 CURVE",
"579 530 LINE",
"715 467 OFFCURVE",
"777 380 OFFCURVE",
"777 245 CURVE SMOOTH",
"777 127 OFFCURVE",
"731 69 OFFCURVE",
"640 69 CURVE SMOOTH",
"551 69 OFFCURVE",
"508 153 OFFCURVE",
"508 321 CURVE",
"424 321 LINE",
"424 190 OFFCURVE",
"404 69 OFFCURVE",
"292 69 CURVE SMOOTH",
"201 69 OFFCURVE",
"155 127 OFFCURVE",
"155 245 CURVE SMOOTH",
"155 380 OFFCURVE",
"217 467 OFFCURVE",
"354 530 CURVE",
"318 607 LINE",
"152 532 OFFCURVE",
"70 411 OFFCURVE",
"70 243 CURVE SMOOTH",
"70 82 OFFCURVE",
"154 -12 OFFCURVE",
"286 -12 CURVE SMOOTH",
"375 -12 OFFCURVE",
"435 31 OFFCURVE",
"464 117 CURVE",
"468 117 LINE",
"498 31 OFFCURVE",
"557 -12 OFFCURVE",
"647 -12 CURVE SMOOTH",
"779 -12 OFFCURVE",
"863 82 OFFCURVE",
"863 243 CURVE SMOOTH",
"863 279 OFFCURVE",
"859 313 OFFCURVE",
"851 345 CURVE",
"857 349 OFFCURVE",
"865 351 OFFCURVE",
"872 351 CURVE SMOOTH",
"899 351 OFFCURVE",
"912 315 OFFCURVE",
"912 244 CURVE SMOOTH",
"912 162 OFFCURVE",
"905 80 OFFCURVE",
"891 -2 CURVE",
"960 -17 LINE",
"981 69 OFFCURVE",
"992 149 OFFCURVE",
"992 225 CURVE SMOOTH",
"992 280 OFFCURVE",
"983 321 OFFCURVE",
"965 350 CURVE",
"967 353 LINE",
"1021 312 OFFCURVE",
"1044 193 OFFCURVE",
"1062 84 CURVE",
"1139 59 LINE",
"1211 156 OFFCURVE",
"1240 229 OFFCURVE",
"1240 327 CURVE SMOOTH",
"1240 372 OFFCURVE",
"1233 416 OFFCURVE",
"1218 460 CURVE",
"1136 432 LINE"
);
}
);
width = 1285;
}
);
leftKerningGroup = u1C13;
note = u1C03_1C25_1C24;
rightKerningGroup = u1C13_1C25_1C24;
},
{
glyphname = uni1C03_1C24;
lastChange = "2017-09-18 13:29:20 +0000";
layers = (
{
layerId = "677D40D0-0324-4315-A4A8-9988F2BAD02F";
paths = (
{
closed = 1;
nodes = (
"1053 389 OFFCURVE",
"1061 347 OFFCURVE",
"1061 305 CURVE SMOOTH",
"1061 251 OFFCURVE",
"1047 197 OFFCURVE",
"1018 144 CURVE",
"1015 145 LINE",
"990 295 OFFCURVE",
"954 436 OFFCURVE",
"849 436 CURVE SMOOTH",
"836 436 OFFCURVE",
"826 435 OFFCURVE",
"817 432 CURVE",
"775 506 OFFCURVE",
"708 564 OFFCURVE",
"613 607 CURVE",
"579 530 LINE",
"715 467 OFFCURVE",
"777 380 OFFCURVE",
"777 245 CURVE SMOOTH",
"777 127 OFFCURVE",
"731 69 OFFCURVE",
"640 69 CURVE SMOOTH",
"551 69 OFFCURVE",
"508 153 OFFCURVE",
"508 321 CURVE",
"424 321 LINE",
"424 190 OFFCURVE",
"403 69 OFFCURVE",
"292 69 CURVE SMOOTH",
"201 69 OFFCURVE",
"155 127 OFFCURVE",
"155 245 CURVE SMOOTH",
"155 380 OFFCURVE",
"217 467 OFFCURVE",
"354 530 CURVE",
"318 607 LINE",
"152 532 OFFCURVE",
"70 411 OFFCURVE",
"70 243 CURVE SMOOTH",
"70 82 OFFCURVE",
"154 -12 OFFCURVE",
"286 -12 CURVE SMOOTH",
"375 -12 OFFCURVE",
"435 31 OFFCURVE",
"464 117 CURVE",
"468 117 LINE",
"498 31 OFFCURVE",
"557 -12 OFFCURVE",
"647 -12 CURVE SMOOTH",
"779 -12 OFFCURVE",
"863 82 OFFCURVE",
"863 243 CURVE SMOOTH",
"863 285 OFFCURVE",
"857 323 OFFCURVE",
"847 358 CURVE",
"849 358 LINE SMOOTH",
"901 358 OFFCURVE",
"936 198 OFFCURVE",
"955 86 CURVE",
"1040 58 LINE",
"1112 155 OFFCURVE",
"1141 229 OFFCURVE",
"1141 326 CURVE SMOOTH",
"1141 371 OFFCURVE",
"1134 415 OFFCURVE",
"1119 459 CURVE",
"1037 431 LINE"
);
}
);
width = 1186;
}
);
leftKerningGroup = u1C13;
note = u1C03_1C24;
rightKerningGroup = u1C13_1C25_1C24;
},
{
glyphname = uni1C04;
lastChange = "2017-09-18 13:29:20 +0000";
layers = (
{
layerId = "677D40D0-0324-4315-A4A8-9988F2BAD02F";
paths = (
{
closed = 1;
nodes = (
"906 354 LINE",
"849 354 LINE",
"817 465 OFFCURVE",
"739 550 OFFCURVE",
"613 607 CURVE",
"579 530 LINE",
"674 486 OFFCURVE",
"734 427 OFFCURVE",
"760 354 CURVE",
"172 354 LINE",
"198 427 OFFCURVE",
"259 486 OFFCURVE",
"354 530 CURVE",
"318 607 LINE",
"192 550 OFFCURVE",
"115 465 OFFCURVE",
"84 354 CURVE",
"27 354 LINE",
"27 279 LINE",
"71 279 LINE",
"70 271 OFFCURVE",
"70 259 OFFCURVE",
"70 243 CURVE SMOOTH",
"70 82 OFFCURVE",
"154 -12 OFFCURVE",
"286 -12 CURVE SMOOTH",
"375 -12 OFFCURVE",
"435 31 OFFCURVE",
"464 117 CURVE",
"468 117 LINE",
"498 31 OFFCURVE",
"557 -12 OFFCURVE",
"647 -12 CURVE SMOOTH",
"779 -12 OFFCURVE",
"863 82 OFFCURVE",
"863 243 CURVE SMOOTH",
"863 259 OFFCURVE",
"862 271 OFFCURVE",
"862 279 CURVE",
"906 279 LINE"
);
},
{
closed = 1;
nodes = (
"417 139 OFFCURVE",
"375 69 OFFCURVE",
"293 69 CURVE SMOOTH",
"201 69 OFFCURVE",
"155 127 OFFCURVE",
"155 245 CURVE SMOOTH",
"155 260 OFFCURVE",
"155 271 OFFCURVE",
"156 279 CURVE",
"423 279 LINE"
);
},
{
closed = 1;
nodes = (
"776 271 OFFCURVE",
"777 260 OFFCURVE",
"777 245 CURVE SMOOTH",
"777 127 OFFCURVE",
"731 69 OFFCURVE",
"640 69 CURVE SMOOTH",
"559 69 OFFCURVE",
"515 139 OFFCURVE",
"509 279 CURVE",
"776 279 LINE"
);
}
);
width = 933;
}
);
note = u1C04;
unicode = 1C04;
},
{
glyphname = uni1C04_1C24;
lastChange = "2017-09-18 13:29:20 +0000";
layers = (
{
layerId = "677D40D0-0324-4315-A4A8-9988F2BAD02F";
paths = (
{
closed = 1;
nodes = (
"1053 389 OFFCURVE",
"1061 347 OFFCURVE",
"1061 305 CURVE SMOOTH",
"1061 251 OFFCURVE",
"1047 197 OFFCURVE",
"1018 144 CURVE",
"1015 145 LINE",
"992 295 OFFCURVE",
"953 436 OFFCURVE",
"849 436 CURVE SMOOTH",
"836 436 OFFCURVE",
"826 435 OFFCURVE",
"817 432 CURVE",
"775 506 OFFCURVE",
"708 564 OFFCURVE",
"613 607 CURVE",
"579 530 LINE",
"674 486 OFFCURVE",
"734 427 OFFCURVE",
"760 354 CURVE",
"172 354 LINE",
"198 427 OFFCURVE",
"259 486 OFFCURVE",
"354 530 CURVE",
"318 607 LINE",
"192 550 OFFCURVE",
"115 465 OFFCURVE",
"84 354 CURVE",
"27 354 LINE",
"27 279 LINE",
"71 279 LINE",
"70 271 OFFCURVE",
"70 259 OFFCURVE",
"70 243 CURVE SMOOTH",
"70 82 OFFCURVE",
"154 -12 OFFCURVE",
"286 -12 CURVE SMOOTH",
"375 -12 OFFCURVE",
"435 31 OFFCURVE",
"464 117 CURVE",
"468 117 LINE",
"498 31 OFFCURVE",
"557 -12 OFFCURVE",
"647 -12 CURVE SMOOTH",
"779 -12 OFFCURVE",
"863 82 OFFCURVE",
"863 243 CURVE SMOOTH",
"863 285 OFFCURVE",
"857 323 OFFCURVE",
"847 358 CURVE",
"849 358 LINE SMOOTH",
"901 358 OFFCURVE",
"936 198 OFFCURVE",
"955 86 CURVE",
"1040 58 LINE",
"1112 155 OFFCURVE",
"1141 229 OFFCURVE",
"1141 326 CURVE SMOOTH",
"1141 371 OFFCURVE",
"1134 415 OFFCURVE",
"1119 459 CURVE",
"1037 431 LINE"
);
},
{
closed = 1;
nodes = (
"417 139 OFFCURVE",
"375 69 OFFCURVE",
"293 69 CURVE SMOOTH",
"201 69 OFFCURVE",
"155 127 OFFCURVE",
"155 245 CURVE SMOOTH",
"155 260 OFFCURVE",
"155 271 OFFCURVE",
"156 279 CURVE",
"423 279 LINE"
);
},
{
closed = 1;
nodes = (
"776 271 OFFCURVE",
"777 260 OFFCURVE",
"777 245 CURVE SMOOTH",
"777 127 OFFCURVE",
"731 69 OFFCURVE",
"640 69 CURVE SMOOTH",
"559 69 OFFCURVE",
"515 139 OFFCURVE",
"509 279 CURVE",
"776 279 LINE"
);
}
);
width = 1186;
}
);
note = u1C04_1C24;
rightKerningGroup = u1C13_1C25_1C24;
},
{
glyphname = uni1C1D;
lastChange = "2017-09-18 13:29:20 +0000";
layers = (
{
layerId = "677D40D0-0324-4315-A4A8-9988F2BAD02F";
paths = (
{
closed = 1;
nodes = (
"524 593 OFFCURVE",
"469 525 OFFCURVE",
"469 413 CURVE SMOOTH",
"469 199 LINE SMOOTH",
"469 110 OFFCURVE",
"432 67 OFFCURVE",
"355 67 CURVE SMOOTH",
"279 67 OFFCURVE",
"242 110 OFFCURVE",
"242 199 CURVE SMOOTH",
"242 413 LINE SMOOTH",
"242 525 OFFCURVE",
"186 593 OFFCURVE",
"89 593 CURVE SMOOTH",
"72 593 OFFCURVE",
"53 591 OFFCURVE",
"35 584 CURVE",
"35 500 LINE",
"54 508 OFFCURVE",
"72 512 OFFCURVE",
"88 512 CURVE SMOOTH",
"136 512 OFFCURVE",
"158 483 OFFCURVE",
"158 413 CURVE SMOOTH",
"158 199 LINE SMOOTH",
"158 72 OFFCURVE",
"230 -14 OFFCURVE",
"355 -14 CURVE SMOOTH",
"480 -14 OFFCURVE",
"553 72 OFFCURVE",
"553 199 CURVE SMOOTH",
"553 413 LINE SMOOTH",
"553 483 OFFCURVE",
"575 512 OFFCURVE",
"623 512 CURVE SMOOTH",
"639 512 OFFCURVE",
"657 507 OFFCURVE",
"675 499 CURVE",
"675 584 LINE",
"658 591 OFFCURVE",
"639 593 OFFCURVE",
"622 593 CURVE SMOOTH"
);
},
{
closed = 1;
nodes = (
"35 350 LINE",
"35 275 LINE",
"675 275 LINE",
"675 350 LINE"
);
}
);
width = 710;
}
);
note = u1C1D;
unicode = 1C1D;
},
{
glyphname = uni1C1D_1C25;
lastChange = "2017-09-18 13:29:20 +0000";
layers = (
{
layerId = "677D40D0-0324-4315-A4A8-9988F2BAD02F";
paths = (
{
closed = 1;
nodes = (
"553 413 LINE SMOOTH",
"553 482 OFFCURVE",
"575 512 OFFCURVE",
"623 512 CURVE SMOOTH",
"638 512 OFFCURVE",
"656 508 OFFCURVE",
"675 499 CURVE",
"675 584 LINE",
"660 590 OFFCURVE",
"643 593 OFFCURVE",
"622 593 CURVE SMOOTH",
"524 593 OFFCURVE",
"469 526 OFFCURVE",
"469 413 CURVE SMOOTH",
"469 350 LINE",
"242 350 LINE",
"242 413 LINE SMOOTH",
"242 525 OFFCURVE",
"185 593 OFFCURVE",
"89 593 CURVE SMOOTH",
"68 593 OFFCURVE",
"50 590 OFFCURVE",
"35 584 CURVE",
"35 500 LINE",
"54 508 OFFCURVE",
"72 512 OFFCURVE",
"88 512 CURVE SMOOTH",
"136 512 OFFCURVE",
"158 482 OFFCURVE",
"158 413 CURVE SMOOTH",
"158 350 LINE",
"35 350 LINE",
"35 275 LINE",
"158 275 LINE",
"158 199 LINE SMOOTH",
"158 70 OFFCURVE",
"232 -14 OFFCURVE",
"355 -14 CURVE SMOOTH",
"479 -14 OFFCURVE",
"553 70 OFFCURVE",
"553 199 CURVE SMOOTH",
"553 275 LINE",
"574 275 LINE SMOOTH",
"631 275 OFFCURVE",
"659 227 OFFCURVE",
"659 131 CURVE SMOOTH",
"659 54 OFFCURVE",
"639 -24 OFFCURVE",
"597 -103 CURVE",
"656 -135 LINE",
"711 -43 OFFCURVE",
"739 45 OFFCURVE",
"739 133 CURVE SMOOTH",
"739 278 OFFCURVE",
"684 350 OFFCURVE",
"574 350 CURVE SMOOTH",
"553 350 LINE"
);
},
{
closed = 1;
nodes = (
"469 199 LINE SMOOTH",
"469 111 OFFCURVE",
"431 67 OFFCURVE",
"355 67 CURVE SMOOTH",
"280 67 OFFCURVE",
"242 111 OFFCURVE",
"242 199 CURVE SMOOTH",
"242 275 LINE",
"469 275 LINE"
);
}
);
width = 787;
}
);
note = u1C1D_1C25;
rightKerningGroup = u1C1D_1C37_1C25;
},
{
glyphname = uni1C1D_1C25_1C24;
lastChange = "2017-09-18 13:29:20 +0000";
layers = (
{
layerId = "677D40D0-0324-4315-A4A8-9988F2BAD02F";
paths = (
{
closed = 1;
nodes = (
"862 305 OFFCURVE",
"870 263 OFFCURVE",
"870 221 CURVE SMOOTH",
"870 167 OFFCURVE",
"856 113 OFFCURVE",
"827 60 CURVE",
"824 61 LINE",
"801 254 OFFCURVE",
"738 350 OFFCURVE",
"635 350 CURVE SMOOTH",
"553 350 LINE",
"553 413 LINE SMOOTH",
"553 482 OFFCURVE",
"575 512 OFFCURVE",
"623 512 CURVE SMOOTH",
"638 512 OFFCURVE",
"656 508 OFFCURVE",
"675 499 CURVE",
"675 584 LINE",
"660 590 OFFCURVE",
"643 593 OFFCURVE",
"622 593 CURVE SMOOTH",
"524 593 OFFCURVE",
"469 526 OFFCURVE",
"469 413 CURVE SMOOTH",
"469 350 LINE",
"242 350 LINE",
"242 413 LINE SMOOTH",
"242 525 OFFCURVE",
"185 593 OFFCURVE",
"89 593 CURVE SMOOTH",
"68 593 OFFCURVE",
"50 590 OFFCURVE",
"35 584 CURVE",
"35 500 LINE",
"54 508 OFFCURVE",
"72 512 OFFCURVE",
"88 512 CURVE SMOOTH",
"136 512 OFFCURVE",
"158 482 OFFCURVE",
"158 413 CURVE SMOOTH",
"158 350 LINE",
"35 350 LINE",
"35 275 LINE",
"158 275 LINE",
"158 199 LINE SMOOTH",
"158 70 OFFCURVE",
"232 -14 OFFCURVE",
"355 -14 CURVE SMOOTH",
"479 -14 OFFCURVE",
"553 70 OFFCURVE",
"553 199 CURVE SMOOTH",
"553 275 LINE",
"569 275 LINE SMOOTH",
"604 275 OFFCURVE",
"622 236 OFFCURVE",
"622 159 CURVE SMOOTH",
"622 77 OFFCURVE",
"615 -5 OFFCURVE",
"601 -87 CURVE",
"670 -102 LINE",
"691 -16 OFFCURVE",
"702 64 OFFCURVE",
"702 140 CURVE SMOOTH",
"702 195 OFFCURVE",
"693 236 OFFCURVE",
"675 265 CURVE",
"677 268 LINE",
"731 227 OFFCURVE",
"754 108 OFFCURVE",
"772 -1 CURVE",
"849 -26 LINE",
"921 71 OFFCURVE",
"950 145 OFFCURVE",
"950 242 CURVE SMOOTH",
"950 287 OFFCURVE",
"943 331 OFFCURVE",
"928 375 CURVE",
"846 347 LINE"
);
},
{
closed = 1;
nodes = (
"469 199 LINE SMOOTH",
"469 111 OFFCURVE",
"431 67 OFFCURVE",
"355 67 CURVE SMOOTH",
"280 67 OFFCURVE",
"242 111 OFFCURVE",
"242 199 CURVE SMOOTH",
"242 275 LINE",
"469 275 LINE"
);
}
);
width = 995;
}
);
note = u1C1D_1C25_1C24;
rightKerningGroup = u1C13_1C25_1C24;
},
{
glyphname = uni1C1D_1C24;
lastChange = "2017-09-18 13:29:20 +0000";
layers = (
{
layerId = "677D40D0-0324-4315-A4A8-9988F2BAD02F";
paths = (
{
closed = 1;
nodes = (
"792 302 OFFCURVE",
"800 260 OFFCURVE",
"800 219 CURVE SMOOTH",
"800 165 OFFCURVE",
"786 111 OFFCURVE",
"757 58 CURVE",
"754 59 LINE",
"738 159 OFFCURVE",
"717 232 OFFCURVE",
"692 278 CURVE SMOOTH",
"664 329 OFFCURVE",
"630 350 OFFCURVE",
"570 350 CURVE SMOOTH",
"553 350 LINE",
"553 413 LINE SMOOTH",
"553 482 OFFCURVE",
"575 512 OFFCURVE",
"623 512 CURVE SMOOTH",
"638 512 OFFCURVE",
"656 508 OFFCURVE",
"675 499 CURVE",
"675 584 LINE",
"660 590 OFFCURVE",
"643 593 OFFCURVE",
"622 593 CURVE SMOOTH",
"524 593 OFFCURVE",
"469 526 OFFCURVE",
"469 413 CURVE SMOOTH",
"469 350 LINE",
"242 350 LINE",
"242 413 LINE SMOOTH",
"242 525 OFFCURVE",
"185 593 OFFCURVE",
"89 593 CURVE SMOOTH",
"68 593 OFFCURVE",
"50 590 OFFCURVE",
"35 584 CURVE",
"35 500 LINE",
"54 508 OFFCURVE",
"72 512 OFFCURVE",
"88 512 CURVE SMOOTH",
"136 512 OFFCURVE",
"158 482 OFFCURVE",
"158 413 CURVE SMOOTH",
"158 350 LINE",
"35 350 LINE",
"35 275 LINE",
"158 275 LINE",
"158 199 LINE SMOOTH",
"158 70 OFFCURVE",
"232 -14 OFFCURVE",
"355 -14 CURVE SMOOTH",
"479 -14 OFFCURVE",
"553 70 OFFCURVE",
"553 199 CURVE SMOOTH",
"553 275 LINE",
"570 275 LINE SMOOTH",
"598 275 OFFCURVE",
"614 264 OFFCURVE",
"631 232 CURVE SMOOTH",
"655 186 OFFCURVE",
"676 108 OFFCURVE",
"694 0 CURVE",
"779 -28 LINE",
"851 69 OFFCURVE",
"880 143 OFFCURVE",
"880 240 CURVE SMOOTH",
"880 285 OFFCURVE",
"873 329 OFFCURVE",
"858 373 CURVE",
"776 345 LINE"
);
},
{
closed = 1;
nodes = (
"469 199 LINE SMOOTH",
"469 111 OFFCURVE",
"431 67 OFFCURVE",
"355 67 CURVE SMOOTH",
"280 67 OFFCURVE",
"242 111 OFFCURVE",
"242 199 CURVE SMOOTH",
"242 275 LINE",
"469 275 LINE"
);
}
);
width = 925;
}
);
note = u1C1D_1C24;
rightKerningGroup = u1C13_1C25_1C24;
},
{
glyphname = uni1C1E;
lastChange = "2017-09-18 13:29:20 +0000";
layers = (
{
layerId = "677D40D0-0324-4315-A4A8-9988F2BAD02F";
paths = (
{
closed = 1;
nodes = (
"560 544 LINE",
"497 597 LINE",
"295 355 LINE",
"93 597 LINE",
"30 544 LINE",
"241 292 LINE",
"30 39 LINE",
"93 -14 LINE",
"295 228 LINE",
"497 -14 LINE",
"560 39 LINE",
"349 292 LINE"
);
}
);
width = 590;
}
);
leftKerningGroup = u1C1E;
note = u1C1E;
unicode = 1C1E;
},
{
glyphname = uni1C1E_1C24;
lastChange = "2017-09-18 13:29:20 +0000";
layers = (
{
layerId = "677D40D0-0324-4315-A4A8-9988F2BAD02F";
paths = (
{
closed = 1;
nodes = (
"695 526 OFFCURVE",
"703 484 OFFCURVE",
"703 443 CURVE SMOOTH",
"703 389 OFFCURVE",
"689 335 OFFCURVE",
"660 282 CURVE",
"657 283 LINE",
"636 404 OFFCURVE",
"591 498 OFFCURVE",
"497 597 CURVE",
"295 355 LINE",
"93 597 LINE",
"30 544 LINE",
"241 292 LINE",
"30 39 LINE",
"93 -14 LINE",
"295 228 LINE",
"497 -14 LINE",
"560 39 LINE",
"349 291 LINE",
"499 470 LINE",
"554 399 OFFCURVE",
"582 325 OFFCURVE",
"605 221 CURVE",
"682 196 LINE",
"754 293 OFFCURVE",
"783 367 OFFCURVE",
"783 464 CURVE SMOOTH",
"783 508 OFFCURVE",
"776 553 OFFCURVE",
"761 597 CURVE",
"679 569 LINE"
);
}
);
width = 828;
}
);
leftKerningGroup = u1C1E;
note = u1C1E_1C24;
},
{
glyphname = uni1C08;
lastChange = "2017-09-18 13:29:20 +0000";
layers = (
{
layerId = "677D40D0-0324-4315-A4A8-9988F2BAD02F";
paths = (
{
closed = 1;
nodes = (
"566 596 OFFCURVE",
"521 586 OFFCURVE",
"481 565 CURVE",
"443 586 OFFCURVE",
"398 596 OFFCURVE",
"347 596 CURVE SMOOTH",
"191 596 OFFCURVE",
"70 485 OFFCURVE",
"70 257 CURVE SMOOTH",
"70 159 OFFCURVE",
"86 77 OFFCURVE",
"115 0 CURVE",
"205 0 LINE",
"174 82 OFFCURVE",
"155 166 OFFCURVE",
"155 259 CURVE SMOOTH",
"155 440 OFFCURVE",
"240 515 OFFCURVE",
"344 515 CURVE SMOOTH",
"354 515 OFFCURVE",
"368 514 OFFCURVE",
"378 512 CURVE",
"378 508 LINE",
"322 460 OFFCURVE",
"295 396 OFFCURVE",
"295 328 CURVE SMOOTH",
"295 220 OFFCURVE",
"357 140 OFFCURVE",
"476 140 CURVE SMOOTH",
"595 140 OFFCURVE",
"657 220 OFFCURVE",
"657 328 CURVE SMOOTH",
"657 394 OFFCURVE",
"633 458 OFFCURVE",
"584 507 CURVE",
"584 511 LINE",
"595 514 OFFCURVE",
"606 515 OFFCURVE",
"620 515 CURVE SMOOTH",
"649 515 OFFCURVE",
"681 511 OFFCURVE",
"703 504 CURVE",
"703 585 LINE",
"681 592 OFFCURVE",
"651 596 OFFCURVE",
"614 596 CURVE SMOOTH"
);
},
{
closed = 1;
nodes = (
"542 455 OFFCURVE",
"573 397 OFFCURVE",
"573 327 CURVE SMOOTH",
"573 263 OFFCURVE",
"540 221 OFFCURVE",
"476 221 CURVE SMOOTH",
"412 221 OFFCURVE",
"379 263 OFFCURVE",
"379 327 CURVE SMOOTH",
"379 397 OFFCURVE",
"411 455 OFFCURVE",
"478 487 CURVE"
);
}
);
width = 713;
}
);
leftKerningGroup = u1C08;
note = u1C08;
unicode = 1C08;
},
{
glyphname = uni1C08_1C24;
lastChange = "2017-09-18 13:29:20 +0000";
layers = (
{
layerId = "677D40D0-0324-4315-A4A8-9988F2BAD02F";
paths = (
{
closed = 1;
nodes = (
"788 452 OFFCURVE",
"796 410 OFFCURVE",
"796 368 CURVE SMOOTH",
"796 314 OFFCURVE",
"782 260 OFFCURVE",
"753 207 CURVE",
"750 208 LINE",
"719 321 OFFCURVE",
"664 421 OFFCURVE",
"584 507 CURVE",
"584 511 LINE",
"594 514 OFFCURVE",
"606 515 OFFCURVE",
"620 515 CURVE SMOOTH",
"652 515 OFFCURVE",
"680 511 OFFCURVE",
"703 504 CURVE",
"703 585 LINE",
"680 592 OFFCURVE",
"650 596 OFFCURVE",
"614 596 CURVE SMOOTH",
"564 596 OFFCURVE",
"521 586 OFFCURVE",
"481 565 CURVE",
"443 586 OFFCURVE",
"399 596 OFFCURVE",
"347 596 CURVE SMOOTH",
"168 596 OFFCURVE",
"70 457 OFFCURVE",
"70 257 CURVE SMOOTH",
"70 165 OFFCURVE",
"85 80 OFFCURVE",
"115 0 CURVE",
"205 0 LINE",
"171 88 OFFCURVE",
"155 174 OFFCURVE",
"155 259 CURVE SMOOTH",
"155 431 OFFCURVE",
"231 515 OFFCURVE",
"344 515 CURVE SMOOTH",
"356 515 OFFCURVE",
"368 514 OFFCURVE",
"378 512 CURVE",
"378 508 LINE",
"323 460 OFFCURVE",
"295 401 OFFCURVE",
"295 328 CURVE SMOOTH",
"295 216 OFFCURVE",
"360 140 OFFCURVE",
"476 140 CURVE SMOOTH",
"576 140 OFFCURVE",
"637 204 OFFCURVE",
"645 303 CURVE",
"649 303 LINE",
"670 256 OFFCURVE",
"687 204 OFFCURVE",
"698 146 CURVE",
"775 121 LINE",
"847 218 OFFCURVE",
"876 292 OFFCURVE",
"876 389 CURVE SMOOTH",
"876 434 OFFCURVE",
"869 478 OFFCURVE",
"854 522 CURVE",
"772 494 LINE"
);
},
{
closed = 1;
nodes = (
"414 221 OFFCURVE",
"379 261 OFFCURVE",
"379 327 CURVE SMOOTH",
"379 402 OFFCURVE",
"412 456 OFFCURVE",
"478 487 CURVE",
"542 456 OFFCURVE",
"573 402 OFFCURVE",
"573 327 CURVE SMOOTH",
"573 261 OFFCURVE",
"539 221 OFFCURVE",
"476 221 CURVE SMOOTH"
);
}
);
width = 921;
}
);
leftKerningGroup = u1C08;
note = u1C08_1C24;
rightKerningGroup = u1C23_1C24;
},
{
glyphname = uni1C00;
lastChange = "2017-09-18 13:29:20 +0000";
layers = (
{
layerId = "677D40D0-0324-4315-A4A8-9988F2BAD02F";
paths = (
{
closed = 1;
nodes = (
"428 243 OFFCURVE",
"500 251 OFFCURVE",
"567 271 CURVE",
"567 351 LINE",
"495 331 OFFCURVE",
"419 323 OFFCURVE",
"334 323 CURVE SMOOTH",
"273 323 OFFCURVE",
"217 326 OFFCURVE",
"162 335 CURVE",
"172 392 OFFCURVE",
"192 448 OFFCURVE",
"220 498 CURVE",
"254 493 OFFCURVE",
"291 491 OFFCURVE",
"330 491 CURVE SMOOTH",
"399 491 OFFCURVE",
"460 498 OFFCURVE",
"510 515 CURVE",
"510 593 LINE",
"461 579 OFFCURVE",
"398 571 OFFCURVE",
"332 571 CURVE SMOOTH",
"270 571 OFFCURVE",
"214 577 OFFCURVE",
"166 589 CURVE",
"95 453 OFFCURVE",
"70 359 OFFCURVE",
"70 246 CURVE SMOOTH",
"70 64 OFFCURVE",
"159 -7 OFFCURVE",
"381 -7 CURVE SMOOTH",
"434 -7 OFFCURVE",
"481 -1 OFFCURVE",
"519 12 CURVE",
"519 92 LINE",
"481 80 OFFCURVE",
"430 74 OFFCURVE",
"380 74 CURVE SMOOTH",
"220 74 OFFCURVE",
"154 115 OFFCURVE",
"154 250 CURVE SMOOTH",
"154 258 LINE",
"213 248 OFFCURVE",
"275 243 OFFCURVE",
"335 243 CURVE SMOOTH"
);
}
);
width = 602;
}
);
leftKerningGroup = u1C00;
note = u1C00;
unicode = 1C00;
},
{
glyphname = uni1C00_1C25;
lastChange = "2017-09-18 13:29:20 +0000";
layers = (
{
layerId = "677D40D0-0324-4315-A4A8-9988F2BAD02F";
paths = (
{
closed = 1;
nodes = (
"459 578 OFFCURVE",
"399 571 OFFCURVE",
"332 571 CURVE SMOOTH",
"269 571 OFFCURVE",
"214 577 OFFCURVE",
"166 589 CURVE",
"95 454 OFFCURVE",
"70 361 OFFCURVE",
"70 246 CURVE SMOOTH",
"70 56 OFFCURVE",
"171 -7 OFFCURVE",
"381 -7 CURVE SMOOTH",
"425 -7 OFFCURVE",
"462 -3 OFFCURVE",
"493 5 CURVE",
"493 85 LINE",
"460 78 OFFCURVE",
"423 74 OFFCURVE",
"380 74 CURVE SMOOTH",
"211 74 OFFCURVE",
"154 120 OFFCURVE",
"154 258 CURVE",
"213 248 OFFCURVE",
"273 243 OFFCURVE",
"335 243 CURVE SMOOTH",
"423 243 OFFCURVE",
"514 260 OFFCURVE",
"542 260 CURVE SMOOTH",
"590 260 OFFCURVE",
"611 222 OFFCURVE",
"611 135 CURVE SMOOTH",
"611 58 OFFCURVE",
"591 -21 OFFCURVE",
"549 -99 CURVE",
"608 -131 LINE",
"663 -40 OFFCURVE",
"691 50 OFFCURVE",
"691 137 CURVE SMOOTH",
"691 269 OFFCURVE",
"636 340 OFFCURVE",
"542 340 CURVE SMOOTH",
"514 340 OFFCURVE",
"416 323 OFFCURVE",
"334 323 CURVE SMOOTH",
"268 323 OFFCURVE",
"211 327 OFFCURVE",
"162 335 CURVE",
"172 393 OFFCURVE",
"191 447 OFFCURVE",
"220 498 CURVE",
"252 494 OFFCURVE",
"289 491 OFFCURVE",
"330 491 CURVE SMOOTH",
"403 491 OFFCURVE",
"463 499 OFFCURVE",
"510 515 CURVE",
"510 593 LINE"
);
}
);
width = 719;
}
);
leftKerningGroup = u1C00;
note = u1C00_1C25;
rightKerningGroup = u1C00_1C37_1C25;
},
{
glyphname = uni1C00_1C25_1C24;
lastChange = "2017-09-18 13:29:20 +0000";
layers = (
{
layerId = "677D40D0-0324-4315-A4A8-9988F2BAD02F";
paths = (
{
closed = 1;
nodes = (
"796 296 OFFCURVE",
"804 254 OFFCURVE",
"804 213 CURVE SMOOTH",
"804 159 OFFCURVE",
"790 105 OFFCURVE",
"761 52 CURVE",
"758 53 LINE",
"735 246 OFFCURVE",
"672 342 OFFCURVE",
"569 342 CURVE SMOOTH",
"545 342 OFFCURVE",
"425 323 OFFCURVE",
"334 323 CURVE SMOOTH",
"268 323 OFFCURVE",
"210 327 OFFCURVE",
"162 335 CURVE",
"172 393 OFFCURVE",
"191 447 OFFCURVE",
"220 498 CURVE",
"252 494 OFFCURVE",
"289 491 OFFCURVE",
"330 491 CURVE SMOOTH",
"403 491 OFFCURVE",
"462 499 OFFCURVE",
"510 515 CURVE",
"510 593 LINE",
"458 578 OFFCURVE",
"399 571 OFFCURVE",
"332 571 CURVE SMOOTH",
"269 571 OFFCURVE",
"214 577 OFFCURVE",
"166 589 CURVE",
"95 454 OFFCURVE",
"70 361 OFFCURVE",
"70 246 CURVE SMOOTH",
"70 59 OFFCURVE",
"160 -7 OFFCURVE",
"361 -7 CURVE SMOOTH",
"405 -7 OFFCURVE",
"442 -3 OFFCURVE",
"473 5 CURVE",
"473 85 LINE",
"440 78 OFFCURVE",
"402 74 OFFCURVE",
"360 74 CURVE SMOOTH",
"205 74 OFFCURVE",
"154 120 OFFCURVE",
"154 258 CURVE",
"213 248 OFFCURVE",
"273 243 OFFCURVE",
"335 243 CURVE SMOOTH",
"423 243 OFFCURVE",
"503 258 OFFCURVE",
"516 258 CURVE SMOOTH",
"543 258 OFFCURVE",
"556 222 OFFCURVE",
"556 151 CURVE SMOOTH",
"556 67 OFFCURVE",
"549 -15 OFFCURVE",
"535 -95 CURVE",
"604 -110 LINE",
"625 -24 OFFCURVE",
"636 57 OFFCURVE",
"636 132 CURVE SMOOTH",
"636 186 OFFCURVE",
"627 228 OFFCURVE",
"609 257 CURVE",
"611 260 LINE",
"665 219 OFFCURVE",
"688 100 OFFCURVE",
"706 -9 CURVE",
"783 -34 LINE",
"855 63 OFFCURVE",
"884 137 OFFCURVE",
"884 234 CURVE SMOOTH",
"884 278 OFFCURVE",
"876 323 OFFCURVE",
"862 367 CURVE",
"780 339 LINE"
);
}
);
width = 929;
}
);
leftKerningGroup = u1C00;
note = u1C00_1C25_1C24;
},
{
glyphname = uni1C00_1C24;
lastChange = "2017-09-18 13:29:20 +0000";
layers = (
{
layerId = "677D40D0-0324-4315-A4A8-9988F2BAD02F";
paths = (
{
closed = 1;
nodes = (
"707 349 OFFCURVE",
"715 307 OFFCURVE",
"715 265 CURVE SMOOTH",
"715 211 OFFCURVE",
"701 157 OFFCURVE",
"672 104 CURVE",
"669 105 LINE",
"637 269 OFFCURVE",
"590 335 OFFCURVE",
"509 335 CURVE SMOOTH",
"489 335 OFFCURVE",
"411 323 OFFCURVE",
"334 323 CURVE SMOOTH",
"268 323 OFFCURVE",
"210 327 OFFCURVE",
"162 335 CURVE",
"172 393 OFFCURVE",
"191 447 OFFCURVE",
"220 498 CURVE",
"252 494 OFFCURVE",
"289 491 OFFCURVE",
"330 491 CURVE SMOOTH",
"403 491 OFFCURVE",
"462 499 OFFCURVE",
"510 515 CURVE",
"510 593 LINE",
"458 578 OFFCURVE",
"399 571 OFFCURVE",
"332 571 CURVE SMOOTH",
"269 571 OFFCURVE",
"214 577 OFFCURVE",
"166 589 CURVE",
"95 454 OFFCURVE",
"70 361 OFFCURVE",
"70 246 CURVE SMOOTH",
"70 185 OFFCURVE",
"81 136 OFFCURVE",
"102 99 CURVE SMOOTH",
"144 26 OFFCURVE",
"232 -7 OFFCURVE",
"381 -7 CURVE SMOOTH",
"436 -7 OFFCURVE",
"481 0 OFFCURVE",
"519 12 CURVE",
"519 92 LINE",
"481 80 OFFCURVE",
"435 74 OFFCURVE",
"380 74 CURVE SMOOTH",
"211 74 OFFCURVE",
"154 119 OFFCURVE",
"154 258 CURVE",
"213 248 OFFCURVE",
"273 243 OFFCURVE",
"335 243 CURVE SMOOTH",
"411 243 OFFCURVE",
"487 255 OFFCURVE",
"509 255 CURVE SMOOTH",
"558 255 OFFCURVE",
"592 134 OFFCURVE",
"609 46 CURVE",
"694 18 LINE",
"766 115 OFFCURVE",
"795 188 OFFCURVE",
"795 286 CURVE SMOOTH",
"795 331 OFFCURVE",
"788 375 OFFCURVE",
"773 419 CURVE",
"691 391 LINE"
);
}
);
width = 840;
}
);
leftKerningGroup = u1C00;
note = u1C00_1C24;
rightKerningGroup = u1C13_1C25_1C24;
},
{
glyphname = uni1C02;
lastChange = "2017-09-18 13:29:20 +0000";
layers = (
{
layerId = "677D40D0-0324-4315-A4A8-9988F2BAD02F";
paths = (
{
closed = 1;
nodes = (
"433 593 OFFCURVE",
"376 539 OFFCURVE",
"376 453 CURVE SMOOTH",
"376 342 OFFCURVE",
"462 282 OFFCURVE",
"462 192 CURVE SMOOTH",
"462 118 OFFCURVE",
"417 69 OFFCURVE",
"329 69 CURVE SMOOTH",
"214 69 OFFCURVE",
"150 130 OFFCURVE",
"150 254 CURVE SMOOTH",
"150 354 OFFCURVE",
"178 440 OFFCURVE",
"274 583 CURVE",
"178 583 LINE",
"99 458 OFFCURVE",
"67 360 OFFCURVE",
"67 254 CURVE SMOOTH",
"67 82 OFFCURVE",
"171 -13 OFFCURVE",
"328 -13 CURVE SMOOTH",
"464 -13 OFFCURVE",
"547 79 OFFCURVE",
"547 192 CURVE SMOOTH",
"547 305 OFFCURVE",
"462 364 OFFCURVE",
"462 454 CURVE SMOOTH",
"462 495 OFFCURVE",
"480 513 OFFCURVE",
"516 513 CURVE SMOOTH",
"541 513 OFFCURVE",
"559 502 OFFCURVE",
"587 473 CURVE",
"642 534 LINE",
"608 569 OFFCURVE",
"573 593 OFFCURVE",
"519 593 CURVE SMOOTH"
);
}
);
width = 648;
}
);
leftKerningGroup = u1C02;
note = u1C02;
unicode = 1C02;
},
{
glyphname = uni1C02_1C25;
lastChange = "2017-09-18 13:29:20 +0000";
layers = (
{
layerId = "677D40D0-0324-4315-A4A8-9988F2BAD02F";
paths = (
{
closed = 1;
nodes = (
"604 573 OFFCURVE",
"570 593 OFFCURVE",
"519 593 CURVE SMOOTH",
"433 593 OFFCURVE",
"376 539 OFFCURVE",
"376 453 CURVE SMOOTH",
"376 338 OFFCURVE",
"462 284 OFFCURVE",
"462 192 CURVE SMOOTH",
"462 116 OFFCURVE",
"416 69 OFFCURVE",
"329 69 CURVE SMOOTH",
"213 69 OFFCURVE",
"150 131 OFFCURVE",
"150 254 CURVE SMOOTH",
"150 357 OFFCURVE",
"181 444 OFFCURVE",
"274 583 CURVE",
"178 583 LINE",
"100 459 OFFCURVE",
"67 361 OFFCURVE",
"67 254 CURVE SMOOTH",
"67 84 OFFCURVE",
"168 -13 OFFCURVE",
"328 -13 CURVE SMOOTH",
"454 -13 OFFCURVE",
"547 70 OFFCURVE",
"547 192 CURVE SMOOTH",
"547 223 OFFCURVE",
"540 255 OFFCURVE",
"526 288 CURVE",
"535 290 OFFCURVE",
"544 291 OFFCURVE",
"552 291 CURVE SMOOTH",
"600 291 OFFCURVE",
"621 252 OFFCURVE",
"621 164 CURVE SMOOTH",
"621 86 OFFCURVE",
"601 9 OFFCURVE",
"559 -70 CURVE",
"618 -102 LINE",
"673 -11 OFFCURVE",
"701 79 OFFCURVE",
"701 166 CURVE SMOOTH",
"701 298 OFFCURVE",
"647 369 OFFCURVE",
"552 369 CURVE SMOOTH",
"533 369 OFFCURVE",
"512 366 OFFCURVE",
"490 359 CURVE",
"471 396 OFFCURVE",
"462 428 OFFCURVE",
"462 454 CURVE SMOOTH",
"462 494 OFFCURVE",
"480 513 OFFCURVE",
"516 513 CURVE SMOOTH",
"540 513 OFFCURVE",
"559 502 OFFCURVE",
"587 473 CURVE",
"642 534 LINE"
);
}
);
width = 749;
}
);
leftKerningGroup = u1C02;
note = u1C02_1C25;
},
{
glyphname = uni1C02_1C24;
lastChange = "2017-09-18 13:29:20 +0000";
layers = (
{
layerId = "677D40D0-0324-4315-A4A8-9988F2BAD02F";
paths = (
{
closed = 1;
nodes = (
"742 309 OFFCURVE",
"750 267 OFFCURVE",
"750 225 CURVE SMOOTH",
"750 171 OFFCURVE",
"736 117 OFFCURVE",
"707 64 CURVE",
"704 65 LINE",
"681 212 OFFCURVE",
"643 356 OFFCURVE",
"538 356 CURVE SMOOTH",
"523 356 OFFCURVE",
"508 354 OFFCURVE",
"495 349 CURVE",
"472 394 OFFCURVE",
"462 419 OFFCURVE",
"462 454 CURVE SMOOTH",
"462 494 OFFCURVE",
"480 513 OFFCURVE",
"516 513 CURVE SMOOTH",
"540 513 OFFCURVE",
"559 502 OFFCURVE",
"587 473 CURVE",
"642 534 LINE",
"604 573 OFFCURVE",
"570 593 OFFCURVE",
"519 593 CURVE SMOOTH",
"433 593 OFFCURVE",
"376 539 OFFCURVE",
"376 453 CURVE SMOOTH",
"376 337 OFFCURVE",
"462 286 OFFCURVE",
"462 192 CURVE SMOOTH",
"462 116 OFFCURVE",
"416 69 OFFCURVE",
"329 69 CURVE SMOOTH",
"213 69 OFFCURVE",
"150 131 OFFCURVE",
"150 254 CURVE SMOOTH",
"150 357 OFFCURVE",
"181 444 OFFCURVE",
"274 583 CURVE",
"178 583 LINE",
"100 459 OFFCURVE",
"67 361 OFFCURVE",
"67 254 CURVE SMOOTH",
"67 84 OFFCURVE",
"168 -13 OFFCURVE",
"328 -13 CURVE SMOOTH",
"454 -13 OFFCURVE",
"547 70 OFFCURVE",
"547 192 CURVE SMOOTH",
"547 220 OFFCURVE",
"541 249 OFFCURVE",
"530 278 CURVE",
"538 278 LINE SMOOTH",
"590 278 OFFCURVE",
"624 123 OFFCURVE",
"644 6 CURVE",
"729 -22 LINE",
"801 75 OFFCURVE",
"830 148 OFFCURVE",
"830 246 CURVE SMOOTH",
"830 291 OFFCURVE",
"823 335 OFFCURVE",
"808 379 CURVE",
"726 351 LINE"
);
}
);
width = 875;
}
);
leftKerningGroup = u1C02;
note = u1C02_1C24;
rightKerningGroup = u1C13_1C25_1C24;
},
{
glyphname = uni1C01;
lastChange = "2017-09-18 13:29:20 +0000";
layers = (
{
layerId = "677D40D0-0324-4315-A4A8-9988F2BAD02F";
paths = (
{
closed = 1;
nodes = (
"209 494 OFFCURVE",
"244 491 OFFCURVE",
"282 491 CURVE SMOOTH",
"357 491 OFFCURVE",
"418 499 OFFCURVE",
"466 515 CURVE",
"466 593 LINE",
"414 578 OFFCURVE",
"352 571 OFFCURVE",
"282 571 CURVE SMOOTH",
"223 571 OFFCURVE",
"168 578 OFFCURVE",
"117 593 CURVE",
"35 266 LINE",
"116 218 LINE",
"164 256 OFFCURVE",
"214 275 OFFCURVE",
"265 275 CURVE SMOOTH",
"337 275 OFFCURVE",
"373 239 OFFCURVE",
"373 166 CURVE SMOOTH",
"373 107 OFFCURVE",
"348 52 OFFCURVE",
"299 0 CURVE",
"398 0 LINE",
"438 49 OFFCURVE",
"458 104 OFFCURVE",
"458 165 CURVE SMOOTH",
"458 280 OFFCURVE",
"391 353 OFFCURVE",
"267 353 CURVE SMOOTH",
"214 353 OFFCURVE",
"167 338 OFFCURVE",
"124 309 CURVE",
"121 310 LINE",
"134 339 OFFCURVE",
"144 370 OFFCURVE",
"152 401 CURVE SMOOTH",
"177 500 LINE"
);
}
);
width = 541;
}
);
leftKerningGroup = u1C01;
note = u1C01;
unicode = 1C01;
},
{
glyphname = uni1C01_1C24;
lastChange = "2017-09-18 13:29:20 +0000";
layers = (
{
layerId = "677D40D0-0324-4315-A4A8-9988F2BAD02F";
paths = (
{
closed = 1;
nodes = (
"650 538 OFFCURVE",
"658 496 OFFCURVE",
"658 454 CURVE SMOOTH",
"658 400 OFFCURVE",
"644 346 OFFCURVE",
"615 293 CURVE",
"612 294 LINE",
"592 409 OFFCURVE",
"550 501 OFFCURVE",
"466 593 CURVE",
"414 578 OFFCURVE",
"352 571 OFFCURVE",
"282 571 CURVE SMOOTH",
"223 571 OFFCURVE",
"168 578 OFFCURVE",
"117 593 CURVE",
"35 266 LINE",
"116 218 LINE",
"164 256 OFFCURVE",
"214 275 OFFCURVE",
"265 275 CURVE SMOOTH",
"337 275 OFFCURVE",
"373 239 OFFCURVE",
"373 166 CURVE SMOOTH",
"373 107 OFFCURVE",
"348 52 OFFCURVE",
"299 0 CURVE",
"398 0 LINE",
"438 49 OFFCURVE",
"458 104 OFFCURVE",
"458 165 CURVE SMOOTH",
"458 280 OFFCURVE",
"391 353 OFFCURVE",
"267 353 CURVE SMOOTH",
"214 353 OFFCURVE",
"167 338 OFFCURVE",
"124 309 CURVE",
"121 310 LINE",
"134 339 OFFCURVE",
"144 370 OFFCURVE",
"152 401 CURVE SMOOTH",
"177 500 LINE",
"209 494 OFFCURVE",
"244 491 OFFCURVE",
"282 491 CURVE SMOOTH",
"343 491 OFFCURVE",
"394 496 OFFCURVE",
"434 506 CURVE",
"502 426 OFFCURVE",
"536 348 OFFCURVE",
"560 232 CURVE",
"637 207 LINE",
"709 304 OFFCURVE",
"738 377 OFFCURVE",
"738 475 CURVE SMOOTH",
"738 520 OFFCURVE",
"730 564 OFFCURVE",
"716 608 CURVE",
"634 580 LINE"
);
}
);
width = 783;
}
);
leftKerningGroup = u1C01;
note = u1C01_1C24;
rightKerningGroup = u1C23_1C24;
},
{
glyphname = uni1C1C;
lastChange = "2017-09-18 13:29:20 +0000";
layers = (
{
layerId = "677D40D0-0324-4315-A4A8-9988F2BAD02F";
paths = (
{
closed = 1;
nodes = (
"573 509 OFFCURVE",
"594 512 OFFCURVE",
"619 512 CURVE SMOOTH",
"742 512 OFFCURVE",
"818 435 OFFCURVE",
"818 294 CURVE SMOOTH",
"818 205 OFFCURVE",
"784 141 OFFCURVE",
"715 103 CURVE",
"276 595 LINE",
"139 526 OFFCURVE",
"70 424 OFFCURVE",
"70 289 CURVE SMOOTH",
"70 113 OFFCURVE",
"176 -11 OFFCURVE",
"348 -11 CURVE SMOOTH",
"377 -11 OFFCURVE",
"401 -8 OFFCURVE",
"419 -1 CURVE",
"419 82 LINE",
"400 75 OFFCURVE",
"379 72 OFFCURVE",
"354 72 CURVE SMOOTH",
"231 72 OFFCURVE",
"155 149 OFFCURVE",
"155 290 CURVE SMOOTH",
"155 380 OFFCURVE",
"190 444 OFFCURVE",
"260 482 CURVE",
"697 -11 LINE",
"834 58 OFFCURVE",
"903 160 OFFCURVE",
"903 295 CURVE SMOOTH",
"903 472 OFFCURVE",
"796 595 OFFCURVE",
"625 595 CURVE SMOOTH",
"596 595 OFFCURVE",
"572 592 OFFCURVE",
"554 585 CURVE",
"554 502 LINE"
);
}
);
width = 975;
}
);
leftKerningGroup = u1C13;
note = u1C1C;
rightKerningGroup = u1C13;
unicode = 1C1C;
},
{
glyphname = uni1C1C_1C24;
lastChange = "2017-09-18 13:29:20 +0000";
layers = (
{
layerId = "677D40D0-0324-4315-A4A8-9988F2BAD02F";
paths = (
{
closed = 1;
nodes = (
"1108 389 OFFCURVE",
"1116 347 OFFCURVE",
"1116 305 CURVE SMOOTH",
"1116 251 OFFCURVE",
"1102 197 OFFCURVE",
"1073 144 CURVE",
"1070 145 LINE",
"1044 295 OFFCURVE",
"1010 436 OFFCURVE",
"904 436 CURVE SMOOTH",
"895 436 OFFCURVE",
"886 435 OFFCURVE",
"878 433 CURVE",
"835 535 OFFCURVE",
"742 595 OFFCURVE",
"625 595 CURVE SMOOTH",
"596 595 OFFCURVE",
"572 592 OFFCURVE",
"554 585 CURVE",
"554 502 LINE",
"573 509 OFFCURVE",
"594 512 OFFCURVE",
"619 512 CURVE SMOOTH",
"742 512 OFFCURVE",
"818 435 OFFCURVE",
"818 294 CURVE SMOOTH",
"818 205 OFFCURVE",
"784 141 OFFCURVE",
"715 103 CURVE",
"276 595 LINE",
"139 526 OFFCURVE",
"70 424 OFFCURVE",
"70 289 CURVE SMOOTH",
"70 113 OFFCURVE",
"176 -11 OFFCURVE",
"348 -11 CURVE SMOOTH",
"377 -11 OFFCURVE",
"401 -8 OFFCURVE",
"419 -1 CURVE",
"419 82 LINE",
"400 75 OFFCURVE",
"379 72 OFFCURVE",
"354 72 CURVE SMOOTH",
"231 72 OFFCURVE",
"155 149 OFFCURVE",
"155 290 CURVE SMOOTH",
"155 380 OFFCURVE",
"190 444 OFFCURVE",
"260 482 CURVE",
"697 -11 LINE",
"834 58 OFFCURVE",
"903 160 OFFCURVE",
"903 295 CURVE SMOOTH",
"903 315 OFFCURVE",
"901 336 OFFCURVE",
"898 358 CURVE",
"904 358 LINE SMOOTH",
"956 358 OFFCURVE",
"991 198 OFFCURVE",
"1010 86 CURVE",
"1095 58 LINE",
"1167 155 OFFCURVE",
"1196 229 OFFCURVE",
"1196 326 CURVE SMOOTH",
"1196 371 OFFCURVE",
"1188 415 OFFCURVE",
"1174 459 CURVE",
"1092 431 LINE"
);
}
);
width = 1241;
}
);
leftKerningGroup = u1C13;
note = u1C1C_1C24;
rightKerningGroup = u1C13_1C25_1C24;
},
{
glyphname = uni1C15;
lastChange = "2017-09-18 13:29:20 +0000";
layers = (
{
layerId = "677D40D0-0324-4315-A4A8-9988F2BAD02F";
paths = (
{
closed = 1;
nodes = (
"581 572 OFFCURVE",
"484 561 OFFCURVE",
"371 561 CURVE SMOOTH",
"255 561 OFFCURVE",
"158 572 OFFCURVE",
"81 593 CURVE",
"81 514 LINE",
"165 491 OFFCURVE",
"261 480 OFFCURVE",
"371 480 CURVE SMOOTH",
"392 480 LINE",
"365 447 OFFCURVE",
"343 412 OFFCURVE",
"326 374 CURVE",
"165 358 OFFCURVE",
"70 263 OFFCURVE",
"70 96 CURVE SMOOTH",
"70 62 OFFCURVE",
"75 30 OFFCURVE",
"84 0 CURVE",
"170 0 LINE",
"161 30 OFFCURVE",
"156 62 OFFCURVE",
"156 94 CURVE SMOOTH",
"156 204 OFFCURVE",
"204 269 OFFCURVE",
"299 289 CURVE",
"293 264 OFFCURVE",
"291 238 OFFCURVE",
"291 212 CURVE SMOOTH",
"291 67 OFFCURVE",
"369 -14 OFFCURVE",
"488 -14 CURVE SMOOTH",
"602 -14 OFFCURVE",
"671 59 OFFCURVE",
"671 166 CURVE SMOOTH",
"671 282 OFFCURVE",
"580 367 OFFCURVE",
"414 376 CURVE",
"434 412 OFFCURVE",
"463 448 OFFCURVE",
"501 486 CURVE",
"557 492 OFFCURVE",
"610 502 OFFCURVE",
"660 515 CURVE",
"660 593 LINE"
);
},
{
closed = 1;
nodes = (
"417 67 OFFCURVE",
"370 115 OFFCURVE",
"370 215 CURVE SMOOTH",
"370 242 OFFCURVE",
"374 269 OFFCURVE",
"381 297 CURVE",
"517 296 OFFCURVE",
"585 251 OFFCURVE",
"585 161 CURVE SMOOTH",
"585 98 OFFCURVE",
"554 67 OFFCURVE",
"491 67 CURVE SMOOTH"
);
}
);
width = 741;
}
);
note = u1C15;
unicode = 1C15;
},
{
glyphname = uni1C15_1C25;
lastChange = "2017-09-18 13:29:20 +0000";
layers = (
{
layerId = "677D40D0-0324-4315-A4A8-9988F2BAD02F";
paths = (
{
closed = 1;
nodes = (
"170 491 OFFCURVE",
"273 480 OFFCURVE",
"392 480 CURVE",
"365 447 OFFCURVE",
"343 412 OFFCURVE",
"326 374 CURVE",
"165 358 OFFCURVE",
"70 263 OFFCURVE",
"70 96 CURVE SMOOTH",
"70 62 OFFCURVE",
"75 30 OFFCURVE",
"84 0 CURVE",
"170 0 LINE",
"161 30 OFFCURVE",
"156 62 OFFCURVE",
"156 94 CURVE SMOOTH",
"156 204 OFFCURVE",
"204 269 OFFCURVE",
"299 289 CURVE",
"293 264 OFFCURVE",
"291 238 OFFCURVE",
"291 212 CURVE SMOOTH",
"291 67 OFFCURVE",
"369 -14 OFFCURVE",
"488 -14 CURVE SMOOTH",
"602 -14 OFFCURVE",
"671 59 OFFCURVE",
"671 166 CURVE SMOOTH",
"671 282 OFFCURVE",
"580 367 OFFCURVE",
"414 376 CURVE",
"434 412 OFFCURVE",
"462 447 OFFCURVE",
"499 484 CURVE",
"563 488 OFFCURVE",
"621 496 OFFCURVE",
"672 508 CURVE",
"719 453 OFFCURVE",
"745 379 OFFCURVE",
"745 303 CURVE SMOOTH",
"745 242 OFFCURVE",
"737 182 OFFCURVE",
"722 123 CURVE",
"790 105 LINE",
"813 172 OFFCURVE",
"825 238 OFFCURVE",
"825 305 CURVE SMOOTH",
"825 419 OFFCURVE",
"784 515 OFFCURVE",
"700 593 CURVE",
"616 572 OFFCURVE",
"513 561 OFFCURVE",
"391 561 CURVE SMOOTH",
"267 561 OFFCURVE",
"164 572 OFFCURVE",
"81 593 CURVE",
"81 514 LINE"
);
},
{
closed = 1;
nodes = (
"585 98 OFFCURVE",
"554 67 OFFCURVE",
"491 67 CURVE SMOOTH",
"417 67 OFFCURVE",
"370 115 OFFCURVE",
"370 215 CURVE SMOOTH",
"370 242 OFFCURVE",
"374 269 OFFCURVE",
"381 297 CURVE",
"517 296 OFFCURVE",
"585 251 OFFCURVE",
"585 161 CURVE SMOOTH"
);
}
);
width = 873;
}
);
leftKerningGroup = u1C15_1C25;
note = u1C15_1C25;
rightKerningGroup = u1C15_1C25;
},
{
glyphname = uni1C15_1C25_1C24;
lastChange = "2017-09-18 13:29:20 +0000";
layers = (
{
layerId = "677D40D0-0324-4315-A4A8-9988F2BAD02F";
paths = (
{
closed = 1;
nodes = (
"989 498 OFFCURVE",
"997 456 OFFCURVE",
"997 414 CURVE SMOOTH",
"997 360 OFFCURVE",
"983 306 OFFCURVE",
"954 253 CURVE",
"951 254 LINE",
"903 396 OFFCURVE",
"834 499 OFFCURVE",
"703 593 CURVE",
"619 572 OFFCURVE",
"516 561 OFFCURVE",
"394 561 CURVE SMOOTH",
"270 561 OFFCURVE",
"167 572 OFFCURVE",
"84 593 CURVE",
"84 514 LINE",
"173 491 OFFCURVE",
"276 480 OFFCURVE",
"392 480 CURVE",
"365 447 OFFCURVE",
"343 412 OFFCURVE",
"326 374 CURVE",
"165 358 OFFCURVE",
"70 263 OFFCURVE",
"70 96 CURVE SMOOTH",
"70 62 OFFCURVE",
"75 30 OFFCURVE",
"84 0 CURVE",
"170 0 LINE",
"161 30 OFFCURVE",
"156 62 OFFCURVE",
"156 94 CURVE SMOOTH",
"156 204 OFFCURVE",
"204 269 OFFCURVE",
"299 289 CURVE",
"293 264 OFFCURVE",
"291 238 OFFCURVE",
"291 212 CURVE SMOOTH",
"291 67 OFFCURVE",
"369 -14 OFFCURVE",
"488 -14 CURVE SMOOTH",
"602 -14 OFFCURVE",
"671 59 OFFCURVE",
"671 166 CURVE SMOOTH",
"671 282 OFFCURVE",
"580 367 OFFCURVE",
"414 376 CURVE",
"435 413 OFFCURVE",
"463 448 OFFCURVE",
"498 483 CURVE",
"566 488 OFFCURVE",
"625 497 OFFCURVE",
"675 508 CURVE",
"711 449 OFFCURVE",
"737 337 OFFCURVE",
"737 229 CURVE SMOOTH",
"737 187 OFFCURVE",
"734 144 OFFCURVE",
"728 102 CURVE",
"797 91 LINE",
"806 138 OFFCURVE",
"811 186 OFFCURVE",
"811 235 CURVE SMOOTH",
"811 288 OFFCURVE",
"804 343 OFFCURVE",
"791 398 CURVE",
"794 399 LINE",
"839 344 OFFCURVE",
"874 275 OFFCURVE",
"899 192 CURVE",
"976 167 LINE",
"1048 265 OFFCURVE",
"1077 337 OFFCURVE",
"1077 435 CURVE SMOOTH",
"1077 479 OFFCURVE",
"1070 524 OFFCURVE",
"1055 568 CURVE",
"973 540 LINE"
);
},
{
closed = 1;
nodes = (
"585 98 OFFCURVE",
"554 67 OFFCURVE",
"491 67 CURVE SMOOTH",
"417 67 OFFCURVE",
"370 115 OFFCURVE",
"370 215 CURVE SMOOTH",
"370 242 OFFCURVE",
"374 269 OFFCURVE",
"381 297 CURVE",
"517 296 OFFCURVE",
"585 251 OFFCURVE",
"585 161 CURVE SMOOTH"
);
}
);
width = 1122;
}
);
leftKerningGroup = u1C15_1C25;
note = u1C15_1C25_1C24;
rightKerningGroup = u1C23_1C24;
},
{
glyphname = uni1C15_1C24;
lastChange = "2017-09-18 13:29:20 +0000";
layers = (
{
layerId = "677D40D0-0324-4315-A4A8-9988F2BAD02F";
paths = (
{
closed = 1;
nodes = (
"844 538 OFFCURVE",
"852 496 OFFCURVE",
"852 454 CURVE SMOOTH",
"852 400 OFFCURVE",
"838 346 OFFCURVE",
"809 293 CURVE",
"806 294 LINE",
"786 409 OFFCURVE",
"744 501 OFFCURVE",
"660 593 CURVE",
"581 572 OFFCURVE",
"484 561 OFFCURVE",
"371 561 CURVE SMOOTH",
"255 561 OFFCURVE",
"158 572 OFFCURVE",
"81 593 CURVE",
"81 514 LINE",
"165 491 OFFCURVE",
"261 480 OFFCURVE",
"371 480 CURVE SMOOTH",
"392 480 LINE",
"365 447 OFFCURVE",
"343 412 OFFCURVE",
"326 374 CURVE",
"165 358 OFFCURVE",
"70 263 OFFCURVE",
"70 96 CURVE SMOOTH",
"70 62 OFFCURVE",
"75 30 OFFCURVE",
"84 0 CURVE",
"170 0 LINE",
"161 30 OFFCURVE",
"156 62 OFFCURVE",
"156 94 CURVE SMOOTH",
"156 204 OFFCURVE",
"204 269 OFFCURVE",
"299 289 CURVE",
"293 264 OFFCURVE",
"291 238 OFFCURVE",
"291 212 CURVE SMOOTH",
"291 67 OFFCURVE",
"369 -14 OFFCURVE",
"488 -14 CURVE SMOOTH",
"602 -14 OFFCURVE",
"671 59 OFFCURVE",
"671 166 CURVE SMOOTH",
"671 282 OFFCURVE",
"580 367 OFFCURVE",
"414 376 CURVE",
"434 412 OFFCURVE",
"463 448 OFFCURVE",
"501 486 CURVE",
"553 492 OFFCURVE",
"595 499 OFFCURVE",
"627 507 CURVE",
"695 427 OFFCURVE",
"730 347 OFFCURVE",
"754 232 CURVE",
"831 207 LINE",
"903 304 OFFCURVE",
"932 377 OFFCURVE",
"932 475 CURVE SMOOTH",
"932 520 OFFCURVE",
"925 564 OFFCURVE",
"910 608 CURVE",
"828 580 LINE"
);
},
{
closed = 1;
nodes = (
"585 98 OFFCURVE",
"554 67 OFFCURVE",
"491 67 CURVE SMOOTH",
"417 67 OFFCURVE",
"370 115 OFFCURVE",
"370 215 CURVE SMOOTH",
"370 242 OFFCURVE",
"374 269 OFFCURVE",
"381 297 CURVE",
"517 296 OFFCURVE",
"585 251 OFFCURVE",
"585 161 CURVE SMOOTH"
);
}
);
width = 977;
}
);
leftKerningGroup = u1C15_1C25;
note = u1C15_1C24;
rightKerningGroup = u1C23_1C24;
},
{
glyphname = uni1C16;
lastChange = "2017-09-18 13:29:20 +0000";
layers = (
{
layerId = "677D40D0-0324-4315-A4A8-9988F2BAD02F";
paths = (
{
closed = 1;
nodes = (
"583 572 OFFCURVE",
"486 561 OFFCURVE",
"370 561 CURVE SMOOTH",
"257 561 OFFCURVE",
"161 572 OFFCURVE",
"81 593 CURVE",
"81 515 LINE",
"131 502 OFFCURVE",
"184 492 OFFCURVE",
"240 486 CURVE",
"278 448 OFFCURVE",
"307 412 OFFCURVE",
"327 376 CURVE",
"162 367 OFFCURVE",
"70 282 OFFCURVE",
"70 166 CURVE SMOOTH",
"70 59 OFFCURVE",
"140 -14 OFFCURVE",
"253 -14 CURVE SMOOTH",
"372 -14 OFFCURVE",
"450 67 OFFCURVE",
"450 212 CURVE SMOOTH",
"450 238 OFFCURVE",
"447 264 OFFCURVE",
"442 289 CURVE",
"537 269 OFFCURVE",
"585 204 OFFCURVE",
"585 94 CURVE SMOOTH",
"585 62 OFFCURVE",
"580 30 OFFCURVE",
"571 0 CURVE",
"657 0 LINE",
"667 30 OFFCURVE",
"671 62 OFFCURVE",
"671 96 CURVE SMOOTH",
"671 263 OFFCURVE",
"577 358 OFFCURVE",
"415 374 CURVE",
"398 412 OFFCURVE",
"376 447 OFFCURVE",
"349 480 CURVE",
"370 480 LINE SMOOTH",
"480 480 OFFCURVE",
"577 491 OFFCURVE",
"660 514 CURVE",
"660 593 LINE"
);
},
{
closed = 1;
nodes = (
"187 67 OFFCURVE",
"156 98 OFFCURVE",
"156 161 CURVE SMOOTH",
"156 251 OFFCURVE",
"224 296 OFFCURVE",
"360 297 CURVE",
"367 269 OFFCURVE",
"371 242 OFFCURVE",
"371 215 CURVE SMOOTH",
"371 115 OFFCURVE",
"325 67 OFFCURVE",
"250 67 CURVE SMOOTH"
);
}
);
width = 741;
}
);
leftKerningGroup = u1C16;
note = u1C16;
unicode = 1C16;
},
{
glyphname = uni1C16_1C24;
lastChange = "2017-09-18 13:29:20 +0000";
layers = (
{
layerId = "677D40D0-0324-4315-A4A8-9988F2BAD02F";
paths = (
{
closed = 1;
nodes = (
"844 538 OFFCURVE",
"852 496 OFFCURVE",
"852 454 CURVE SMOOTH",
"852 400 OFFCURVE",
"838 346 OFFCURVE",
"809 293 CURVE",
"806 294 LINE",
"786 409 OFFCURVE",
"744 501 OFFCURVE",
"660 593 CURVE",
"583 572 OFFCURVE",
"486 561 OFFCURVE",
"370 561 CURVE SMOOTH",
"257 561 OFFCURVE",
"161 572 OFFCURVE",
"81 593 CURVE",
"81 515 LINE",
"131 502 OFFCURVE",
"184 492 OFFCURVE",
"240 486 CURVE",
"278 448 OFFCURVE",
"307 412 OFFCURVE",
"327 376 CURVE",
"162 367 OFFCURVE",
"70 282 OFFCURVE",
"70 166 CURVE SMOOTH",
"70 59 OFFCURVE",
"140 -14 OFFCURVE",
"253 -14 CURVE SMOOTH",
"372 -14 OFFCURVE",
"450 67 OFFCURVE",
"450 212 CURVE SMOOTH",
"450 238 OFFCURVE",
"447 264 OFFCURVE",
"442 289 CURVE",
"537 269 OFFCURVE",
"585 204 OFFCURVE",
"585 94 CURVE SMOOTH",
"585 62 OFFCURVE",
"580 30 OFFCURVE",
"571 0 CURVE",
"657 0 LINE",
"667 30 OFFCURVE",
"671 62 OFFCURVE",
"671 96 CURVE SMOOTH",
"671 263 OFFCURVE",
"577 358 OFFCURVE",
"415 374 CURVE",
"398 412 OFFCURVE",
"376 447 OFFCURVE",
"349 480 CURVE",
"370 480 LINE SMOOTH",
"465 480 OFFCURVE",
"551 489 OFFCURVE",
"628 506 CURVE",
"696 426 OFFCURVE",
"730 348 OFFCURVE",
"754 232 CURVE",
"831 207 LINE",
"903 304 OFFCURVE",
"932 377 OFFCURVE",
"932 475 CURVE SMOOTH",
"932 520 OFFCURVE",
"925 564 OFFCURVE",
"910 608 CURVE",
"828 580 LINE"
);
},
{
closed = 1;
nodes = (
"187 67 OFFCURVE",
"156 98 OFFCURVE",
"156 161 CURVE SMOOTH",
"156 251 OFFCURVE",
"224 296 OFFCURVE",
"360 297 CURVE",
"367 269 OFFCURVE",
"371 242 OFFCURVE",
"371 215 CURVE SMOOTH",
"371 115 OFFCURVE",
"325 67 OFFCURVE",
"250 67 CURVE SMOOTH"
);
}
);
width = 977;
}
);
leftKerningGroup = u1C16;
note = u1C16_1C24;
rightKerningGroup = u1C23_1C24;
},
{
glyphname = uni1C0D;
lastChange = "2017-09-18 13:29:20 +0000";
layers = (
{
layerId = "677D40D0-0324-4315-A4A8-9988F2BAD02F";
paths = (
{
closed = 1;
nodes = (
"216 596 OFFCURVE",
"70 464 OFFCURVE",
"70 193 CURVE SMOOTH",
"70 132 OFFCURVE",
"81 61 OFFCURVE",
"102 0 CURVE",
"191 0 LINE",
"168 60 OFFCURVE",
"155 130 OFFCURVE",
"155 195 CURVE SMOOTH",
"155 421 OFFCURVE",
"265 515 OFFCURVE",
"401 515 CURVE SMOOTH",
"525 515 OFFCURVE",
"584 438 OFFCURVE",
"584 333 CURVE SMOOTH",
"584 266 OFFCURVE",
"550 221 OFFCURVE",
"484 221 CURVE SMOOTH",
"431 221 OFFCURVE",
"397 249 OFFCURVE",
"397 303 CURVE SMOOTH",
"397 327 OFFCURVE",
"402 352 OFFCURVE",
"411 371 CURVE",
"324 371 LINE",
"315 353 OFFCURVE",
"311 330 OFFCURVE",
"311 301 CURVE SMOOTH",
"311 202 OFFCURVE",
"378 140 OFFCURVE",
"483 140 CURVE SMOOTH",
"606 140 OFFCURVE",
"670 223 OFFCURVE",
"670 334 CURVE SMOOTH",
"670 474 OFFCURVE",
"586 596 OFFCURVE",
"404 596 CURVE SMOOTH"
);
}
);
width = 730;
}
);
note = u1C0D;
unicode = 1C0D;
},
{
glyphname = uni1C05;
lastChange = "2017-09-18 13:29:20 +0000";
layers = (
{
layerId = "677D40D0-0324-4315-A4A8-9988F2BAD02F";
paths = (
{
closed = 1;
nodes = (
"68 499 OFFCURVE",
"129 491 OFFCURVE",
"204 491 CURVE SMOOTH",
"227 491 OFFCURVE",
"246 493 OFFCURVE",
"263 495 CURVE",
"186 408 OFFCURVE",
"147 317 OFFCURVE",
"147 225 CURVE SMOOTH",
"147 137 OFFCURVE",
"172 62 OFFCURVE",
"222 0 CURVE",
"318 0 LINE",
"258 72 OFFCURVE",
"232 139 OFFCURVE",
"232 225 CURVE SMOOTH",
"232 324 OFFCURVE",
"284 421 OFFCURVE",
"389 516 CURVE",
"389 593 LINE",
"326 578 OFFCURVE",
"264 571 OFFCURVE",
"204 571 CURVE SMOOTH",
"134 571 OFFCURVE",
"73 578 OFFCURVE",
"20 593 CURVE",
"20 515 LINE"
);
}
);
width = 429;
}
);
leftKerningGroup = u1C05;
note = u1C05;
unicode = 1C05;
},
{
glyphname = uni1C05_1C25;
lastChange = "2017-09-18 13:29:20 +0000";
layers = (
{
layerId = "677D40D0-0324-4315-A4A8-9988F2BAD02F";
paths = (
{
closed = 1;
nodes = (
"68 499 OFFCURVE",
"129 491 OFFCURVE",
"204 491 CURVE SMOOTH",
"227 491 OFFCURVE",
"246 493 OFFCURVE",
"263 495 CURVE",
"186 408 OFFCURVE",
"147 317 OFFCURVE",
"147 225 CURVE SMOOTH",
"147 137 OFFCURVE",
"172 62 OFFCURVE",
"222 0 CURVE",
"318 0 LINE",
"258 72 OFFCURVE",
"232 139 OFFCURVE",
"232 225 CURVE SMOOTH",
"232 321 OFFCURVE",
"282 416 OFFCURVE",
"381 509 CURVE",
"418 464 OFFCURVE",
"437 412 OFFCURVE",
"437 352 CURVE SMOOTH",
"437 281 OFFCURVE",
"419 210 OFFCURVE",
"383 140 CURVE",
"442 108 LINE",
"492 191 OFFCURVE",
"517 273 OFFCURVE",
"517 354 CURVE SMOOTH",
"517 459 OFFCURVE",
"478 545 OFFCURVE",
"406 597 CURVE",
"335 580 OFFCURVE",
"268 571 OFFCURVE",
"204 571 CURVE SMOOTH",
"134 571 OFFCURVE",
"73 578 OFFCURVE",
"20 593 CURVE",
"20 515 LINE"
);
}
);
width = 565;
}
);
leftKerningGroup = u1C05;
note = u1C05_1C25;
rightKerningGroup = u1C15_1C25;
},
{
glyphname = uni1C05_1C25_1C24;
lastChange = "2017-09-18 13:29:20 +0000";
layers = (
{
layerId = "677D40D0-0324-4315-A4A8-9988F2BAD02F";
paths = (
{
closed = 1;
nodes = (
"638 498 OFFCURVE",
"646 456 OFFCURVE",
"646 414 CURVE SMOOTH",
"646 360 OFFCURVE",
"632 306 OFFCURVE",
"603 253 CURVE",
"600 254 LINE",
"573 386 OFFCURVE",
"519 492 OFFCURVE",
"406 597 CURVE",
"335 580 OFFCURVE",
"268 571 OFFCURVE",
"204 571 CURVE SMOOTH",
"134 571 OFFCURVE",
"73 578 OFFCURVE",
"20 593 CURVE",
"20 515 LINE",
"68 499 OFFCURVE",
"129 491 OFFCURVE",
"204 491 CURVE SMOOTH",
"227 491 OFFCURVE",
"246 493 OFFCURVE",
"263 495 CURVE",
"186 408 OFFCURVE",
"147 317 OFFCURVE",
"147 225 CURVE SMOOTH",
"147 137 OFFCURVE",
"172 62 OFFCURVE",
"222 0 CURVE",
"318 0 LINE",
"258 72 OFFCURVE",
"232 139 OFFCURVE",
"232 225 CURVE SMOOTH",
"232 320 OFFCURVE",
"279 412 OFFCURVE",
"374 502 CURVE",
"390 459 OFFCURVE",
"398 405 OFFCURVE",
"398 339 CURVE SMOOTH",
"398 258 OFFCURVE",
"391 181 OFFCURVE",
"377 106 CURVE",
"446 91 LINE",
"464 179 OFFCURVE",
"473 268 OFFCURVE",
"473 358 CURVE SMOOTH",
"473 373 OFFCURVE",
"473 384 OFFCURVE",
"472 391 CURVE",
"476 391 LINE",
"507 338 OFFCURVE",
"531 271 OFFCURVE",
"548 192 CURVE",
"625 167 LINE",
"697 265 OFFCURVE",
"726 337 OFFCURVE",
"726 435 CURVE SMOOTH",
"726 479 OFFCURVE",
"719 524 OFFCURVE",
"704 568 CURVE",
"622 540 LINE"
);
}
);
width = 771;
}
);
note = u1C05_1C25_1C24;
},
{
glyphname = uni1C05_1C24;
lastChange = "2017-09-18 13:29:20 +0000";
layers = (
{
layerId = "677D40D0-0324-4315-A4A8-9988F2BAD02F";
paths = (
{
closed = 1;
nodes = (
"521 538 OFFCURVE",
"529 496 OFFCURVE",
"529 454 CURVE SMOOTH",
"529 400 OFFCURVE",
"515 346 OFFCURVE",
"486 293 CURVE",
"483 294 LINE",
"465 412 OFFCURVE",
"434 511 OFFCURVE",
"389 593 CURVE",
"326 578 OFFCURVE",
"264 571 OFFCURVE",
"204 571 CURVE SMOOTH",
"134 571 OFFCURVE",
"73 578 OFFCURVE",
"20 593 CURVE",
"20 515 LINE",
"68 499 OFFCURVE",
"129 491 OFFCURVE",
"204 491 CURVE SMOOTH",
"227 491 OFFCURVE",
"246 493 OFFCURVE",
"263 495 CURVE",
"186 408 OFFCURVE",
"147 317 OFFCURVE",
"147 225 CURVE SMOOTH",
"147 137 OFFCURVE",
"172 62 OFFCURVE",
"222 0 CURVE",
"318 0 LINE",
"258 72 OFFCURVE",
"232 139 OFFCURVE",
"232 225 CURVE SMOOTH",
"232 313 OFFCURVE",
"272 399 OFFCURVE",
"354 483 CURVE",
"385 412 OFFCURVE",
"408 330 OFFCURVE",
"423 235 CURVE",
"508 207 LINE",
"580 304 OFFCURVE",
"609 377 OFFCURVE",
"609 475 CURVE SMOOTH",
"609 520 OFFCURVE",
"602 564 OFFCURVE",
"587 608 CURVE",
"505 580 LINE"
);
}
);
width = 654;
}
);
note = u1C05_1C24;
rightKerningGroup = u1C23_1C24;
},
{
glyphname = uni1C09;
lastChange = "2017-09-18 13:29:20 +0000";
layers = (
{
layerId = "677D40D0-0324-4315-A4A8-9988F2BAD02F";
paths = (
{
closed = 1;
nodes = (
"474 572 OFFCURVE",
"390 561 OFFCURVE",
"291 561 CURVE SMOOTH",
"192 561 OFFCURVE",
"109 572 OFFCURVE",
"40 593 CURVE",
"40 515 LINE",
"94 497 OFFCURVE",
"156 486 OFFCURVE",
"225 482 CURVE",
"32 278 LINE",
"152 182 OFFCURVE",
"208 109 OFFCURVE",
"245 0 CURVE",
"335 0 LINE",
"294 120 OFFCURVE",
"239 201 OFFCURVE",
"150 281 CURVE",
"280 419 LINE",
"346 333 OFFCURVE",
"423 256 OFFCURVE",
"511 191 CURVE",
"560 259 LINE",
"471 324 OFFCURVE",
"395 397 OFFCURVE",
"334 481 CURVE",
"411 483 OFFCURVE",
"480 495 OFFCURVE",
"542 515 CURVE",
"542 593 LINE"
);
}
);
width = 610;
}
);
note = u1C09;
unicode = 1C09;
},
{
glyphname = uni1C0E;
lastChange = "2017-09-18 13:29:20 +0000";
layers = (
{
layerId = "677D40D0-0324-4315-A4A8-9988F2BAD02F";
paths = (
{
closed = 1;
nodes = (
"484 571 OFFCURVE",
"398 561 OFFCURVE",
"304 561 CURVE SMOOTH",
"210 561 OFFCURVE",
"124 571 OFFCURVE",
"54 593 CURVE",
"54 515 LINE",
"125 492 OFFCURVE",
"211 480 OFFCURVE",
"304 480 CURVE SMOOTH",
"321 480 OFFCURVE",
"338 480 OFFCURVE",
"355 481 CURVE",
"438 385 OFFCURVE",
"452 339 OFFCURVE",
"452 287 CURVE SMOOTH",
"452 240 OFFCURVE",
"429 221 OFFCURVE",
"388 221 CURVE SMOOTH",
"322 221 OFFCURVE",
"268 270 OFFCURVE",
"198 270 CURVE SMOOTH",
"110 270 OFFCURVE",
"47 213 OFFCURVE",
"47 108 CURVE SMOOTH",
"47 73 OFFCURVE",
"53 39 OFFCURVE",
"66 0 CURVE",
"153 0 LINE",
"138 44 OFFCURVE",
"132 75 OFFCURVE",
"132 108 CURVE SMOOTH",
"132 166 OFFCURVE",
"153 189 OFFCURVE",
"198 189 CURVE SMOOTH",
"248 189 OFFCURVE",
"310 140 OFFCURVE",
"390 140 CURVE SMOOTH",
"480 140 OFFCURVE",
"538 192 OFFCURVE",
"538 289 CURVE SMOOTH",
"538 351 OFFCURVE",
"522 402 OFFCURVE",
"452 491 CURVE",
"488 497 OFFCURVE",
"523 505 OFFCURVE",
"554 515 CURVE",
"554 593 LINE"
);
}
);
width = 601;
}
);
leftKerningGroup = u1C0E;
note = u1C0E;
unicode = 1C0E;
},
{
glyphname = uni1C0E_1C25;
lastChange = "2017-09-18 13:29:20 +0000";
layers = (
{
layerId = "677D40D0-0324-4315-A4A8-9988F2BAD02F";
paths = (
{
closed = 1;
nodes = (
"486 572 OFFCURVE",
"403 561 OFFCURVE",
"304 561 CURVE SMOOTH",
"205 561 OFFCURVE",
"122 572 OFFCURVE",
"54 593 CURVE",
"54 515 LINE",
"130 492 OFFCURVE",
"211 480 OFFCURVE",
"304 480 CURVE SMOOTH",
"327 480 OFFCURVE",
"344 480 OFFCURVE",
"355 481 CURVE",
"433 392 OFFCURVE",
"452 344 OFFCURVE",
"452 287 CURVE SMOOTH",
"452 243 OFFCURVE",
"431 221 OFFCURVE",
"388 221 CURVE SMOOTH",
"327 221 OFFCURVE",
"264 270 OFFCURVE",
"198 270 CURVE SMOOTH",
"107 270 OFFCURVE",
"47 211 OFFCURVE",
"47 108 CURVE SMOOTH",
"47 74 OFFCURVE",
"53 38 OFFCURVE",
"66 0 CURVE",
"153 0 LINE",
"139 42 OFFCURVE",
"132 77 OFFCURVE",
"132 108 CURVE SMOOTH",
"132 165 OFFCURVE",
"153 189 OFFCURVE",
"198 189 CURVE SMOOTH",
"246 189 OFFCURVE",
"314 140 OFFCURVE",
"390 140 CURVE SMOOTH",
"482 140 OFFCURVE",
"538 193 OFFCURVE",
"538 289 CURVE SMOOTH",
"538 310 OFFCURVE",
"537 327 OFFCURVE",
"533 341 CURVE",
"542 341 LINE SMOOTH",
"590 341 OFFCURVE",
"611 302 OFFCURVE",
"611 214 CURVE SMOOTH",
"611 137 OFFCURVE",
"590 59 OFFCURVE",
"549 -20 CURVE",
"608 -52 LINE",
"663 40 OFFCURVE",
"691 128 OFFCURVE",
"691 216 CURVE SMOOTH",
"691 348 OFFCURVE",
"636 419 OFFCURVE",
"542 419 CURVE SMOOTH",
"528 419 OFFCURVE",
"515 417 OFFCURVE",
"504 415 CURVE",
"495 433 OFFCURVE",
"478 458 OFFCURVE",
"452 491 CURVE",
"490 498 OFFCURVE",
"524 506 OFFCURVE",
"554 515 CURVE",
"554 593 LINE"
);
}
);
width = 739;
}
);
leftKerningGroup = u1C0E;
note = u1C0E_1C25;
},
{
glyphname = uni1C0E_1C25_1C24;
lastChange = "2017-09-18 13:29:20 +0000";
layers = (
{
layerId = "677D40D0-0324-4315-A4A8-9988F2BAD02F";
paths = (
{
closed = 1;
nodes = (
"821 381 OFFCURVE",
"829 339 OFFCURVE",
"829 298 CURVE SMOOTH",
"829 244 OFFCURVE",
"815 190 OFFCURVE",
"786 137 CURVE",
"783 138 LINE",
"760 331 OFFCURVE",
"697 427 OFFCURVE",
"594 427 CURVE SMOOTH",
"564 427 OFFCURVE",
"535 421 OFFCURVE",
"506 411 CURVE",
"493 435 OFFCURVE",
"475 461 OFFCURVE",
"452 491 CURVE",
"490 498 OFFCURVE",
"524 506 OFFCURVE",
"554 515 CURVE",
"554 593 LINE",
"486 572 OFFCURVE",
"403 561 OFFCURVE",
"304 561 CURVE SMOOTH",
"205 561 OFFCURVE",
"122 572 OFFCURVE",
"54 593 CURVE",
"54 515 LINE",
"126 492 OFFCURVE",
"209 480 OFFCURVE",
"304 480 CURVE SMOOTH",
"327 480 OFFCURVE",
"344 480 OFFCURVE",
"355 481 CURVE",
"433 392 OFFCURVE",
"452 344 OFFCURVE",
"452 287 CURVE SMOOTH",
"452 243 OFFCURVE",
"431 221 OFFCURVE",
"388 221 CURVE SMOOTH",
"327 221 OFFCURVE",
"264 270 OFFCURVE",
"198 270 CURVE SMOOTH",
"107 270 OFFCURVE",
"47 211 OFFCURVE",
"47 108 CURVE SMOOTH",
"47 74 OFFCURVE",
"53 38 OFFCURVE",
"66 0 CURVE",
"153 0 LINE",
"139 42 OFFCURVE",
"132 77 OFFCURVE",
"132 108 CURVE SMOOTH",
"132 165 OFFCURVE",
"153 189 OFFCURVE",
"198 189 CURVE SMOOTH",
"245 189 OFFCURVE",
"314 140 OFFCURVE",
"390 140 CURVE SMOOTH",
"482 140 OFFCURVE",
"538 193 OFFCURVE",
"538 289 CURVE SMOOTH",
"538 310 OFFCURVE",
"537 327 OFFCURVE",
"533 342 CURVE",
"535 342 OFFCURVE",
"538 343 OFFCURVE",
"541 343 CURVE SMOOTH",
"568 343 OFFCURVE",
"581 307 OFFCURVE",
"581 236 CURVE SMOOTH",
"581 153 OFFCURVE",
"574 71 OFFCURVE",
"560 -10 CURVE",
"629 -25 LINE",
"650 61 OFFCURVE",
"661 142 OFFCURVE",
"661 217 CURVE SMOOTH",
"661 271 OFFCURVE",
"652 313 OFFCURVE",
"634 342 CURVE",
"636 345 LINE",
"690 304 OFFCURVE",
"713 185 OFFCURVE",
"731 76 CURVE",
"808 51 LINE",
"880 148 OFFCURVE",
"909 222 OFFCURVE",
"909 319 CURVE SMOOTH",
"909 364 OFFCURVE",
"902 408 OFFCURVE",
"887 452 CURVE",
"805 424 LINE"
);
}
);
width = 954;
}
);
leftKerningGroup = u1C0E;
note = u1C0E_1C25_1C24;
rightKerningGroup = u1C13_1C25_1C24;
},
{
glyphname = uni1C0E_1C24;
lastChange = "2017-09-18 13:29:20 +0000";
layers = (
{
layerId = "677D40D0-0324-4315-A4A8-9988F2BAD02F";
paths = (
{
closed = 1;
nodes = (
"759 377 OFFCURVE",
"767 335 OFFCURVE",
"767 294 CURVE SMOOTH",
"767 240 OFFCURVE",
"753 186 OFFCURVE",
"724 133 CURVE",
"721 134 LINE",
"695 284 OFFCURVE",
"660 425 OFFCURVE",
"555 425 CURVE SMOOTH",
"536 425 OFFCURVE",
"519 421 OFFCURVE",
"504 415 CURVE",
"492 437 OFFCURVE",
"475 462 OFFCURVE",
"452 491 CURVE",
"490 498 OFFCURVE",
"524 506 OFFCURVE",
"554 515 CURVE",
"554 593 LINE",
"486 572 OFFCURVE",
"403 561 OFFCURVE",
"304 561 CURVE SMOOTH",
"205 561 OFFCURVE",
"122 572 OFFCURVE",
"54 593 CURVE",
"54 515 LINE",
"126 492 OFFCURVE",
"209 480 OFFCURVE",
"304 480 CURVE SMOOTH",
"327 480 OFFCURVE",
"344 480 OFFCURVE",
"355 481 CURVE",
"433 392 OFFCURVE",
"452 344 OFFCURVE",
"452 287 CURVE SMOOTH",
"452 243 OFFCURVE",
"431 221 OFFCURVE",
"388 221 CURVE SMOOTH",
"329 221 OFFCURVE",
"262 270 OFFCURVE",
"198 270 CURVE SMOOTH",
"107 270 OFFCURVE",
"47 211 OFFCURVE",
"47 108 CURVE SMOOTH",
"47 74 OFFCURVE",
"53 38 OFFCURVE",
"66 0 CURVE",
"153 0 LINE",
"139 42 OFFCURVE",
"132 77 OFFCURVE",
"132 108 CURVE SMOOTH",
"132 165 OFFCURVE",
"153 189 OFFCURVE",
"198 189 CURVE SMOOTH",
"244 189 OFFCURVE",
"315 140 OFFCURVE",
"390 140 CURVE SMOOTH",
"482 140 OFFCURVE",
"538 193 OFFCURVE",
"538 289 CURVE SMOOTH",
"538 310 OFFCURVE",
"537 328 OFFCURVE",
"533 342 CURVE",
"539 345 OFFCURVE",
"543 347 OFFCURVE",
"549 347 CURVE SMOOTH",
"605 347 OFFCURVE",
"642 190 OFFCURVE",
"661 75 CURVE",
"746 47 LINE",
"818 145 OFFCURVE",
"847 218 OFFCURVE",
"847 315 CURVE SMOOTH",
"847 359 OFFCURVE",
"840 404 OFFCURVE",
"825 448 CURVE",
"743 420 LINE"
);
}
);
width = 892;
}
);
leftKerningGroup = u1C0E;
note = u1C0E_1C24;
rightKerningGroup = u1C13_1C25_1C24;
},
{
glyphname = uni1C10;
lastChange = "2017-09-18 13:29:20 +0000";
layers = (
{
layerId = "677D40D0-0324-4315-A4A8-9988F2BAD02F";
paths = (
{
closed = 1;
nodes = (
"486 572 OFFCURVE",
"403 561 OFFCURVE",
"304 561 CURVE SMOOTH",
"205 561 OFFCURVE",
"122 572 OFFCURVE",
"54 593 CURVE",
"54 515 LINE",
"62 513 OFFCURVE",
"76 508 OFFCURVE",
"99 502 CURVE",
"70 445 OFFCURVE",
"55 390 OFFCURVE",
"55 336 CURVE SMOOTH",
"55 291 OFFCURVE",
"62 250 OFFCURVE",
"76 212 CURVE",
"57 185 OFFCURVE",
"47 150 OFFCURVE",
"47 108 CURVE SMOOTH",
"47 74 OFFCURVE",
"53 38 OFFCURVE",
"66 0 CURVE",
"153 0 LINE",
"139 42 OFFCURVE",
"132 77 OFFCURVE",
"132 108 CURVE SMOOTH",
"132 165 OFFCURVE",
"153 189 OFFCURVE",
"198 189 CURVE SMOOTH",
"242 189 OFFCURVE",
"316 140 OFFCURVE",
"390 140 CURVE SMOOTH",
"482 140 OFFCURVE",
"538 193 OFFCURVE",
"538 289 CURVE SMOOTH",
"538 354 OFFCURVE",
"519 405 OFFCURVE",
"452 491 CURVE",
"490 498 OFFCURVE",
"524 506 OFFCURVE",
"554 515 CURVE",
"554 593 LINE"
);
},
{
closed = 1;
nodes = (
"452 243 OFFCURVE",
"431 221 OFFCURVE",
"388 221 CURVE SMOOTH",
"329 221 OFFCURVE",
"263 270 OFFCURVE",
"199 270 CURVE SMOOTH",
"181 270 OFFCURVE",
"162 268 OFFCURVE",
"145 262 CURVE",
"140 285 OFFCURVE",
"137 310 OFFCURVE",
"137 336 CURVE SMOOTH",
"137 389 OFFCURVE",
"150 440 OFFCURVE",
"177 488 CURVE",
"220 482 OFFCURVE",
"262 480 OFFCURVE",
"304 480 CURVE SMOOTH",
"327 480 OFFCURVE",
"344 480 OFFCURVE",
"355 481 CURVE",
"433 392 OFFCURVE",
"452 344 OFFCURVE",
"452 287 CURVE SMOOTH"
);
}
);
width = 601;
}
);
leftKerningGroup = u1C0E;
note = u1C10;
unicode = 1C10;
},
{
glyphname = uni1C10_1C24;
lastChange = "2017-09-18 13:29:20 +0000";
layers = (
{
layerId = "677D40D0-0324-4315-A4A8-9988F2BAD02F";
paths = (
{
closed = 1;
nodes = (
"759 377 OFFCURVE",
"767 335 OFFCURVE",
"767 294 CURVE SMOOTH",
"767 240 OFFCURVE",
"753 186 OFFCURVE",
"724 133 CURVE",
"721 134 LINE",
"696 284 OFFCURVE",
"660 425 OFFCURVE",
"555 425 CURVE SMOOTH",
"536 425 OFFCURVE",
"519 421 OFFCURVE",
"504 415 CURVE",
"492 437 OFFCURVE",
"475 462 OFFCURVE",
"452 491 CURVE",
"490 498 OFFCURVE",
"524 506 OFFCURVE",
"554 515 CURVE",
"554 593 LINE",
"486 572 OFFCURVE",
"403 561 OFFCURVE",
"304 561 CURVE SMOOTH",
"205 561 OFFCURVE",
"122 572 OFFCURVE",
"54 593 CURVE",
"54 515 LINE",
"62 513 OFFCURVE",
"76 508 OFFCURVE",
"99 502 CURVE",
"70 445 OFFCURVE",
"55 390 OFFCURVE",
"55 336 CURVE SMOOTH",
"55 291 OFFCURVE",
"62 250 OFFCURVE",
"76 212 CURVE",
"57 185 OFFCURVE",
"47 150 OFFCURVE",
"47 108 CURVE SMOOTH",
"47 74 OFFCURVE",
"53 38 OFFCURVE",
"66 0 CURVE",
"153 0 LINE",
"139 42 OFFCURVE",
"132 77 OFFCURVE",
"132 108 CURVE SMOOTH",
"132 165 OFFCURVE",
"153 189 OFFCURVE",
"198 189 CURVE SMOOTH",
"240 189 OFFCURVE",
"321 140 OFFCURVE",
"390 140 CURVE SMOOTH",
"482 140 OFFCURVE",
"538 193 OFFCURVE",
"538 289 CURVE SMOOTH",
"538 310 OFFCURVE",
"537 328 OFFCURVE",
"533 342 CURVE",
"539 345 OFFCURVE",
"543 347 OFFCURVE",
"549 347 CURVE SMOOTH",
"605 347 OFFCURVE",
"642 190 OFFCURVE",
"661 75 CURVE",
"746 47 LINE",
"818 145 OFFCURVE",
"847 218 OFFCURVE",
"847 315 CURVE SMOOTH",
"847 359 OFFCURVE",
"840 404 OFFCURVE",
"825 448 CURVE",
"743 420 LINE"
);
},
{
closed = 1;
nodes = (
"329 221 OFFCURVE",
"263 270 OFFCURVE",
"198 270 CURVE SMOOTH",
"180 270 OFFCURVE",
"162 268 OFFCURVE",
"145 262 CURVE",
"140 285 OFFCURVE",
"137 310 OFFCURVE",
"137 336 CURVE SMOOTH",
"137 389 OFFCURVE",
"150 440 OFFCURVE",
"177 488 CURVE",
"220 482 OFFCURVE",
"262 480 OFFCURVE",
"304 480 CURVE SMOOTH",
"327 480 OFFCURVE",
"344 480 OFFCURVE",
"355 481 CURVE",
"433 392 OFFCURVE",
"452 344 OFFCURVE",
"452 287 CURVE SMOOTH",
"452 243 OFFCURVE",
"431 221 OFFCURVE",
"388 221 CURVE SMOOTH"
);
}
);
width = 892;
}
);
note = u1C10_1C24;
rightKerningGroup = u1C13_1C25_1C24;
},
{
glyphname = uni1C0F;
lastChange = "2017-09-18 13:29:20 +0000";
layers = (
{
layerId = "677D40D0-0324-4315-A4A8-9988F2BAD02F";
paths = (
{
closed = 1;
nodes = (
"479 572 OFFCURVE",
"396 561 OFFCURVE",
"297 561 CURVE SMOOTH",
"198 561 OFFCURVE",
"115 572 OFFCURVE",
"47 593 CURVE",
"47 515 LINE",
"77 506 OFFCURVE",
"111 498 OFFCURVE",
"149 491 CURVE",
"83 405 OFFCURVE",
"63 354 OFFCURVE",
"63 289 CURVE SMOOTH",
"63 193 OFFCURVE",
"119 140 OFFCURVE",
"211 140 CURVE SMOOTH",
"283 140 OFFCURVE",
"358 189 OFFCURVE",
"403 189 CURVE SMOOTH",
"448 189 OFFCURVE",
"469 165 OFFCURVE",
"469 108 CURVE SMOOTH",
"469 77 OFFCURVE",
"462 42 OFFCURVE",
"448 0 CURVE",
"535 0 LINE",
"548 38 OFFCURVE",
"554 74 OFFCURVE",
"554 108 CURVE SMOOTH",
"554 211 OFFCURVE",
"494 270 OFFCURVE",
"403 270 CURVE SMOOTH",
"337 270 OFFCURVE",
"273 221 OFFCURVE",
"213 221 CURVE SMOOTH",
"170 221 OFFCURVE",
"149 243 OFFCURVE",
"149 287 CURVE SMOOTH",
"149 344 OFFCURVE",
"168 392 OFFCURVE",
"246 481 CURVE",
"257 480 OFFCURVE",
"274 480 OFFCURVE",
"297 480 CURVE SMOOTH",
"392 480 OFFCURVE",
"475 492 OFFCURVE",
"547 515 CURVE",
"547 593 LINE"
);
}
);
width = 601;
}
);
leftKerningGroup = u1C0F;
note = u1C0F;
unicode = 1C0F;
},
{
glyphname = uni1C0F_1C24;
lastChange = "2017-09-18 13:29:20 +0000";
layers = (
{
layerId = "677D40D0-0324-4315-A4A8-9988F2BAD02F";
paths = (
{
closed = 1;
nodes = (
"731 538 OFFCURVE",
"739 496 OFFCURVE",
"739 454 CURVE SMOOTH",
"739 400 OFFCURVE",
"725 346 OFFCURVE",
"696 293 CURVE",
"693 294 LINE",
"673 409 OFFCURVE",
"631 501 OFFCURVE",
"547 593 CURVE",
"479 572 OFFCURVE",
"396 561 OFFCURVE",
"297 561 CURVE SMOOTH",
"198 561 OFFCURVE",
"115 572 OFFCURVE",
"47 593 CURVE",
"47 515 LINE",
"77 506 OFFCURVE",
"111 498 OFFCURVE",
"149 491 CURVE",
"83 405 OFFCURVE",
"63 354 OFFCURVE",
"63 289 CURVE SMOOTH",
"63 193 OFFCURVE",
"119 140 OFFCURVE",
"211 140 CURVE SMOOTH",
"284 140 OFFCURVE",
"358 189 OFFCURVE",
"403 189 CURVE SMOOTH",
"448 189 OFFCURVE",
"469 165 OFFCURVE",
"469 108 CURVE SMOOTH",
"469 77 OFFCURVE",
"462 42 OFFCURVE",
"448 0 CURVE",
"535 0 LINE",
"548 38 OFFCURVE",
"554 74 OFFCURVE",
"554 108 CURVE SMOOTH",
"554 211 OFFCURVE",
"494 270 OFFCURVE",
"403 270 CURVE SMOOTH",
"338 270 OFFCURVE",
"272 221 OFFCURVE",
"213 221 CURVE SMOOTH",
"170 221 OFFCURVE",
"149 243 OFFCURVE",
"149 287 CURVE SMOOTH",
"149 344 OFFCURVE",
"168 392 OFFCURVE",
"246 481 CURVE",
"257 480 OFFCURVE",
"274 480 OFFCURVE",
"297 480 CURVE SMOOTH",
"377 480 OFFCURVE",
"450 489 OFFCURVE",
"515 506 CURVE",
"583 426 OFFCURVE",
"617 348 OFFCURVE",
"641 232 CURVE",
"718 207 LINE",
"790 304 OFFCURVE",
"819 377 OFFCURVE",
"819 475 CURVE SMOOTH",
"819 520 OFFCURVE",
"812 564 OFFCURVE",
"797 608 CURVE",
"715 580 LINE"
);
}
);
width = 864;
}
);
leftKerningGroup = u1C0F;
note = u1C0F_1C24;
rightKerningGroup = u1C23_1C24;
},
{
glyphname = uni1C1B;
lastChange = "2017-09-18 13:29:20 +0000";
layers = (
{
layerId = "677D40D0-0324-4315-A4A8-9988F2BAD02F";
paths = (
{
closed = 1;
nodes = (
"423 576 OFFCURVE",
"349 567 OFFCURVE",
"265 567 CURVE SMOOTH",
"194 567 OFFCURVE",
"119 576 OFFCURVE",
"40 593 CURVE",
"40 479 LINE",
"210 370 OFFCURVE",
"295 258 OFFCURVE",
"295 145 CURVE SMOOTH",
"295 90 OFFCURVE",
"282 42 OFFCURVE",
"257 0 CURVE",
"347 0 LINE",
"369 41 OFFCURVE",
"380 89 OFFCURVE",
"380 145 CURVE SMOOTH",
"380 282 OFFCURVE",
"293 401 OFFCURVE",
"119 501 CURVE",
"119 505 LINE",
"161 493 OFFCURVE",
"209 487 OFFCURVE",
"265 487 CURVE SMOOTH",
"356 487 OFFCURVE",
"431 496 OFFCURVE",
"489 515 CURVE",
"489 593 LINE"
);
}
);
width = 509;
}
);
leftKerningGroup = u1C1B;
note = u1C1B;
unicode = 1C1B;
},
{
glyphname = uni1C1B_1C24;
lastChange = "2017-09-18 13:29:20 +0000";
layers = (
{
layerId = "677D40D0-0324-4315-A4A8-9988F2BAD02F";
paths = (
{
closed = 1;
nodes = (
"621 538 OFFCURVE",
"629 496 OFFCURVE",
"629 454 CURVE SMOOTH",
"629 400 OFFCURVE",
"615 346 OFFCURVE",
"586 293 CURVE",
"583 294 LINE",
"565 412 OFFCURVE",
"534 511 OFFCURVE",
"489 593 CURVE",
"423 576 OFFCURVE",
"349 567 OFFCURVE",
"265 567 CURVE SMOOTH",
"194 567 OFFCURVE",
"119 576 OFFCURVE",
"40 593 CURVE",
"40 479 LINE",
"210 370 OFFCURVE",
"295 258 OFFCURVE",
"295 145 CURVE SMOOTH",
"295 90 OFFCURVE",
"282 42 OFFCURVE",
"257 0 CURVE",
"347 0 LINE",
"369 41 OFFCURVE",
"380 89 OFFCURVE",
"380 145 CURVE SMOOTH",
"380 282 OFFCURVE",
"293 401 OFFCURVE",
"119 501 CURVE",
"119 505 LINE",
"161 493 OFFCURVE",
"209 487 OFFCURVE",
"265 487 CURVE SMOOTH",
"334 487 OFFCURVE",
"394 492 OFFCURVE",
"445 503 CURVE",
"479 428 OFFCURVE",
"506 339 OFFCURVE",
"523 235 CURVE",
"608 207 LINE",
"680 304 OFFCURVE",
"709 377 OFFCURVE",
"709 475 CURVE SMOOTH",
"709 520 OFFCURVE",
"702 564 OFFCURVE",
"687 608 CURVE",
"605 580 LINE"
);
}
);
width = 754;
}
);
leftKerningGroup = u1C1B;
note = u1C1B_1C24;
rightKerningGroup = u1C23_1C24;
},
{
glyphname = uni1C20;
lastChange = "2017-09-18 13:29:20 +0000";
layers = (
{
layerId = "677D40D0-0324-4315-A4A8-9988F2BAD02F";
paths = (
{
closed = 1;
nodes = (
"174 593 OFFCURVE",
"70 463 OFFCURVE",
"70 265 CURVE SMOOTH",
"70 87 OFFCURVE",
"154 -7 OFFCURVE",
"285 -7 CURVE SMOOTH",
"388 -7 OFFCURVE",
"447 50 OFFCURVE",
"466 131 CURVE",
"470 131 LINE",
"486 95 OFFCURVE",
"516 76 OFFCURVE",
"561 76 CURVE SMOOTH",
"632 76 OFFCURVE",
"689 120 OFFCURVE",
"697 190 CURVE",
"701 190 LINE",
"720 145 OFFCURVE",
"754 121 OFFCURVE",
"811 121 CURVE SMOOTH",
"905 121 OFFCURVE",
"970 189 OFFCURVE",
"970 335 CURVE SMOOTH",
"970 365 OFFCURVE",
"965 407 OFFCURVE",
"958 437 CURVE",
"874 437 LINE",
"880 407 OFFCURVE",
"885 365 OFFCURVE",
"885 335 CURVE SMOOTH",
"885 238 OFFCURVE",
"855 204 OFFCURVE",
"804 204 CURVE SMOOTH",
"755 204 OFFCURVE",
"735 232 OFFCURVE",
"735 288 CURVE SMOOTH",
"735 383 LINE",
"650 383 LINE",
"650 301 LINE SMOOTH",
"650 195 OFFCURVE",
"618 159 OFFCURVE",
"564 159 CURVE SMOOTH",
"521 159 OFFCURVE",
"501 184 OFFCURVE",
"501 244 CURVE SMOOTH",
"501 326 LINE",
"416 326 LINE",
"416 257 LINE SMOOTH",
"416 130 OFFCURVE",
"371 76 OFFCURVE",
"292 76 CURVE SMOOTH",
"208 76 OFFCURVE",
"155 125 OFFCURVE",
"155 264 CURVE SMOOTH",
"155 423 OFFCURVE",
"224 512 OFFCURVE",
"355 512 CURVE SMOOTH",
"375 512 OFFCURVE",
"398 509 OFFCURVE",
"419 503 CURVE",
"419 584 LINE",
"400 590 OFFCURVE",
"377 593 OFFCURVE",
"348 593 CURVE SMOOTH"
);
}
);
width = 1010;
}
);
leftKerningGroup = u1C13;
note = u1C20;
unicode = 1C20;
},
{
glyphname = uni1C21;
lastChange = "2017-09-18 13:29:20 +0000";
layers = (
{
layerId = "677D40D0-0324-4315-A4A8-9988F2BAD02F";
paths = (
{
closed = 1;
nodes = (
"539 450 LINE",
"546 424 OFFCURVE",
"550 390 OFFCURVE",
"550 362 CURVE SMOOTH",
"550 303 OFFCURVE",
"526 282 OFFCURVE",
"485 282 CURVE SMOOTH",
"439 282 OFFCURVE",
"420 310 OFFCURVE",
"420 367 CURVE SMOOTH",
"420 398 LINE",
"335 398 LINE",
"335 367 LINE SMOOTH",
"335 288 OFFCURVE",
"303 261 OFFCURVE",
"248 261 CURVE SMOOTH",
"207 261 OFFCURVE",
"176 285 OFFCURVE",
"158 334 CURVE",
"172 449 OFFCURVE",
"235 512 OFFCURVE",
"344 512 CURVE SMOOTH",
"364 512 OFFCURVE",
"387 509 OFFCURVE",
"408 503 CURVE",
"408 584 LINE",
"389 590 OFFCURVE",
"366 593 OFFCURVE",
"337 593 CURVE SMOOTH",
"170 593 OFFCURVE",
"70 470 OFFCURVE",
"70 284 CURVE SMOOTH",
"70 93 OFFCURVE",
"169 -7 OFFCURVE",
"325 -7 CURVE SMOOTH",
"378 -7 OFFCURVE",
"419 3 OFFCURVE",
"456 24 CURVE",
"426 101 LINE",
"397 85 OFFCURVE",
"363 76 OFFCURVE",
"325 76 CURVE SMOOTH",
"235 76 OFFCURVE",
"172 118 OFFCURVE",
"158 232 CURVE",
"161 233 LINE",
"177 198 OFFCURVE",
"205 178 OFFCURVE",
"254 178 CURVE SMOOTH",
"316 178 OFFCURVE",
"364 213 OFFCURVE",
"379 268 CURVE",
"383 268 LINE",
"403 222 OFFCURVE",
"436 199 OFFCURVE",
"492 199 CURVE SMOOTH",
"576 199 OFFCURVE",
"635 251 OFFCURVE",
"635 362 CURVE SMOOTH",
"635 390 OFFCURVE",
"631 424 OFFCURVE",
"623 450 CURVE"
);
}
);
width = 675;
}
);
leftKerningGroup = u1C13;
note = u1C21;
unicode = 1C21;
},
{
glyphname = uni1C21_1C24;
lastChange = "2017-09-18 13:29:20 +0000";
layers = (
{
layerId = "677D40D0-0324-4315-A4A8-9988F2BAD02F";
paths = (
{
closed = 1;
nodes = (
"807 395 OFFCURVE",
"815 353 OFFCURVE",
"815 311 CURVE SMOOTH",
"815 257 OFFCURVE",
"801 203 OFFCURVE",
"772 150 CURVE",
"769 151 LINE",
"749 266 OFFCURVE",
"707 358 OFFCURVE",
"623 450 CURVE",
"539 450 LINE",
"546 423 OFFCURVE",
"550 394 OFFCURVE",
"550 362 CURVE SMOOTH",
"550 309 OFFCURVE",
"528 282 OFFCURVE",
"485 282 CURVE SMOOTH",
"440 282 OFFCURVE",
"420 310 OFFCURVE",
"420 367 CURVE SMOOTH",
"420 398 LINE",
"335 398 LINE",
"335 367 LINE SMOOTH",
"335 291 OFFCURVE",
"305 261 OFFCURVE",
"248 261 CURVE SMOOTH",
"206 261 OFFCURVE",
"176 286 OFFCURVE",
"158 334 CURVE",
"172 450 OFFCURVE",
"236 512 OFFCURVE",
"344 512 CURVE SMOOTH",
"366 512 OFFCURVE",
"387 509 OFFCURVE",
"408 503 CURVE",
"408 584 LINE",
"389 590 OFFCURVE",
"366 593 OFFCURVE",
"337 593 CURVE SMOOTH",
"165 593 OFFCURVE",
"70 464 OFFCURVE",
"70 284 CURVE SMOOTH",
"70 96 OFFCURVE",
"167 -7 OFFCURVE",
"325 -7 CURVE SMOOTH",
"375 -7 OFFCURVE",
"419 3 OFFCURVE",
"456 24 CURVE",
"426 101 LINE",
"396 84 OFFCURVE",
"362 76 OFFCURVE",
"325 76 CURVE SMOOTH",
"226 76 OFFCURVE",
"170 128 OFFCURVE",
"158 232 CURVE",
"161 233 LINE",
"178 196 OFFCURVE",
"208 178 OFFCURVE",
"254 178 CURVE SMOOTH",
"315 178 OFFCURVE",
"365 213 OFFCURVE",
"379 268 CURVE",
"383 268 LINE",
"403 222 OFFCURVE",
"439 199 OFFCURVE",
"492 199 CURVE SMOOTH",
"564 199 OFFCURVE",
"616 236 OFFCURVE",
"630 311 CURVE",
"669 254 OFFCURVE",
"698 180 OFFCURVE",
"717 89 CURVE",
"794 64 LINE",
"866 162 OFFCURVE",
"895 234 OFFCURVE",
"895 332 CURVE SMOOTH",
"895 376 OFFCURVE",
"888 421 OFFCURVE",
"873 465 CURVE",
"791 437 LINE"
);
}
);
width = 940;
}
);
leftKerningGroup = u1C13;
note = u1C21_1C24;
rightKerningGroup = u1C13_1C25_1C24;
},
{
glyphname = uni1C0A;
lastChange = "2017-09-18 13:29:20 +0000";
layers = (
{
layerId = "677D40D0-0324-4315-A4A8-9988F2BAD02F";
paths = (
{
closed = 1;
nodes = (
"361 605 LINE",
"303 544 LINE",
"494 361 LINE SMOOTH",
"524 333 OFFCURVE",
"530 319 OFFCURVE",
"530 299 CURVE SMOOTH",
"530 263 OFFCURVE",
"506 239 OFFCURVE",
"467 239 CURVE SMOOTH",
"446 239 OFFCURVE",
"434 246 OFFCURVE",
"409 270 CURVE SMOOTH",
"217 456 LINE",
"15 249 LINE",
"291 -16 LINE",
"349 45 LINE",
"133 252 LINE",
"219 339 LINE",
"350 211 LINE SMOOTH",
"392 170 OFFCURVE",
"419 156 OFFCURVE",
"467 156 CURVE SMOOTH",
"547 156 OFFCURVE",
"614 219 OFFCURVE",
"614 300 CURVE SMOOTH",
"614 343 OFFCURVE",
"601 374 OFFCURVE",
"554 420 CURVE SMOOTH"
);
}
);
width = 639;
}
);
leftKerningGroup = u1C0A;
note = u1C0A;
unicode = 1C0A;
},
{
glyphname = uni1C0A_1C24;
lastChange = "2017-09-18 13:29:20 +0000";
layers = (
{
layerId = "677D40D0-0324-4315-A4A8-9988F2BAD02F";
paths = (
{
closed = 1;
nodes = (
"709 412 OFFCURVE",
"717 370 OFFCURVE",
"717 328 CURVE SMOOTH",
"717 274 OFFCURVE",
"703 220 OFFCURVE",
"674 167 CURVE",
"671 168 LINE",
"651 285 OFFCURVE",
"608 369 OFFCURVE",
"526 447 CURVE SMOOTH",
"361 605 LINE",
"303 544 LINE",
"494 361 LINE SMOOTH",
"523 334 OFFCURVE",
"530 320 OFFCURVE",
"530 299 CURVE SMOOTH",
"530 263 OFFCURVE",
"506 239 OFFCURVE",
"467 239 CURVE SMOOTH",
"446 239 OFFCURVE",
"434 245 OFFCURVE",
"409 270 CURVE SMOOTH",
"217 456 LINE",
"15 249 LINE",
"291 -16 LINE",
"349 45 LINE",
"133 252 LINE",
"219 339 LINE",
"350 211 LINE SMOOTH",
"392 169 OFFCURVE",
"420 156 OFFCURVE",
"467 156 CURVE SMOOTH",
"518 156 OFFCURVE",
"563 183 OFFCURVE",
"586 223 CURVE",
"598 193 OFFCURVE",
"609 154 OFFCURVE",
"619 106 CURVE",
"696 81 LINE",
"768 178 OFFCURVE",
"797 251 OFFCURVE",
"797 349 CURVE SMOOTH",
"797 394 OFFCURVE",
"790 438 OFFCURVE",
"775 482 CURVE",
"693 454 LINE"
);
}
);
width = 842;
}
);
leftKerningGroup = u1C0A;
note = u1C0A_1C24;
rightKerningGroup = u1C13_1C25_1C24;
},
{
glyphname = uni1C0B;
lastChange = "2017-09-18 13:29:20 +0000";
layers = (
{
layerId = "677D40D0-0324-4315-A4A8-9988F2BAD02F";
paths = (
{
closed = 1;
nodes = (
"42 553 OFFCURVE",
"35 519 OFFCURVE",
"35 481 CURVE SMOOTH",
"35 352 OFFCURVE",
"93 255 OFFCURVE",
"204 212 CURVE",
"204 202 OFFCURVE",
"203 191 OFFCURVE",
"203 181 CURVE SMOOTH",
"203 117 OFFCURVE",
"208 57 OFFCURVE",
"218 0 CURVE",
"304 0 LINE",
"293 62 OFFCURVE",
"287 122 OFFCURVE",
"287 181 CURVE SMOOTH",
"287 192 LINE",
"304 190 OFFCURVE",
"323 189 OFFCURVE",
"343 189 CURVE SMOOTH",
"507 189 OFFCURVE",
"631 272 OFFCURVE",
"631 421 CURVE SMOOTH",
"631 524 OFFCURVE",
"572 593 OFFCURVE",
"459 593 CURVE SMOOTH",
"332 593 OFFCURVE",
"238 485 OFFCURVE",
"211 297 CURVE",
"150 331 OFFCURVE",
"120 392 OFFCURVE",
"120 481 CURVE SMOOTH",
"120 517 OFFCURVE",
"127 551 OFFCURVE",
"140 583 CURVE",
"55 583 LINE"
);
},
{
closed = 1;
nodes = (
"324 270 OFFCURVE",
"307 271 OFFCURVE",
"291 273 CURVE",
"305 431 OFFCURVE",
"365 512 OFFCURVE",
"459 512 CURVE SMOOTH",
"519 512 OFFCURVE",
"548 477 OFFCURVE",
"548 421 CURVE SMOOTH",
"548 328 OFFCURVE",
"479 270 OFFCURVE",
"342 270 CURVE SMOOTH"
);
}
);
width = 666;
}
);
note = u1C0B;
unicode = 1C0B;
},
{
glyphname = uni1C0B_1C24;
lastChange = "2017-09-18 13:29:20 +0000";
layers = (
{
layerId = "677D40D0-0324-4315-A4A8-9988F2BAD02F";
paths = (
{
closed = 1;
nodes = (
"788 452 OFFCURVE",
"796 410 OFFCURVE",
"796 368 CURVE SMOOTH",
"796 314 OFFCURVE",
"782 260 OFFCURVE",
"753 207 CURVE",
"750 208 LINE",
"734 298 OFFCURVE",
"704 379 OFFCURVE",
"660 452 CURVE SMOOTH",
"596 557 OFFCURVE",
"547 593 OFFCURVE",
"459 593 CURVE SMOOTH",
"332 593 OFFCURVE",
"238 485 OFFCURVE",
"211 297 CURVE",
"150 331 OFFCURVE",
"120 392 OFFCURVE",
"120 481 CURVE SMOOTH",
"120 517 OFFCURVE",
"127 551 OFFCURVE",
"140 583 CURVE",
"55 583 LINE",
"42 553 OFFCURVE",
"35 519 OFFCURVE",
"35 481 CURVE SMOOTH",
"35 352 OFFCURVE",
"93 255 OFFCURVE",
"204 212 CURVE",
"204 202 OFFCURVE",
"203 191 OFFCURVE",
"203 181 CURVE SMOOTH",
"203 117 OFFCURVE",
"208 57 OFFCURVE",
"218 0 CURVE",
"304 0 LINE",
"293 62 OFFCURVE",
"287 122 OFFCURVE",
"287 181 CURVE SMOOTH",
"287 192 LINE",
"304 190 OFFCURVE",
"322 189 OFFCURVE",
"342 189 CURVE SMOOTH",
"498 189 OFFCURVE",
"601 259 OFFCURVE",
"625 368 CURVE",
"661 297 OFFCURVE",
"686 223 OFFCURVE",
"698 146 CURVE",
"775 121 LINE",
"847 218 OFFCURVE",
"876 292 OFFCURVE",
"876 389 CURVE SMOOTH",
"876 434 OFFCURVE",
"869 478 OFFCURVE",
"854 522 CURVE",
"772 494 LINE"
);
},
{
closed = 1;
nodes = (
"324 270 OFFCURVE",
"307 271 OFFCURVE",
"291 273 CURVE",
"305 431 OFFCURVE",
"365 512 OFFCURVE",
"459 512 CURVE SMOOTH",
"519 512 OFFCURVE",
"548 477 OFFCURVE",
"548 421 CURVE SMOOTH",
"548 328 OFFCURVE",
"479 270 OFFCURVE",
"342 270 CURVE SMOOTH"
);
}
);
width = 921;
}
);
note = u1C0B_1C24;
rightKerningGroup = u1C23_1C24;
},
{
glyphname = uni1C17;
lastChange = "2017-09-18 13:29:20 +0000";
layers = (
{
layerId = "677D40D0-0324-4315-A4A8-9988F2BAD02F";
paths = (
{
closed = 1;
nodes = (
"514 575 OFFCURVE",
"422 565 OFFCURVE",
"320 565 CURVE SMOOTH",
"217 565 OFFCURVE",
"125 575 OFFCURVE",
"50 597 CURVE",
"50 519 LINE",
"83 509 OFFCURVE",
"119 501 OFFCURVE",
"157 495 CURVE",
"96 403 OFFCURVE",
"70 329 OFFCURVE",
"70 243 CURVE SMOOTH",
"70 79 OFFCURVE",
"169 -12 OFFCURVE",
"320 -12 CURVE SMOOTH",
"471 -12 OFFCURVE",
"570 79 OFFCURVE",
"570 243 CURVE SMOOTH",
"570 329 OFFCURVE",
"544 403 OFFCURVE",
"483 496 CURVE",
"521 501 OFFCURVE",
"557 509 OFFCURVE",
"590 519 CURVE",
"590 597 LINE"
);
},
{
closed = 1;
nodes = (
"485 127 OFFCURVE",
"427 70 OFFCURVE",
"320 70 CURVE SMOOTH",
"213 70 OFFCURVE",
"155 127 OFFCURVE",
"155 243 CURVE SMOOTH",
"155 323 OFFCURVE",
"178 388 OFFCURVE",
"249 486 CURVE",
"272 485 OFFCURVE",
"296 484 OFFCURVE",
"320 484 CURVE SMOOTH",
"344 484 OFFCURVE",
"368 485 OFFCURVE",
"391 486 CURVE",
"462 388 OFFCURVE",
"485 323 OFFCURVE",
"485 243 CURVE SMOOTH"
);
}
);
width = 640;
}
);
note = u1C17;
unicode = 1C17;
},
{
glyphname = uni1C18;
lastChange = "2017-09-18 13:29:20 +0000";
layers = (
{
layerId = "677D40D0-0324-4315-A4A8-9988F2BAD02F";
paths = (
{
closed = 1;
nodes = (
"174 593 OFFCURVE",
"70 463 OFFCURVE",
"70 265 CURVE SMOOTH",
"70 84 OFFCURVE",
"152 -12 OFFCURVE",
"279 -12 CURVE SMOOTH",
"391 -12 OFFCURVE",
"460 55 OFFCURVE",
"477 149 CURVE",
"481 149 LINE",
"506 101 OFFCURVE",
"561 78 OFFCURVE",
"634 78 CURVE SMOOTH",
"689 78 OFFCURVE",
"740 95 OFFCURVE",
"782 125 CURVE",
"821 108 OFFCURVE",
"866 101 OFFCURVE",
"917 101 CURVE SMOOTH",
"948 101 OFFCURVE",
"978 105 OFFCURVE",
"1000 112 CURVE",
"1000 193 LINE",
"978 186 OFFCURVE",
"946 182 OFFCURVE",
"917 182 CURVE SMOOTH",
"888 182 OFFCURVE",
"860 184 OFFCURVE",
"835 189 CURVE",
"831 163 LINE",
"883 210 OFFCURVE",
"916 274 OFFCURVE",
"916 346 CURVE SMOOTH",
"916 443 OFFCURVE",
"860 515 OFFCURVE",
"753 515 CURVE SMOOTH",
"646 515 OFFCURVE",
"590 443 OFFCURVE",
"590 346 CURVE SMOOTH",
"590 277 OFFCURVE",
"623 215 OFFCURVE",
"691 169 CURVE",
"691 165 LINE",
"672 161 OFFCURVE",
"654 159 OFFCURVE",
"634 159 CURVE SMOOTH",
"544 159 OFFCURVE",
"501 197 OFFCURVE",
"501 336 CURVE",
"416 336 LINE",
"416 244 LINE SMOOTH",
"416 120 OFFCURVE",
"369 71 OFFCURVE",
"286 71 CURVE SMOOTH",
"206 71 OFFCURVE",
"155 126 OFFCURVE",
"155 264 CURVE SMOOTH",
"155 423 OFFCURVE",
"224 512 OFFCURVE",
"355 512 CURVE SMOOTH",
"375 512 OFFCURVE",
"398 509 OFFCURVE",
"419 503 CURVE",
"419 584 LINE",
"400 590 OFFCURVE",
"377 593 OFFCURVE",
"348 593 CURVE SMOOTH"
);
},
{
closed = 1;
nodes = (
"803 434 OFFCURVE",
"830 399 OFFCURVE",
"830 347 CURVE SMOOTH",
"830 290 OFFCURVE",
"808 241 OFFCURVE",
"772 208 CURVE",
"707 237 OFFCURVE",
"676 287 OFFCURVE",
"676 347 CURVE SMOOTH",
"676 399 OFFCURVE",
"703 434 OFFCURVE",
"753 434 CURVE SMOOTH"
);
}
);
width = 1030;
}
);
leftKerningGroup = u1C13;
note = u1C18;
unicode = 1C18;
},
{
glyphname = uni1C4D;
lastChange = "2017-09-18 13:29:20 +0000";
layers = (
{
layerId = "677D40D0-0324-4315-A4A8-9988F2BAD02F";
paths = (
{
closed = 1;
nodes = (
"524 340 LINE",
"440 340 LINE",
"434 428 OFFCURVE",
"413 512 OFFCURVE",
"375 593 CURVE",
"318 578 OFFCURVE",
"264 571 OFFCURVE",
"211 571 CURVE SMOOTH",
"148 571 OFFCURVE",
"93 578 OFFCURVE",
"47 593 CURVE",
"47 515 LINE",
"89 499 OFFCURVE",
"144 491 OFFCURVE",
"211 491 CURVE SMOOTH",
"251 491 OFFCURVE",
"285 494 OFFCURVE",
"312 499 CURVE",
"335 448 OFFCURVE",
"349 395 OFFCURVE",
"354 340 CURVE",
"84 340 LINE",
"84 265 LINE",
"355 265 LINE",
"351 166 OFFCURVE",
"325 86 OFFCURVE",
"270 0 CURVE",
"366 0 LINE",
"412 75 OFFCURVE",
"437 163 OFFCURVE",
"440 265 CURVE",
"524 265 LINE"
);
}
);
width = 564;
}
);
note = u1C4D;
unicode = 1C4D;
},
{
glyphname = uni1C4E;
lastChange = "2017-09-18 13:29:20 +0000";
layers = (
{
layerId = "677D40D0-0324-4315-A4A8-9988F2BAD02F";
paths = (
{
closed = 1;
nodes = (
"524 405 LINE",
"432 405 LINE",
"422 470 OFFCURVE",
"403 533 OFFCURVE",
"375 593 CURVE",
"318 578 OFFCURVE",
"264 571 OFFCURVE",
"211 571 CURVE SMOOTH",
"148 571 OFFCURVE",
"93 578 OFFCURVE",
"47 593 CURVE",
"47 515 LINE",
"89 499 OFFCURVE",
"144 491 OFFCURVE",
"211 491 CURVE SMOOTH",
"251 491 OFFCURVE",
"285 494 OFFCURVE",
"312 499 CURVE",
"327 465 OFFCURVE",
"337 434 OFFCURVE",
"344 405 CURVE",
"84 405 LINE",
"84 335 LINE",
"354 335 LINE",
"355 318 OFFCURVE",
"356 304 OFFCURVE",
"356 295 CURVE SMOOTH",
"356 279 OFFCURVE",
"355 267 OFFCURVE",
"355 260 CURVE",
"84 260 LINE",
"84 190 LINE",
"347 190 LINE",
"335 125 OFFCURVE",
"310 61 OFFCURVE",
"270 0 CURVE",
"366 0 LINE",
"401 57 OFFCURVE",
"424 120 OFFCURVE",
"434 190 CURVE",
"524 190 LINE",
"524 260 LINE",
"440 260 LINE",
"440 272 OFFCURVE",
"441 283 OFFCURVE",
"441 295 CURVE SMOOTH",
"441 313 OFFCURVE",
"440 326 OFFCURVE",
"440 335 CURVE",
"524 335 LINE"
);
}
);
width = 564;
}
);
note = u1C4E;
unicode = 1C4E;
},
{
glyphname = uni1C1F;
lastChange = "2017-09-18 13:29:20 +0000";
layers = (
{
layerId = "677D40D0-0324-4315-A4A8-9988F2BAD02F";
paths = (
{
closed = 1;
nodes = (
"143 502 OFFCURVE",
"70 394 OFFCURVE",
"70 242 CURVE SMOOTH",
"70 95 OFFCURVE",
"173 -13 OFFCURVE",
"327 -13 CURVE SMOOTH",
"479 -13 OFFCURVE",
"584 94 OFFCURVE",
"584 242 CURVE SMOOTH",
"584 394 OFFCURVE",
"509 501 OFFCURVE",
"327 597 CURVE"
);
},
{
closed = 1;
nodes = (
"179 382 OFFCURVE",
"229 442 OFFCURVE",
"327 502 CURVE",
"425 442 OFFCURVE",
"475 382 OFFCURVE",
"491 308 CURVE",
"162 308 LINE"
);
},
{
closed = 1;
nodes = (
"497 141 OFFCURVE",
"431 69 OFFCURVE",
"327 69 CURVE SMOOTH",
"222 69 OFFCURVE",
"156 141 OFFCURVE",
"155 239 CURVE",
"498 239 LINE"
);
}
);
width = 654;
}
);
leftKerningGroup = u1C13;
note = u1C1F;
rightKerningGroup = u1C13;
unicode = 1C1F;
},
{
glyphname = uni1C1F_1C24;
lastChange = "2017-09-18 13:29:20 +0000";
layers = (
{
layerId = "677D40D0-0324-4315-A4A8-9988F2BAD02F";
paths = (
{
closed = 1;
nodes = (
"775 389 OFFCURVE",
"783 347 OFFCURVE",
"783 305 CURVE SMOOTH",
"783 251 OFFCURVE",
"769 197 OFFCURVE",
"740 144 CURVE",
"737 145 LINE",
"712 295 OFFCURVE",
"676 436 OFFCURVE",
"571 436 CURVE SMOOTH",
"557 436 OFFCURVE",
"543 434 OFFCURVE",
"531 430 CURVE",
"492 491 OFFCURVE",
"424 547 OFFCURVE",
"327 597 CURVE",
"143 502 OFFCURVE",
"70 394 OFFCURVE",
"70 242 CURVE SMOOTH",
"70 95 OFFCURVE",
"173 -13 OFFCURVE",
"327 -13 CURVE SMOOTH",
"479 -13 OFFCURVE",
"584 94 OFFCURVE",
"584 242 CURVE SMOOTH",
"584 282 OFFCURVE",
"578 320 OFFCURVE",
"567 358 CURVE",
"571 358 LINE SMOOTH",
"623 358 OFFCURVE",
"658 198 OFFCURVE",
"677 86 CURVE",
"762 58 LINE",
"834 155 OFFCURVE",
"863 229 OFFCURVE",
"863 326 CURVE SMOOTH",
"863 371 OFFCURVE",
"855 415 OFFCURVE",
"841 459 CURVE",
"759 431 LINE"
);
},
{
closed = 1;
nodes = (
"179 382 OFFCURVE",
"229 442 OFFCURVE",
"327 502 CURVE",
"425 442 OFFCURVE",
"475 382 OFFCURVE",
"491 308 CURVE",
"162 308 LINE"
);
},
{
closed = 1;
nodes = (
"497 141 OFFCURVE",
"431 69 OFFCURVE",
"327 69 CURVE SMOOTH",
"222 69 OFFCURVE",
"156 141 OFFCURVE",
"155 239 CURVE",
"498 239 LINE"
);
}
);
width = 908;
}
);
leftKerningGroup = u1C13;
note = u1C1F_1C24;
rightKerningGroup = u1C13_1C25_1C24;
},
{
glyphname = uni1C22;
lastChange = "2017-09-18 13:29:20 +0000";
layers = (
{
layerId = "677D40D0-0324-4315-A4A8-9988F2BAD02F";
paths = (
{
closed = 1;
nodes = (
"1028 592 OFFCURVE",
"1000 596 OFFCURVE",
"968 596 CURVE SMOOTH",
"910 596 OFFCURVE",
"858 583 OFFCURVE",
"813 557 CURVE",
"761 583 OFFCURVE",
"702 596 OFFCURVE",
"635 596 CURVE SMOOTH",
"572 596 OFFCURVE",
"517 584 OFFCURVE",
"470 561 CURVE",
"436 584 OFFCURVE",
"396 596 OFFCURVE",
"348 596 CURVE SMOOTH",
"172 596 OFFCURVE",
"70 462 OFFCURVE",
"70 257 CURVE SMOOTH",
"70 165 OFFCURVE",
"85 80 OFFCURVE",
"115 0 CURVE",
"206 0 LINE",
"172 87 OFFCURVE",
"155 173 OFFCURVE",
"155 259 CURVE SMOOTH",
"155 431 OFFCURVE",
"231 515 OFFCURVE",
"344 515 CURVE SMOOTH",
"356 515 OFFCURVE",
"367 514 OFFCURVE",
"376 512 CURVE",
"376 509 LINE",
"315 461 OFFCURVE",
"285 401 OFFCURVE",
"285 328 CURVE SMOOTH",
"285 224 OFFCURVE",
"344 154 OFFCURVE",
"446 154 CURVE SMOOTH",
"547 154 OFFCURVE",
"605 224 OFFCURVE",
"605 328 CURVE SMOOTH",
"605 400 OFFCURVE",
"582 459 OFFCURVE",
"535 506 CURVE",
"564 512 OFFCURVE",
"597 515 OFFCURVE",
"635 515 CURVE SMOOTH",
"670 515 OFFCURVE",
"704 511 OFFCURVE",
"737 504 CURVE",
"689 458 OFFCURVE",
"665 399 OFFCURVE",
"665 328 CURVE SMOOTH",
"665 224 OFFCURVE",
"726 154 OFFCURVE",
"834 154 CURVE SMOOTH",
"932 154 OFFCURVE",
"985 224 OFFCURVE",
"985 328 CURVE SMOOTH",
"985 399 OFFCURVE",
"956 458 OFFCURVE",
"899 506 CURVE",
"899 508 LINE",
"917 513 OFFCURVE",
"937 515 OFFCURVE",
"960 515 CURVE SMOOTH",
"998 515 OFFCURVE",
"1028 511 OFFCURVE",
"1051 504 CURVE",
"1051 585 LINE"
);
},
{
closed = 1;
nodes = (
"397 235 OFFCURVE",
"369 270 OFFCURVE",
"369 326 CURVE SMOOTH",
"369 396 OFFCURVE",
"400 447 OFFCURVE",
"462 480 CURVE",
"503 448 OFFCURVE",
"523 391 OFFCURVE",
"523 330 CURVE SMOOTH",
"523 270 OFFCURVE",
"495 235 OFFCURVE",
"446 235 CURVE SMOOTH"
);
},
{
closed = 1;
nodes = (
"901 270 OFFCURVE",
"875 235 OFFCURVE",
"824 235 CURVE SMOOTH",
"775 235 OFFCURVE",
"747 271 OFFCURVE",
"747 328 CURVE SMOOTH",
"747 393 OFFCURVE",
"771 443 OFFCURVE",
"817 477 CURVE",
"873 443 OFFCURVE",
"901 394 OFFCURVE",
"901 327 CURVE SMOOTH"
);
}
);
width = 1071;
}
);
note = u1C22;
unicode = 1C22;
},
{
glyphname = uni1C1A;
lastChange = "2017-09-18 13:29:20 +0000";
layers = (
{
layerId = "677D40D0-0324-4315-A4A8-9988F2BAD02F";
paths = (
{
closed = 1;
nodes = (
"113 271 OFFCURVE",
"70 219 OFFCURVE",
"70 149 CURVE SMOOTH",
"70 40 OFFCURVE",
"135 -14 OFFCURVE",
"282 -14 CURVE SMOOTH",
"354 -14 OFFCURVE",
"417 -1 OFFCURVE",
"472 24 CURVE",
"438 100 LINE",
"392 77 OFFCURVE",
"340 66 OFFCURVE",
"282 66 CURVE SMOOTH",
"197 66 OFFCURVE",
"155 94 OFFCURVE",
"155 149 CURVE SMOOTH",
"155 257 OFFCURVE",
"323 268 OFFCURVE",
"417 278 CURVE",
"417 362 LINE",
"368 351 OFFCURVE",
"321 345 OFFCURVE",
"278 345 CURVE SMOOTH",
"208 345 OFFCURVE",
"173 373 OFFCURVE",
"173 429 CURVE SMOOTH",
"173 485 OFFCURVE",
"213 513 OFFCURVE",
"294 513 CURVE SMOOTH",
"340 513 OFFCURVE",
"385 507 OFFCURVE",
"429 496 CURVE",
"429 580 LINE",
"388 588 OFFCURVE",
"343 593 OFFCURVE",
"294 593 CURVE SMOOTH",
"167 593 OFFCURVE",
"88 531 OFFCURVE",
"88 429 CURVE SMOOTH",
"88 356 OFFCURVE",
"124 312 OFFCURVE",
"197 297 CURVE",
"197 293 LINE"
);
}
);
width = 526;
}
);
note = u1C1A;
unicode = 1C1A;
},
{
glyphname = uni1C35;
lastChange = "2017-09-18 13:29:20 +0000";
layers = (
{
layerId = "677D40D0-0324-4315-A4A8-9988F2BAD02F";
paths = (
{
closed = 1;
nodes = (
"73 404 OFFCURVE",
"55 342 OFFCURVE",
"55 277 CURVE SMOOTH",
"55 217 OFFCURVE",
"70 155 OFFCURVE",
"99 99 CURVE",
"175 135 LINE",
"147 181 OFFCURVE",
"134 230 OFFCURVE",
"134 279 CURVE SMOOTH",
"134 326 OFFCURVE",
"148 373 OFFCURVE",
"175 414 CURVE",
"111 451 LINE"
);
}
);
width = 180;
}
);
note = u1C35;
unicode = 1C35;
},
{
glyphname = uni1C34;
lastChange = "2017-09-18 13:29:20 +0000";
layers = (
{
layerId = "677D40D0-0324-4315-A4A8-9988F2BAD02F";
paths = (
{
closed = 1;
nodes = (
"321 56 OFFCURVE",
"355 152 OFFCURVE",
"355 276 CURVE SMOOTH",
"355 397 OFFCURVE",
"322 508 OFFCURVE",
"257 607 CURVE",
"184 559 LINE",
"246 471 OFFCURVE",
"277 375 OFFCURVE",
"277 270 CURVE SMOOTH",
"277 170 OFFCURVE",
"246 77 OFFCURVE",
"184 -9 CURVE",
"241 -48 LINE"
);
},
{
closed = 1;
nodes = (
"73 404 OFFCURVE",
"55 342 OFFCURVE",
"55 277 CURVE SMOOTH",
"55 217 OFFCURVE",
"70 155 OFFCURVE",
"99 99 CURVE",
"175 135 LINE",
"147 181 OFFCURVE",
"134 230 OFFCURVE",
"134 279 CURVE SMOOTH",
"134 326 OFFCURVE",
"148 373 OFFCURVE",
"175 414 CURVE",
"111 451 LINE"
);
}
);
width = 385;
}
);
note = u1C34;
rightKerningGroup = u1C34;
unicode = 1C34;
},
{
glyphname = uni1C25;
lastChange = "2017-09-18 13:29:20 +0000";
layers = (
{
layerId = "677D40D0-0324-4315-A4A8-9988F2BAD02F";
paths = (
{
closed = 1;
nodes = (
"87 435 OFFCURVE",
"102 383 OFFCURVE",
"102 316 CURVE SMOOTH",
"102 239 OFFCURVE",
"82 161 OFFCURVE",
"40 82 CURVE",
"99 50 LINE",
"154 141 OFFCURVE",
"182 230 OFFCURVE",
"182 318 CURVE SMOOTH",
"182 396 OFFCURVE",
"161 468 OFFCURVE",
"118 535 CURVE",
"50 497 LINE"
);
}
);
width = 230;
}
);
note = u1C25;
unicode = 1C25;
},
{
glyphname = uni1C24;
lastChange = "2017-09-18 13:29:20 +0000";
layers = (
{
layerId = "677D40D0-0324-4315-A4A8-9988F2BAD02F";
paths = (
{
closed = 1;
nodes = (
"213 452 OFFCURVE",
"221 410 OFFCURVE",
"221 368 CURVE SMOOTH",
"221 314 OFFCURVE",
"207 260 OFFCURVE",
"178 207 CURVE",
"175 208 LINE",
"155 323 OFFCURVE",
"113 415 OFFCURVE",
"29 507 CURVE",
"-30 449 LINE",
"57 359 OFFCURVE",
"95 275 OFFCURVE",
"123 146 CURVE",
"200 121 LINE",
"272 218 OFFCURVE",
"301 292 OFFCURVE",
"301 389 CURVE SMOOTH",
"301 434 OFFCURVE",
"293 478 OFFCURVE",
"279 522 CURVE",
"197 494 LINE"
);
}
);
width = 346;
}
);
note = u1C24;
unicode = 1C24;
},
{
glyphname = uni1C26;
lastChange = "2017-09-18 13:29:20 +0000";
layers = (
{
layerId = "677D40D0-0324-4315-A4A8-9988F2BAD02F";
paths = (
{
closed = 1;
nodes = (
"188 446 OFFCURVE",
"222 371 OFFCURVE",
"271 312 CURVE",
"334 361 LINE",
"285 417 OFFCURVE",
"247 502 OFFCURVE",
"239 582 CURVE",
"136 582 LINE",
"55 486 OFFCURVE",
"20 397 OFFCURVE",
"20 282 CURVE SMOOTH",
"20 163 OFFCURVE",
"63 52 OFFCURVE",
"149 -49 CURVE",
"213 8 LINE",
"135 95 OFFCURVE",
"98 193 OFFCURVE",
"98 288 CURVE SMOOTH",
"98 370 OFFCURVE",
"124 447 OFFCURVE",
"174 520 CURVE",
"178 520 LINE"
);
}
);
width = 354;
}
);
note = u1C26;
unicode = 1C26;
},
{
glyphname = uni1C27;
lastChange = "2017-09-18 13:29:20 +0000";
layers = (
{
layerId = "677D40D0-0324-4315-A4A8-9988F2BAD02F";
paths = (
{
closed = 1;
nodes = (
"302 568 LINE",
"353 631 LINE",
"180 776 LINE",
"-1 575 LINE",
"154 437 OFFCURVE",
"232 281 OFFCURVE",
"232 109 CURVE SMOOTH",
"232 -27 OFFCURVE",
"181 -97 OFFCURVE",
"102 -97 CURVE SMOOTH",
"84 -97 OFFCURVE",
"68 -92 OFFCURVE",
"54 -83 CURVE",
"18 -152 LINE",
"39 -168 OFFCURVE",
"66 -176 OFFCURVE",
"98 -176 CURVE SMOOTH",
"241 -176 OFFCURVE",
"315 -52 OFFCURVE",
"315 111 CURVE SMOOTH",
"315 277 OFFCURVE",
"246 432 OFFCURVE",
"109 575 CURVE",
"188 664 LINE"
);
}
);
width = 353;
}
);
note = u1C27;
rightKerningGroup = u1C27;
unicode = 1C27;
},
{
glyphname = uni1C28;
lastChange = "2017-09-18 13:29:20 +0000";
layers = (
{
layerId = "677D40D0-0324-4315-A4A8-9988F2BAD02F";
paths = (
{
closed = 1;
nodes = (
"104 503 OFFCURVE",
"70 407 OFFCURVE",
"70 283 CURVE SMOOTH",
"70 162 OFFCURVE",
"103 51 OFFCURVE",
"168 -48 CURVE",
"241 0 LINE",
"179 88 OFFCURVE",
"148 184 OFFCURVE",
"148 289 CURVE SMOOTH",
"148 389 OFFCURVE",
"179 482 OFFCURVE",
"241 568 CURVE",
"184 607 LINE"
);
}
);
width = 251;
}
);
note = u1C28;
rightKerningGroup = u1C28;
unicode = 1C28;
},
{
glyphname = uni1C29;
lastChange = "2017-09-18 13:29:20 +0000";
layers = (
{
layerId = "677D40D0-0324-4315-A4A8-9988F2BAD02F";
paths = (
{
closed = 1;
nodes = (
"158 91 OFFCURVE",
"134 178 OFFCURVE",
"134 298 CURVE SMOOTH",
"134 449 OFFCURVE",
"177 582 OFFCURVE",
"263 697 CURVE",
"328 685 OFFCURVE",
"395 679 OFFCURVE",
"464 679 CURVE SMOOTH",
"609 679 OFFCURVE",
"728 694 OFFCURVE",
"820 725 CURVE",
"820 804 LINE",
"723 774 OFFCURVE",
"604 760 OFFCURVE",
"464 760 CURVE SMOOTH",
"387 760 OFFCURVE",
"308 767 OFFCURVE",
"224 781 CURVE",
"109 629 OFFCURVE",
"55 482 OFFCURVE",
"55 291 CURVE SMOOTH",
"55 159 OFFCURVE",
"83 54 OFFCURVE",
"143 -48 CURVE",
"215 -7 LINE"
);
}
);
width = 200;
}
);
note = u1C29;
rightKerningGroup = u1C29;
unicode = 1C29;
},
{
glyphname = uni1C2A;
lastChange = "2017-09-18 13:29:20 +0000";
layers = (
{
layerId = "677D40D0-0324-4315-A4A8-9988F2BAD02F";
paths = (
{
closed = 1;
nodes = (
"-55 -97 OFFCURVE",
"-69 -93 OFFCURVE",
"-84 -83 CURVE",
"-120 -152 LINE",
"-97 -169 OFFCURVE",
"-72 -176 OFFCURVE",
"-40 -176 CURVE SMOOTH",
"99 -176 OFFCURVE",
"204 -42 OFFCURVE",
"204 170 CURVE SMOOTH",
"204 337 OFFCURVE",
"164 489 OFFCURVE",
"80 608 CURVE",
"8 567 LINE",
"84 453 OFFCURVE",
"121 317 OFFCURVE",
"121 173 CURVE SMOOTH",
"121 5 OFFCURVE",
"56 -97 OFFCURVE",
"-36 -97 CURVE SMOOTH"
);
}
);
width = 279;
}
);
leftKerningGroup = u1C2A;
note = u1C2A;
rightKerningGroup = u1C13_1C25_1C24;
unicode = 1C2A;
},
{
glyphname = uni1C2B;
lastChange = "2017-09-18 13:29:20 +0000";
layers = (
{
layerId = "677D40D0-0324-4315-A4A8-9988F2BAD02F";
paths = (
{
closed = 1;
nodes = (
"96 596 OFFCURVE",
"48 579 OFFCURVE",
"2 542 CURVE",
"47 474 LINE",
"85 504 OFFCURVE",
"115 516 OFFCURVE",
"152 516 CURVE SMOOTH",
"188 516 OFFCURVE",
"206 495 OFFCURVE",
"206 457 CURVE SMOOTH",
"206 399 OFFCURVE",
"165 357 OFFCURVE",
"34 280 CURVE",
"77 209 LINE",
"228 304 OFFCURVE",
"289 368 OFFCURVE",
"289 457 CURVE SMOOTH",
"289 535 OFFCURVE",
"243 596 OFFCURVE",
"152 596 CURVE SMOOTH"
);
},
{
closed = 1;
nodes = (
"45 -97 OFFCURVE",
"31 -93 OFFCURVE",
"16 -83 CURVE",
"-20 -152 LINE",
"3 -169 OFFCURVE",
"28 -176 OFFCURVE",
"60 -176 CURVE SMOOTH",
"193 -176 OFFCURVE",
"294 -93 OFFCURVE",
"294 73 CURVE SMOOTH",
"294 164 OFFCURVE",
"262 281 OFFCURVE",
"201 359 CURVE",
"136 305 LINE",
"185 241 OFFCURVE",
"211 149 OFFCURVE",
"211 73 CURVE SMOOTH",
"211 -46 OFFCURVE",
"150 -97 OFFCURVE",
"64 -97 CURVE SMOOTH"
);
}
);
width = 369;
}
);
leftKerningGroup = u1C2B;
note = u1C2B;
unicode = 1C2B;
},
{
glyphname = uni1C25_1C24;
lastChange = "2017-09-18 13:29:20 +0000";
layers = (
{
layerId = "677D40D0-0324-4315-A4A8-9988F2BAD02F";
paths = (
{
closed = 1;
nodes = (
"-383 425 LINE",
"-375 373 OFFCURVE",
"-371 309 OFFCURVE",
"-371 250 CURVE SMOOTH",
"-371 206 OFFCURVE",
"-373 165 OFFCURVE",
"-376 125 CURVE SMOOTH",
"-379 85 OFFCURVE",
"-385 45 OFFCURVE",
"-392 4 CURVE",
"-323 -11 LINE",
"-300 84 OFFCURVE",
"-291 165 OFFCURVE",
"-291 247 CURVE SMOOTH",
"-291 285 OFFCURVE",
"-293 322 OFFCURVE",
"-296 359 CURVE",
"-290 361 LINE",
"-273 474 LINE"
);
},
{
closed = 1;
nodes = (
"-132 468 OFFCURVE",
"-125 431 OFFCURVE",
"-125 388 CURVE SMOOTH",
"-125 360 OFFCURVE",
"-128 334 OFFCURVE",
"-135 308 CURVE SMOOTH",
"-142 282 OFFCURVE",
"-153 256 OFFCURVE",
"-168 226 CURVE",
"-171 227 LINE",
"-186 316 OFFCURVE",
"-215 395 OFFCURVE",
"-273 474 CURVE",
"-338 425 LINE",
"-307 386 OFFCURVE",
"-284 348 OFFCURVE",
"-266 305 CURVE SMOOTH",
"-248 262 OFFCURVE",
"-235 218 OFFCURVE",
"-224 165 CURVE",
"-146 141 LINE",
"-111 188 OFFCURVE",
"-86 230 OFFCURVE",
"-69 273 CURVE SMOOTH",
"-52 316 OFFCURVE",
"-45 359 OFFCURVE",
"-45 409 CURVE SMOOTH",
"-45 457 OFFCURVE",
"-53 499 OFFCURVE",
"-67 541 CURVE",
"-149 514 LINE"
);
}
);
width = 0;
}
);
},
{
glyphname = uni1C29.wide;
lastChange = "2017-09-18 13:29:20 +0000";
layers = (
{
layerId = "677D40D0-0324-4315-A4A8-9988F2BAD02F";
paths = (
{
closed = 1;
nodes = (
"158 91 OFFCURVE",
"134 178 OFFCURVE",
"134 298 CURVE SMOOTH",
"134 451 OFFCURVE",
"192 586 OFFCURVE",
"310 704 CURVE",
"403 688 OFFCURVE",
"506 679 OFFCURVE",
"618 679 CURVE SMOOTH",
"812 679 OFFCURVE",
"971 700 OFFCURVE",
"1095 741 CURVE",
"1095 820 LINE",
"957 779 OFFCURVE",
"813 760 OFFCURVE",
"618 760 CURVE SMOOTH",
"505 760 OFFCURVE",
"393 769 OFFCURVE",
"281 786 CURVE",
"128 632 OFFCURVE",
"55 483 OFFCURVE",
"55 291 CURVE SMOOTH",
"55 159 OFFCURVE",
"83 54 OFFCURVE",
"143 -48 CURVE",
"215 -7 LINE"
);
}
);
width = 200;
}
);
note = u1C29.long;
},
{
glyphname = uni1C29.short;
lastChange = "2017-09-18 13:29:20 +0000";
layers = (
{
layerId = "677D40D0-0324-4315-A4A8-9988F2BAD02F";
paths = (
{
closed = 1;
nodes = (
"158 101 OFFCURVE",
"134 194 OFFCURVE",
"134 326 CURVE SMOOTH",
"134 463 OFFCURVE",
"160 586 OFFCURVE",
"212 695 CURVE",
"273 685 OFFCURVE",
"338 679 OFFCURVE",
"407 679 CURVE SMOOTH",
"508 679 OFFCURVE",
"593 689 OFFCURVE",
"661 709 CURVE",
"661 788 LINE",
"588 769 OFFCURVE",
"504 760 OFFCURVE",
"410 760 CURVE SMOOTH",
"330 760 OFFCURVE",
"248 767 OFFCURVE",
"166 781 CURVE",
"91 644 OFFCURVE",
"54 479 OFFCURVE",
"54 324 CURVE SMOOTH",
"54 184 OFFCURVE",
"84 60 OFFCURVE",
"143 -48 CURVE",
"215 -7 LINE"
);
}
);
width = 200;
}
);
note = u1C29.short;
},
{
glyphname = uni1C40;
lastChange = "2017-09-18 13:29:20 +0000";
layers = (
{
layerId = "677D40D0-0324-4315-A4A8-9988F2BAD02F";
paths = (
{
closed = 1;
nodes = (
"124 597 OFFCURVE",
"55 487 OFFCURVE",
"55 291 CURVE SMOOTH",
"55 96 OFFCURVE",
"124 -14 OFFCURVE",
"245 -14 CURVE SMOOTH",
"366 -14 OFFCURVE",
"435 96 OFFCURVE",
"435 291 CURVE SMOOTH",
"435 487 OFFCURVE",
"366 597 OFFCURVE",
"245 597 CURVE SMOOTH"
);
},
{
closed = 1;
nodes = (
"327 517 OFFCURVE",
"349 399 OFFCURVE",
"349 291 CURVE SMOOTH",
"349 182 OFFCURVE",
"326 66 OFFCURVE",
"245 66 CURVE SMOOTH",
"164 66 OFFCURVE",
"141 180 OFFCURVE",
"141 291 CURVE SMOOTH",
"141 396 OFFCURVE",
"162 517 OFFCURVE",
"245 517 CURVE SMOOTH"
);
}
);
width = 490;
}
);
note = u1C40;
unicode = 1C40;
},
{
glyphname = uni1C41;
lastChange = "2017-09-18 13:29:20 +0000";
layers = (
{
layerId = "677D40D0-0324-4315-A4A8-9988F2BAD02F";
paths = (
{
closed = 1;
nodes = (
"327 170 OFFCURVE",
"292 98 OFFCURVE",
"232 28 CURVE",
"293 -14 LINE",
"370 75 OFFCURVE",
"408 184 OFFCURVE",
"408 310 CURVE SMOOTH",
"408 458 OFFCURVE",
"355 597 OFFCURVE",
"230 597 CURVE SMOOTH",
"128 597 OFFCURVE",
"65 501 OFFCURVE",
"65 383 CURVE SMOOTH",
"65 269 OFFCURVE",
"127 173 OFFCURVE",
"229 173 CURVE SMOOTH",
"273 173 OFFCURVE",
"313 205 OFFCURVE",
"332 246 CURVE",
"336 246 LINE"
);
},
{
closed = 1;
nodes = (
"280 517 OFFCURVE",
"313 453 OFFCURVE",
"313 383 CURVE SMOOTH",
"313 318 OFFCURVE",
"283 249 OFFCURVE",
"230 249 CURVE SMOOTH",
"179 249 OFFCURVE",
"147 314 OFFCURVE",
"147 383 CURVE SMOOTH",
"147 448 OFFCURVE",
"176 517 OFFCURVE",
"231 517 CURVE SMOOTH"
);
}
);
width = 490;
}
);
note = u1C41;
unicode = 1C41;
},
{
glyphname = uni1C42;
lastChange = "2017-09-18 13:29:20 +0000";
layers = (
{
layerId = "677D40D0-0324-4315-A4A8-9988F2BAD02F";
paths = (
{
closed = 1;
nodes = (
"114 493 OFFCURVE",
"160 500 OFFCURVE",
"210 500 CURVE SMOOTH",
"302 500 OFFCURVE",
"423 470 OFFCURVE",
"423 403 CURVE SMOOTH",
"423 333 OFFCURVE",
"290 297 OFFCURVE",
"183 297 CURVE SMOOTH",
"160 297 OFFCURVE",
"136 298 OFFCURVE",
"115 302 CURVE",
"67 242 LINE",
"361 1 LINE",
"409 60 LINE",
"193 224 LINE",
"195 227 LINE",
"356 227 OFFCURVE",
"509 288 OFFCURVE",
"509 408 CURVE SMOOTH",
"509 526 OFFCURVE",
"355 580 OFFCURVE",
"209 580 CURVE SMOOTH",
"150 580 OFFCURVE",
"97 571 OFFCURVE",
"50 552 CURVE",
"73 478 LINE"
);
}
);
width = 561;
}
);
note = u1C42;
unicode = 1C42;
},
{
glyphname = uni1C43;
lastChange = "2017-09-18 13:29:20 +0000";
layers = (
{
layerId = "677D40D0-0324-4315-A4A8-9988F2BAD02F";
paths = (
{
closed = 1;
nodes = (
"125 511 OFFCURVE",
"169 517 OFFCURVE",
"220 517 CURVE SMOOTH",
"299 517 OFFCURVE",
"412 500 OFFCURVE",
"412 451 CURVE SMOOTH",
"412 428 OFFCURVE",
"386 409 OFFCURVE",
"335 392 CURVE",
"299 401 OFFCURVE",
"261 406 OFFCURVE",
"220 406 CURVE SMOOTH",
"163 406 OFFCURVE",
"111 397 OFFCURVE",
"65 381 CURVE",
"89 307 LINE",
"125 320 OFFCURVE",
"170 326 OFFCURVE",
"221 326 CURVE SMOOTH",
"305 326 OFFCURVE",
"412 307 OFFCURVE",
"412 257 CURVE SMOOTH",
"412 215 OFFCURVE",
"320 194 OFFCURVE",
"242 194 CURVE SMOOTH",
"214 194 OFFCURVE",
"182 197 OFFCURVE",
"158 202 CURVE",
"112 133 LINE",
"336 -18 LINE",
"378 45 LINE",
"237 128 LINE",
"238 131 LINE",
"246 129 OFFCURVE",
"255 129 OFFCURVE",
"265 129 CURVE SMOOTH",
"373 129 OFFCURVE",
"496 172 OFFCURVE",
"496 257 CURVE SMOOTH",
"496 299 OFFCURVE",
"470 333 OFFCURVE",
"419 358 CURVE",
"470 383 OFFCURVE",
"496 415 OFFCURVE",
"496 451 CURVE SMOOTH",
"496 539 OFFCURVE",
"397 597 OFFCURVE",
"220 597 CURVE SMOOTH",
"163 597 OFFCURVE",
"111 589 OFFCURVE",
"65 572 CURVE",
"89 498 LINE"
);
}
);
width = 576;
}
);
note = u1C43;
unicode = 1C43;
},
{
glyphname = uni1C44;
lastChange = "2017-09-18 13:29:20 +0000";
layers = (
{
layerId = "677D40D0-0324-4315-A4A8-9988F2BAD02F";
paths = (
{
closed = 1;
nodes = (
"534 229 OFFCURVE",
"462 217 OFFCURVE",
"380 217 CURVE SMOOTH",
"297 217 OFFCURVE",
"224 229 OFFCURVE",
"159 255 CURVE",
"209 391 LINE",
"261 375 OFFCURVE",
"319 367 OFFCURVE",
"382 367 CURVE SMOOTH",
"453 367 OFFCURVE",
"518 378 OFFCURVE",
"576 399 CURVE",
"552 477 LINE",
"501 458 OFFCURVE",
"444 448 OFFCURVE",
"379 448 CURVE SMOOTH",
"303 448 OFFCURVE",
"230 462 OFFCURVE",
"159 490 CURVE",
"55 212 LINE",
"152 162 OFFCURVE",
"262 136 OFFCURVE",
"385 136 CURVE SMOOTH",
"474 136 OFFCURVE",
"553 150 OFFCURVE",
"623 177 CURVE",
"597 255 LINE"
);
}
);
width = 678;
}
);
note = u1C44;
unicode = 1C44;
},
{
glyphname = uni1C45;
lastChange = "2017-09-18 13:29:20 +0000";
layers = (
{
layerId = "677D40D0-0324-4315-A4A8-9988F2BAD02F";
paths = (
{
closed = 1;
nodes = (
"280 291 LINE SMOOTH",
"245 257 OFFCURVE",
"213 222 OFFCURVE",
"185 184 CURVE",
"182 186 LINE",
"195 220 OFFCURVE",
"202 263 OFFCURVE",
"202 314 CURVE SMOOTH",
"202 405 OFFCURVE",
"176 487 OFFCURVE",
"125 560 CURVE",
"55 516 LINE",
"104 445 OFFCURVE",
"128 380 OFFCURVE",
"128 300 CURVE SMOOTH",
"128 208 OFFCURVE",
"109 147 OFFCURVE",
"64 81 CURVE",
"119 26 LINE",
"395 292 LINE SMOOTH",
"431 326 OFFCURVE",
"462 361 OFFCURVE",
"490 399 CURVE",
"493 397 LINE",
"480 363 OFFCURVE",
"473 320 OFFCURVE",
"473 269 CURVE SMOOTH",
"473 178 OFFCURVE",
"499 96 OFFCURVE",
"550 23 CURVE",
"620 67 LINE",
"571 138 OFFCURVE",
"547 203 OFFCURVE",
"547 283 CURVE SMOOTH",
"547 375 OFFCURVE",
"566 436 OFFCURVE",
"611 502 CURVE",
"556 557 LINE"
);
}
);
width = 675;
}
);
note = u1C45;
unicode = 1C45;
},
{
glyphname = uni1C46;
lastChange = "2017-09-18 13:29:20 +0000";
layers = (
{
layerId = "677D40D0-0324-4315-A4A8-9988F2BAD02F";
paths = (
{
closed = 1;
nodes = (
"495 430 LINE",
"531 504 LINE",
"344 596 LINE",
"221 361 LINE",
"336 300 OFFCURVE",
"435 240 OFFCURVE",
"435 150 CURVE SMOOTH",
"435 101 OFFCURVE",
"406 72 OFFCURVE",
"351 72 CURVE SMOOTH",
"259 72 OFFCURVE",
"178 114 OFFCURVE",
"78 204 CURVE",
"25 140 LINE",
"140 39 OFFCURVE",
"232 -8 OFFCURVE",
"349 -8 CURVE SMOOTH",
"458 -8 OFFCURVE",
"521 53 OFFCURVE",
"521 150 CURVE SMOOTH",
"521 240 OFFCURVE",
"474 312 OFFCURVE",
"331 393 CURVE",
"381 487 LINE"
);
}
);
width = 591;
}
);
note = u1C46;
unicode = 1C46;
},
{
glyphname = uni1C47;
lastChange = "2017-09-18 13:29:20 +0000";
layers = (
{
layerId = "677D40D0-0324-4315-A4A8-9988F2BAD02F";
paths = (
{
closed = 1;
nodes = (
"293 455 OFFCURVE",
"321 393 OFFCURVE",
"321 318 CURVE SMOOTH",
"321 238 OFFCURVE",
"289 169 OFFCURVE",
"209 89 CURVE",
"206 91 LINE",
"217 121 OFFCURVE",
"222 151 OFFCURVE",
"222 180 CURVE SMOOTH",
"222 274 OFFCURVE",
"188 356 OFFCURVE",
"100 456 CURVE",
"35 402 LINE",
"117 308 OFFCURVE",
"145 248 OFFCURVE",
"145 165 CURVE SMOOTH",
"145 129 OFFCURVE",
"138 91 OFFCURVE",
"124 52 CURVE",
"222 -6 LINE",
"355 125 OFFCURVE",
"401 216 OFFCURVE",
"401 328 CURVE SMOOTH",
"401 426 OFFCURVE",
"366 502 OFFCURVE",
"278 589 CURVE",
"213 535 LINE"
);
}
);
width = 471;
}
);
note = u1C47;
unicode = 1C47;
},
{
glyphname = uni1C48;
lastChange = "2017-09-18 13:29:20 +0000";
layers = (
{
layerId = "677D40D0-0324-4315-A4A8-9988F2BAD02F";
paths = (
{
closed = 1;
nodes = (
"438 537 OFFCURVE",
"401 542 OFFCURVE",
"362 542 CURVE SMOOTH",
"155 542 OFFCURVE",
"55 387 OFFCURVE",
"55 103 CURVE",
"131 103 LINE SMOOTH",
"283 103 OFFCURVE",
"377 79 OFFCURVE",
"459 26 CURVE",
"500 97 LINE",
"408 158 OFFCURVE",
"299 184 OFFCURVE",
"142 184 CURVE",
"152 369 OFFCURVE",
"226 462 OFFCURVE",
"362 462 CURVE SMOOTH",
"400 462 OFFCURVE",
"438 456 OFFCURVE",
"474 443 CURVE",
"474 528 LINE"
);
}
);
width = 545;
}
);
note = u1C48;
unicode = 1C48;
},
{
glyphname = uni1C49;
lastChange = "2017-09-18 13:29:20 +0000";
layers = (
{
layerId = "677D40D0-0324-4315-A4A8-9988F2BAD02F";
paths = (
{
closed = 1;
nodes = (
"449 229 LINE",
"388 281 LINE",
"414 316 OFFCURVE",
"427 359 OFFCURVE",
"427 409 CURVE SMOOTH",
"427 522 OFFCURVE",
"365 597 OFFCURVE",
"257 597 CURVE SMOOTH",
"141 597 OFFCURVE",
"70 508 OFFCURVE",
"70 343 CURVE SMOOTH",
"70 208 OFFCURVE",
"126 90 OFFCURVE",
"240 -9 CURVE",
"296 51 LINE",
"199 138 OFFCURVE",
"152 229 OFFCURVE",
"152 349 CURVE SMOOTH",
"152 461 OFFCURVE",
"186 517 OFFCURVE",
"253 517 CURVE SMOOTH",
"312 517 OFFCURVE",
"345 478 OFFCURVE",
"345 407 CURVE SMOOTH",
"345 349 OFFCURVE",
"326 312 OFFCURVE",
"279 265 CURVE",
"395 165 LINE"
);
}
);
width = 504;
}
);
note = u1C49;
unicode = 1C49;
},
{
glyphname = uni1C3D;
lastChange = "2017-09-18 13:29:20 +0000";
layers = (
{
layerId = "677D40D0-0324-4315-A4A8-9988F2BAD02F";
paths = (
{
closed = 1;
nodes = (
"484 481 LINE",
"423 537 LINE",
"262 359 LINE",
"101 537 LINE",
"40 481 LINE",
"206 297 LINE",
"40 113 LINE",
"101 58 LINE",
"262 236 LINE",
"423 58 LINE",
"484 113 LINE",
"318 297 LINE"
);
}
);
width = 524;
}
);
note = u1C3D;
unicode = 1C3D;
},
{
glyphname = uni1C3B;
lastChange = "2017-09-18 13:29:20 +0000";
layers = (
{
layerId = "677D40D0-0324-4315-A4A8-9988F2BAD02F";
paths = (
{
closed = 1;
nodes = (
"170 583 LINE",
"80 583 LINE",
"95 0 LINE",
"155 0 LINE"
);
}
);
width = 250;
}
);
note = u1C3B;
unicode = 1C3B;
},
{
glyphname = uni1C3F;
lastChange = "2017-09-18 13:29:20 +0000";
layers = (
{
layerId = "677D40D0-0324-4315-A4A8-9988F2BAD02F";
paths = (
{
closed = 1;
nodes = (
"102 471 OFFCURVE",
"133 375 OFFCURVE",
"133 270 CURVE SMOOTH",
"133 170 OFFCURVE",
"102 77 OFFCURVE",
"40 -9 CURVE",
"97 -48 LINE",
"177 56 OFFCURVE",
"211 152 OFFCURVE",
"211 276 CURVE SMOOTH",
"211 396 OFFCURVE",
"178 507 OFFCURVE",
"112 607 CURVE",
"40 559 LINE"
);
},
{
closed = 1;
nodes = (
"411 503 OFFCURVE",
"377 407 OFFCURVE",
"377 283 CURVE SMOOTH",
"377 163 OFFCURVE",
"410 52 OFFCURVE",
"476 -48 CURVE",
"548 0 LINE",
"486 88 OFFCURVE",
"455 184 OFFCURVE",
"455 289 CURVE SMOOTH",
"455 389 OFFCURVE",
"486 482 OFFCURVE",
"548 568 CURVE",
"491 607 LINE"
);
},
{
closed = 1;
nodes = (
"263 516 OFFCURVE",
"242 497 OFFCURVE",
"242 460 CURVE SMOOTH",
"242 424 OFFCURVE",
"263 404 OFFCURVE",
"295 404 CURVE SMOOTH",
"324 404 OFFCURVE",
"346 424 OFFCURVE",
"346 460 CURVE SMOOTH",
"346 497 OFFCURVE",
"324 516 OFFCURVE",
"295 516 CURVE SMOOTH"
);
},
{
closed = 1;
nodes = (
"263 166 OFFCURVE",
"242 147 OFFCURVE",
"242 110 CURVE SMOOTH",
"242 74 OFFCURVE",
"263 54 OFFCURVE",
"295 54 CURVE SMOOTH",
"324 54 OFFCURVE",
"346 74 OFFCURVE",
"346 110 CURVE SMOOTH",
"346 147 OFFCURVE",
"324 166 OFFCURVE",
"295 166 CURVE SMOOTH"
);
}
);
width = 588;
}
);
note = u1C3F;
unicode = 1C3F;
},
{
glyphname = uni25CC;
lastChange = "2017-09-18 13:29:20 +0000";
layers = (
{
layerId = "677D40D0-0324-4315-A4A8-9988F2BAD02F";
paths = (
{
closed = 1;
nodes = (
"235 504 OFFCURVE",
"226 495 OFFCURVE",
"226 476 CURVE SMOOTH",
"226 457 OFFCURVE",
"235 447 OFFCURVE",
"254 447 CURVE SMOOTH",
"274 447 OFFCURVE",
"284 457 OFFCURVE",
"284 476 CURVE SMOOTH",
"284 495 OFFCURVE",
"274 504 OFFCURVE",
"254 504 CURVE SMOOTH"
);
},
{
closed = 1;
nodes = (
"106 455 OFFCURVE",
"97 445 OFFCURVE",
"97 426 CURVE SMOOTH",
"97 407 OFFCURVE",
"106 397 OFFCURVE",
"125 397 CURVE SMOOTH",
"144 397 OFFCURVE",
"154 407 OFFCURVE",
"154 426 CURVE SMOOTH",
"154 445 OFFCURVE",
"144 455 OFFCURVE",
"125 455 CURVE SMOOTH"
);
},
{
closed = 1;
nodes = (
"365 455 OFFCURVE",
"355 445 OFFCURVE",
"355 426 CURVE SMOOTH",
"355 407 OFFCURVE",
"365 397 OFFCURVE",
"384 397 CURVE SMOOTH",
"403 397 OFFCURVE",
"413 407 OFFCURVE",
"413 426 CURVE SMOOTH",
"413 445 OFFCURVE",
"403 455 OFFCURVE",
"384 455 CURVE SMOOTH"
);
},
{
closed = 1;
nodes = (
"62 330 OFFCURVE",
"52 321 OFFCURVE",
"52 302 CURVE SMOOTH",
"52 283 OFFCURVE",
"62 273 OFFCURVE",
"81 273 CURVE SMOOTH",
"100 273 OFFCURVE",
"109 283 OFFCURVE",
"109 302 CURVE SMOOTH",
"109 321 OFFCURVE",
"100 330 OFFCURVE",
"81 330 CURVE SMOOTH"
);
},
{
closed = 1;
nodes = (
"410 330 OFFCURVE",
"400 321 OFFCURVE",
"400 302 CURVE SMOOTH",
"400 283 OFFCURVE",
"410 273 OFFCURVE",
"429 273 CURVE SMOOTH",
"448 273 OFFCURVE",
"458 283 OFFCURVE",
"458 302 CURVE SMOOTH",
"458 321 OFFCURVE",
"448 330 OFFCURVE",
"429 330 CURVE SMOOTH"
);
},
{
closed = 1;
nodes = (
"106 206 OFFCURVE",
"97 196 OFFCURVE",
"97 177 CURVE SMOOTH",
"97 158 OFFCURVE",
"106 148 OFFCURVE",
"125 148 CURVE SMOOTH",
"144 148 OFFCURVE",
"154 158 OFFCURVE",
"154 177 CURVE SMOOTH",
"154 196 OFFCURVE",
"144 206 OFFCURVE",
"125 206 CURVE SMOOTH"
);
},
{
closed = 1;
nodes = (
"365 206 OFFCURVE",
"355 196 OFFCURVE",
"355 177 CURVE SMOOTH",
"355 158 OFFCURVE",
"365 148 OFFCURVE",
"384 148 CURVE SMOOTH",
"403 148 OFFCURVE",
"413 158 OFFCURVE",
"413 177 CURVE SMOOTH",
"413 196 OFFCURVE",
"403 206 OFFCURVE",
"384 206 CURVE SMOOTH"
);
},
{
closed = 1;
nodes = (
"235 156 OFFCURVE",
"226 146 OFFCURVE",
"226 127 CURVE SMOOTH",
"226 108 OFFCURVE",
"235 98 OFFCURVE",
"254 98 CURVE SMOOTH",
"274 98 OFFCURVE",
"284 108 OFFCURVE",
"284 127 CURVE SMOOTH",
"284 146 OFFCURVE",
"274 156 OFFCURVE",
"254 156 CURVE SMOOTH"
);
}
);
width = 510;
}
);
note = dottedcircle;
unicode = 25CC;
},
{
glyphname = uni1C2D;
lastChange = "2017-09-18 13:29:20 +0000";
layers = (
{
layerId = "677D40D0-0324-4315-A4A8-9988F2BAD02F";
paths = (
{
closed = 1;
nodes = (
"-30 794 OFFCURVE",
"-50 751 OFFCURVE",
"-50 701 CURVE SMOOTH",
"-50 657 OFFCURVE",
"-33 635 OFFCURVE",
"2 635 CURVE SMOOTH",
"31 635 OFFCURVE",
"53 654 OFFCURVE",
"53 689 CURVE SMOOTH",
"53 711 OFFCURVE",
"44 727 OFFCURVE",
"27 736 CURVE SMOOTH",
"18 741 OFFCURVE",
"14 746 OFFCURVE",
"14 750 CURVE SMOOTH",
"14 761 OFFCURVE",
"25 776 OFFCURVE",
"47 796 CURVE",
"10 830 LINE"
);
}
);
width = 0;
}
);
note = u1C2D;
unicode = 1C2D;
},
{
glyphname = uni1C2F;
lastChange = "2017-09-18 13:29:20 +0000";
layers = (
{
layerId = "677D40D0-0324-4315-A4A8-9988F2BAD02F";
paths = (
{
closed = 1;
nodes = (
"-30 840 OFFCURVE",
"-46 824 OFFCURVE",
"-46 791 CURVE SMOOTH",
"-46 759 OFFCURVE",
"-27 741 OFFCURVE",
"1 741 CURVE SMOOTH",
"28 741 OFFCURVE",
"48 759 OFFCURVE",
"48 791 CURVE SMOOTH",
"48 824 OFFCURVE",
"28 840 OFFCURVE",
"1 840 CURVE SMOOTH"
);
},
{
closed = 1;
nodes = (
"-126 734 OFFCURVE",
"-142 718 OFFCURVE",
"-142 685 CURVE SMOOTH",
"-142 653 OFFCURVE",
"-123 635 OFFCURVE",
"-95 635 CURVE SMOOTH",
"-68 635 OFFCURVE",
"-48 653 OFFCURVE",
"-48 685 CURVE SMOOTH",
"-48 718 OFFCURVE",
"-68 734 OFFCURVE",
"-95 734 CURVE SMOOTH"
);
},
{
closed = 1;
nodes = (
"68 734 OFFCURVE",
"49 718 OFFCURVE",
"49 685 CURVE SMOOTH",
"49 653 OFFCURVE",
"68 635 OFFCURVE",
"95 635 CURVE SMOOTH",
"122 635 OFFCURVE",
"142 653 OFFCURVE",
"142 685 CURVE SMOOTH",
"142 718 OFFCURVE",
"122 734 OFFCURVE",
"95 734 CURVE SMOOTH"
);
}
);
width = 0;
}
);
note = u1C2F;
unicode = 1C2F;
},
{
glyphname = uni1C2E;
lastChange = "2017-09-18 13:29:20 +0000";
layers = (
{
layerId = "677D40D0-0324-4315-A4A8-9988F2BAD02F";
paths = (
{
closed = 1;
nodes = (
"-115 747 OFFCURVE",
"-136 729 OFFCURVE",
"-136 691 CURVE SMOOTH",
"-136 655 OFFCURVE",
"-115 635 OFFCURVE",
"-84 635 CURVE SMOOTH",
"-55 635 OFFCURVE",
"-33 655 OFFCURVE",
"-33 691 CURVE SMOOTH",
"-33 729 OFFCURVE",
"-55 747 OFFCURVE",
"-84 747 CURVE SMOOTH"
);
},
{
closed = 1;
nodes = (
"56 747 OFFCURVE",
"35 729 OFFCURVE",
"35 691 CURVE SMOOTH",
"35 655 OFFCURVE",
"56 635 OFFCURVE",
"87 635 CURVE SMOOTH",
"116 635 OFFCURVE",
"138 655 OFFCURVE",
"138 691 CURVE SMOOTH",
"138 729 OFFCURVE",
"116 747 OFFCURVE",
"87 747 CURVE SMOOTH"
);
}
);
width = 0;
}
);
note = u1C2E;
unicode = 1C2E;
},
{
glyphname = uni1C30;
lastChange = "2017-09-18 13:29:20 +0000";
layers = (
{
layerId = "677D40D0-0324-4315-A4A8-9988F2BAD02F";
paths = (
{
closed = 1;
nodes = (
"-65 713 OFFCURVE",
"-23 781 OFFCURVE",
"44 781 CURVE SMOOTH",
"75 781 OFFCURVE",
"96 763 OFFCURVE",
"96 738 CURVE SMOOTH",
"96 707 OFFCURVE",
"73 689 OFFCURVE",
"38 689 CURVE SMOOTH",
"14 689 OFFCURVE",
"-5 695 OFFCURVE",
"-20 707 CURVE",
"-20 648 LINE",
"-5 639 OFFCURVE",
"14 635 OFFCURVE",
"38 635 CURVE SMOOTH",
"107 635 OFFCURVE",
"155 675 OFFCURVE",
"155 739 CURVE SMOOTH",
"155 801 OFFCURVE",
"108 840 OFFCURVE",
"44 840 CURVE SMOOTH",
"-35 840 OFFCURVE",
"-90 792 OFFCURVE",
"-161 662 CURVE",
"-108 630 LINE"
);
}
);
width = 0;
}
);
note = u1C30;
unicode = 1C30;
},
{
glyphname = uni1C31;
lastChange = "2017-09-18 13:29:20 +0000";
layers = (
{
layerId = "677D40D0-0324-4315-A4A8-9988F2BAD02F";
paths = (
{
closed = 1;
nodes = (
"-66 846 OFFCURVE",
"-110 806 OFFCURVE",
"-110 741 CURVE SMOOTH",
"-110 674 OFFCURVE",
"-66 635 OFFCURVE",
"-1 635 CURVE SMOOTH",
"64 635 OFFCURVE",
"110 675 OFFCURVE",
"110 742 CURVE SMOOTH",
"110 806 OFFCURVE",
"63 846 OFFCURVE",
"-1 846 CURVE SMOOTH"
);
},
{
closed = 1;
nodes = (
"32 797 OFFCURVE",
"55 776 OFFCURVE",
"55 741 CURVE SMOOTH",
"55 706 OFFCURVE",
"32 685 OFFCURVE",
"-1 685 CURVE SMOOTH",
"-37 685 OFFCURVE",
"-57 706 OFFCURVE",
"-57 741 CURVE SMOOTH",
"-57 776 OFFCURVE",
"-34 797 OFFCURVE",
"-1 797 CURVE SMOOTH"
);
}
);
width = 0;
}
);
note = u1C31;
unicode = 1C31;
},
{
glyphname = uni1C32;
lastChange = "2017-09-18 13:29:20 +0000";
layers = (
{
layerId = "677D40D0-0324-4315-A4A8-9988F2BAD02F";
paths = (
{
closed = 1;
nodes = (
"133 733 OFFCURVE",
"115 707 OFFCURVE",
"78 707 CURVE SMOOTH",
"27 707 OFFCURVE",
"-7 784 OFFCURVE",
"-74 784 CURVE SMOOTH",
"-142 784 OFFCURVE",
"-184 729 OFFCURVE",
"-184 636 CURVE",
"-133 636 LINE",
"-133 688 OFFCURVE",
"-115 714 OFFCURVE",
"-78 714 CURVE SMOOTH",
"-25 714 OFFCURVE",
"7 637 OFFCURVE",
"74 637 CURVE SMOOTH",
"142 637 OFFCURVE",
"184 691 OFFCURVE",
"184 785 CURVE",
"133 785 LINE"
);
}
);
width = 0;
}
);
note = u1C32;
unicode = 1C32;
},
{
glyphname = uni1C33;
lastChange = "2017-09-18 13:29:20 +0000";
layers = (
{
layerId = "677D40D0-0324-4315-A4A8-9988F2BAD02F";
paths = (
{
closed = 1;
nodes = (
"149 717 LINE",
"-149 717 LINE",
"-149 646 LINE",
"149 646 LINE"
);
}
);
width = 0;
}
);
note = u1C33;
unicode = 1C33;
},
{
glyphname = uni1C37;
lastChange = "2017-09-18 13:29:20 +0000";
layers = (
{
layerId = "677D40D0-0324-4315-A4A8-9988F2BAD02F";
paths = (
{
closed = 1;
nodes = (
"-31 -89 OFFCURVE",
"-52 -108 OFFCURVE",
"-52 -145 CURVE SMOOTH",
"-52 -181 OFFCURVE",
"-31 -201 OFFCURVE",
"1 -201 CURVE SMOOTH",
"30 -201 OFFCURVE",
"52 -181 OFFCURVE",
"52 -145 CURVE SMOOTH",
"52 -108 OFFCURVE",
"30 -89 OFFCURVE",
"1 -89 CURVE SMOOTH"
);
}
);
width = 0;
}
);
note = u1C37;
unicode = 1C37;
},
{
glyphname = uni1C36;
lastChange = "2017-09-18 13:29:20 +0000";
layers = (
{
layerId = "677D40D0-0324-4315-A4A8-9988F2BAD02F";
paths = (
{
closed = 1;
nodes = (
"97 721 OFFCURVE",
"67 711 OFFCURVE",
"38 711 CURVE SMOOTH",
"0 711 OFFCURVE",
"-36 728 OFFCURVE",
"-72 761 CURVE",
"-158 669 LINE",
"-114 627 LINE",
"-70 675 LINE",
"-37 650 OFFCURVE",
"-1 637 OFFCURVE",
"38 637 CURVE SMOOTH",
"79 637 OFFCURVE",
"119 650 OFFCURVE",
"158 676 CURVE",
"126 741 LINE"
);
}
);
width = 0;
}
);
note = u1C36;
unicode = 1C36;
},
{
glyphname = uni1C2C;
lastChange = "2017-09-18 13:29:20 +0000";
layers = (
{
layerId = "677D40D0-0324-4315-A4A8-9988F2BAD02F";
paths = (
{
closed = 1;
nodes = (
"-81 -46 LINE",
"-173 -191 LINE",
"-109 -232 LINE",
"-72 -213 OFFCURVE",
"-29 -204 OFFCURVE",
"19 -204 CURVE SMOOTH",
"67 -204 OFFCURVE",
"108 -214 OFFCURVE",
"144 -234 CURVE",
"173 -156 LINE",
"135 -139 OFFCURVE",
"93 -130 OFFCURVE",
"48 -130 CURVE SMOOTH",
"-2 -130 OFFCURVE",
"-46 -142 OFFCURVE",
"-84 -167 CURVE",
"-86 -165 LINE",
"-25 -82 LINE"
);
}
);
width = 0;
}
);
note = u1C2C;
unicode = 1C2C;
},
